<svg fill="none" height="32" viewBox="0 0 32 32" width="32" xmlns="http://www.w3.org/2000/svg"><g fill="#d64a0e"><path d="m17.4452 29.337c-1.5509.5629-3.2775.8851-4.957.9901-1.0967.0799-2.63121.0583-3.73446-.7797-.64981-.4235-1.11768-1.0778-1.4134-1.6182-.20679-.3787-.12514-.3814-.17326-.4909-.12141-.2918-.27232-.4263-.36205-.6301-.41916-.9645-.78291-1.8367-1.17421-2.7582-.01362-.032-.02702-.0641-.04022-.0962-.41457-1.0987-.00261-.6538-.08742-1.0435-.12568-.7594-.2005-.0594-.34419-.3338-.22552-.8614-.33474-1.7346-.42542-2.5637.05477.1974.1096.3975.16567.6007-.05229-.367-.08508-.8864.07484-.2933-.00092-.137.00342-.2649.00232-.4037-.10324-.0252-.20559-.6491-.27457-.69-.06684-.0461.00232.2936-.00355.2936-.02733-.0039-.05916-.1926-.09504-.4224-.08069-.5852-.03053-1.1875-.0317-1.2705.01583-.2877.14334-.0399.13162-.2828-.01692-.4193-.26728-.1413.06761-.7078-.10569-.2257-.04961-.2452-.03622-.5305.00177-.0372-.0614-.0097-.06266-.0262-.03541-.4337.07226-.0982.07861-.1001.10736-.0375.07434-.4988.08925-.5965.17253-1.1545.31608-2.0091.5129-3.181l.01543-.053c.02631-.0544.05405-.1115.08137-.1675.11968-.2512.44824-1.0281.58685-1.2588.13513-.2278.14002-.0665.23557-.1726-.06397-.2806.0136-.4825.36178-.86184-.00947-.076-.00549-.11955.00844-.15396.02952-.07065.09802-.10917.20823-.32458.12503-.26165.34103-.82579.67898-.96217-.26583.2692-.20548.28938-.42576.661-.03479.05771-.22891.35799-.3842.66954-.17963.35551-.32582.71781-.23385.70031.08888-.0168.25755-.471.27944-.48048.11993-.05651.07367.22178-.06595.41508.01368-.0592.03306-.1292.04965-.1928-.33604.4251.16494.273-.31024.4823-.05842.0265-.08649-.0099-.16196.0446.00785.0231.09265-.0473.05985.0339-.03352.0826-.18332.1964-.13248.2501.07316.0788.2038-.2673.22207-.289-.00041-.0006-.00082-.0011-.00123-.0016.15953-.1932-.06827.2641-.06997.2904-.01461.1693.07663.0949.01795.3295-.03365.1337-.19958.4341-.24532.5526-.04539.1176.08215-.0382.05485.0426-.02708.0803-.105.1597-.13627.2545-.01296.04.03595.0613.02904.0805-.07338.2069-.11431.0307-.19037.2135-.00713.0173-.01486.0408-.02207.067l.02654-.0913c.00073.1669.0441.4555.10346.2075-.00836.1417-.01784.2808-.02583.4219.02607-.0868.04791-.1767.07747-.2606-.05861.2607.01931.3906.00838.5567-.01062.1661-.13407.3049-.09706.4932.07841.4005.11263-.5709.15043-.6865.01307-.0452.0785.1417.07817.1694-.00242.1234-.07761.261-.08369.3561-.02099.3392.0436.553.03792.8769-.01922 1.1012-.00796 2.4869.05057 3.5003.02129.3699-.0455.6091-.02691.6964.00005.0002.00009.0004.00014.0007.08338.4372.16552.4751.22447.8385.08396.5395.12975 1.2732.20661 1.6933.05076.2926.1911.5293.21213.6007.1302.4467.29433.9186.4945 1.3524.28457.6199.54977 1.2187.76241 1.6926.18027.4016.18552.6202.22644.7036.17041.3444.19403.2204.3186.5002.06678.1481.01813.2084.02495.2287.06427.1822.16444.1746.23388.3005.31461.5653.55756.9757.94014 1.2484.1635.1173.2907.2001.426.2639.0409.0192.0207.0548.0493.0645.1228.0373.0884-.0434.2155-.0072.2671.0713.5936.1242.9596.1439.0373.0019.0504.0552.1359.0565.0849.0008.1489-.0488.2846-.0488.1581-.0004.3185.0058.4846.0092.2105.0037.4223.0064.6398-.012.0637-.0055.1407-.0767.2361-.086.3055-.0289.7593-.0329 1.0181-.0749.8514-.1351 1.6125-.3644 2.3727-.6234.1795-.0611.357-.0639.4494-.0973.2087-.0766.0336-.0681.2416-.1504.6696-.2683 1.3207-.5847 1.9473-.9504.9678-.5658 1.897-1.2483 2.7705-2.0027.5676-.4879 1.188-1.1578 1.6978-1.6692.2122-.2125.3047-.2001.4499-.3568.2559-.2803.2287-.3976.4801-.7053.2002-.2466.5066-.4667.7037-.7318.1962-.2652.2114-.4444.4174-.7554.1701-.257.4416-.5905.6043-.878.0051-.0091.0102-.0181.0153-.0271.9691-1.6984 1.4839-3.515 1.3376-5.3881-.0716-1.1005-.1961-2.1996-.4251-3.2554-.2228-1.02492-.637-2.11235-1.1913-2.82874-.0153-.01898-.0305-.03788-.0455-.05672-.0684-.08603.1084-.03371-.1374-.2659-.1314-.11944-.3451-.23267-.6311-.43902-.7326-.53258-1.7576-.78918-2.8613-.86842-1.5325-.10944-3.0831-.18577-4.5731-.10416-1.182.06789-2.3853.24112-3.4375.5727-2.574.8294-4.88517 2.12723-7.20492 2.91348-.15914.05629-.22772-.17923-.17899-.29435.10198-.01475.20589-.01896.318-.03107-.06096-.30597-.033-.23916.36828-.46563.25152-.13959-.00856-.12174.10262-.23259.14221-.1479.88131-.7407.82134-.48412.03442-.05765.06404-.11078.09796-.16691.57783-.35619 1.14447-.69829 1.72761-1.0275.1006-.05672.08-.11327.1853-.17119.2818-.15479.533-.21949.836-.34898.1666-.07048.1621-.14365.3853-.22481.2216-.07908.249.00952.5171-.19438-.2381-.04229.6771-.27053.9966-.36642.0454-.0153.3999-.22718.61-.26817.0205-.00413.0421-.00799.0647-.01168.215-.0359.5165-.05013.8058-.13686.1503-.04505.2301-.14149.397-.17161.1163-.02086.2684.03149.4148.01605.148-.01646.4609-.11064.5187-.11692.2107-.02466-.0172.0491.1274.03773.6967-.05532 1.5017-.06732 2.182-.11715.0837-.00612-.0336-.06388-.0226-.06613.5682-.08597.2658-.00062.42.05077.1497.04686 1.2344.02001 1.2439-.08245.0321.13183.2741.03465.3372.03201.2433-.01047.1941.10241.4306.07266.0874-.0107-.0804-.09175.0132-.08723.2289.01127.4345.14078.7387.16386.0745.00571.098-.04861.2308-.04166.1291.00635.6797.09807.4296-.0292.0611.01976.1123.0343.1577.04498.2185.04957.3245.02025.6571.05664.1017.01211.2228.11468.4448.12211.0755.00294.0846-.08267.1994-.06261.2572.04643.4778.18571.7941.28746.586.18672 1.247.44638 1.7471.89785.1342.1227.045.15573.2296.33237.0273.02404.2961.19086.4017.31714.0177.02072.0539.06677.0962.12127.1375.16732.3076.43909.3506.50812.1003.15491.1869.13917.2276.23365.1115.27645-.113.13094.2032.35573-.0274.14383.0691.31991-.0082.42584.1626.05238.1146.23797.2351.42759.1203.18911.4097.28542.1803.42127.0657.08645.2476.49357.2696.56472.0694.20858-.0313.11448.0203.27098.0086.0277.0498-.0142.09.1679.0331.1189.2089.993.2059 1.0471.0255.609-.1025-.3167-.1865-.433.0092-.0254.0183-.0506.0269-.0776-.0331-.2667-.1098-.0936-.1105.0292-.0005.1228.0908.3339.0722.4392-.0094.0522-.146.0453-.1575-.1042-.0112.1643-.0939-.0416-.1204.0275-.0252.0755.0759.7782.1465.7724-.0165-.1324-.0445-.296-.0639-.4292.0958-.1991.6229.2701.5102.7928-.0836.3749-.2475-.2059-.0517.6299-.0076-.13-.0075-.2423-.0155-.3613.0942-.023.0105.1803.0508.2768.0199.0467.057-.2561.1059-.0016-.1149.2339.0389.3881.0675.7597-.0317-.1015-.0639-.2024-.0968-.3025-.0499.6296-.1967-.8088-.1586.4005-.0143-.145-.0241-.2899-.0431-.4336-.0443.0745-.2012-.0253-.2271.04-.0533.1327-.0232.3099-.0058.4747.0048.0449.0086.0902.0094.1336.0015.0865-.0412.0349-.041.0422.0012.1195.0585.0897.0659.195.0111.1324-.0473.5117-.0445.5727.0117.1598.1352-.1028.1429-.0877.0548.1043-.0013.3138.0721.3058-.0073-.3303-.0156-1.0572.0191-1.1763.007-.0205.0161-.0228.0277-.0019.0242.0453.0636.2015.0993.5265.106-.3741.282-.2803.2952.2727.0008.4564-.0573.1604-.1385.3925-.0059.0314-.0923.6259-.0506.6633-.113-.0373-.2404.1388-.3436-.0036-.0145-.0198.019-.2566-.0867-.1844-.0526.0357-.1722.1395-.2315.1126.0371.0519.0786.1077.1163.1629-.0391.3481-.0983.3894-.2145.5587.0343-.0007.2094-.1455.1115.1085-.0056.0128-.0571.0147-.1126.1402-.1143.2551-.1454.3015-.2372.0652-.0623.5619-.2577.6257-.4149 1.1739.2177-.0359.2577-.2433.3771-.7577.0501-.0087.0963-.006.1471-.0158-.3108.6454-.194.3109-.2434.722-.0107.1023-.2381.5786-.0512.467.0454-.0256.1668-.3354.1963-.2824.0078.01-.1259.3938-.1539.4222-.3272.3404-.0715-.4123-.564.6993-.0142.0304.0295.0669.0047.1292-.0462.1155-.1032.0851-.1445.1893-.0328.0822-.0394.2062-.1178.3081-.0209.0271-.0471.0522-.0803.0738-.1345.0872-.1354-.0158-.0798-.169.0642-.1735.1936-.4114.3075-.5395-.0412-.0758-.2113.1554-.4293.4671-.358.5235-.8956 1.2651-.941 1.339-.3096.5309.2674-.3062.3355-.3212.0301-.0043.2586.1669.2538-.1513-.002-.0933-.2414.1275-.1586-.0456.0813-.1722.1082-.064.1208-.0719.0439-.0286.1293-.2137.1528-.2287.3689-.2444.5814-.0639-.0502.1675-.0552.2463.3648-.1243.254.1543-.1374.3413-.3981.4789-.4287.5118-.3746.3931.1492.007-.2968.498-.2512.2703.2356-.5099-.2669.1581-.4294.552-.1433.299-.0586.4333.0195.0314-.1941.3598.1293-.0599-.021-.036-.0433-.0901-.0506-.1384.1036-.0831.389-.1315.4376-.1837.2313-.2486.1399-.2977.3539-.387-.1892.0374.011-.1023.0396-.19.1026-.3225-.1671.0069.348-.519-.1035.0452-.201.0822-.3022.1219.0468-.0717.0934-.1444.1395-.2175.183-.0297.4197-.4336.306-.0049.1634-.2144.2601-.372.3099-.4919.0455-.1094.0534-.1887.0363-.258-.0074-.0275.0238-.0981.0651-.1766-.0339.0004-.1238-.0252-.1268-.0428-.026-.1542.2136-.2444.2399-.1561.032-.0536.0578-.0952.0671-.1097.0593-.0925.0122.125.071.0554.02-.022.1493-.3077.1726-.3032.1498.0305-.1606.4593.3532-.4555-.1162-.0758-.2868.3745-.3697.1999-.0876-.1851.2129-.344.0555-.4732.0377-.0073.0659-.0057.1067-.0094.0762-.4141.2235-.3626.3019-.472.1604-.2082.4578-1.3126.0386-.3698.0317-.1467.0677-.2936.0937-.4394.2849.0402.1697.1051.3617-.5966.0393-.1543.1743-.1865.049-.3667.1462.0448.1191-.4436.138-.4854.1523-.2809.1856.8235-.1153.9053.0645.1968-.0678.1699-.0953.3667-.0438.2857-.0288.3355-.223.6325.0491.3712.4062-1.2649.3278-.2343-.0307.4392-.3908 1.748-1.1192 3.0439-.9641 1.7695-2.4737 3.4493-3.0103 4.0144-1.7062 1.7666-2.6949 2.626-4.6176 3.8104-.0088.0052-.0202.012-.034.0202-.2794.1899-1.6463.8688-1.4117.5774.0385-.0409.651-.4126.0459-.2574.1457.0139-.1599.214-.1841.2327-.5662.4446-.172.3443-1.2109.7375zm-3.3974-.6439c1.3127-.1834.3344-.1277.5593-.4156-.1628.0299-.3282.0576-.4921.0825.0452.0085.0903.0169.1364.0249.0002 0 .0003-.0001.0005-.0001-.0667.1032-.1342.2059-.2041.3083zm-7.90761-16.038c.00202.0148.00414.0294.00634.0438l.05065-.1741c.01861.0416.03718.0836.05505.1284-.03391.1714-.06526.342-.09524.5148-.01939-.0233-.03909-.046-.05842-.0693.02352-.1927.04958-.3862.07547-.5772l-.04884.1679c.00492-.0113.00992-.0227.01499-.0343zm21.15561 6.2711c.1929-.1825.0404-.2318.2448-.4984-.1245-.0123-.2482-.0203-.3715-.0334-.0886.2268-.0735.298-.2221.5193.0481-.0096.0967-.0199.1446-.0291.0129-.0425.0269-.0901.0399-.1318.1272-.0135-.0575.3775.1641.1743 0-.0003.0001-.0006.0002-.0009zm.8417-2.3734c.0493-.1229.202-.6261.1603-.7056-.1157-.2559-.2819 1.1818-.2282.1098-.0238.0009-.0456-.0076-.0683-.0114-.0397.1881-.0842.3727-.135.559.0918.0111.1785.0387.2712.0482zm-9.553 10.7119c.1935-.0727.9978-.6211.6703-.5556-.0929.02-.3969.3602-.5479.4288-.0963.0446-.0272-.0827-.201.0389.0245.0284.0477.0619.079.0874-.0002.0002-.0003.0003-.0004.0005zm-.1399.6016c.1915-.1061.3811-.2211.5663-.3359-.1831-.009-.4369.1834-.5109.0716.0491-.0349.0964-.0692.1449-.1045.0533.0057.1063.0114.1596.0168.1316-.149.0166-.127.3296-.272-.2798-.0779-.3528-.151-.7911.2851.0519-.1456-.1888-.4187-.3746-.0579-.036.0678.2071-.0078.2121-.0024.0744.0678-.0285.1805.0461.2427.0342.0282.1746-.038.2197.0013.0215.0197-.0815.1528-.0017.1552zm-.5828-.2531c.0368-.0774-.2184-.1109-.3855-.0143-.2622.1503.2245.0934.3855.0143zm-11.72125-14.9592c-.00012.0004-.00024.0008-.00036.0011-.00003-.0002-.00007-.0004-.0001-.0006.00015-.0002.00031-.0003.00046-.0005zm21.75505 4.5338c.0014-.1613.068-.3776-.0101-.3809.034-.0685.0667-.1361.099-.205-.0224-.0048-.045-.0089-.0671-.0136-.0666.2115-.141.4198-.2231.6263.0667-.0075.1328-.0129.2013-.0268zm.4575-2.4059c.0123-.2842-.0947-.0469-.1437-.1099-.0482-.062-.0105-.3104-.0821-.2804.0004.1639-.0036.334-.0124.4987.0795-.0402.1597-.0689.2382-.109zm-19.12483 13.1675c.10188.1274-.00378.1547.31411.2793-.0002-.0002-.0004-.0003-.0006-.0005-.22126-.2318-.42073-.5398-.67372-.8221.05543.236.20782.335.36021.5433zm17.53623-8.539c.0131.1031.2497-.2035.2371-.3051-.018-.1629-.2557.152-.2371.3051zm-21.1296 1.5109c-.23984-.2716-.36516.3456-.13338.9361.01897.0504-.0072-.3538.05496-.2457.00579.0112.04865.2256.08751.2719.03855.0464.08599-.023.13196.0567.07902.1385.08862.4976.18041.5912.01148.0119.03191-.2176.03197-.2312-.01011-.2245-.16435-.4037-.17309-.4377-.04354-.17.04621-.1635.05606-.2108.01872-.0889-.04806-.2245-.04729-.2353.02011-.2741.12091.3218.17254.3927.13309.1919.15438-.0177.33442.4662.0172.0467.17594.6029.06398-.1244.59551 1.3018-.09793-.7052-.14897-.9482-.0409-.1031-.08898.0747-.13764.0168-.11197-.1329-.17194-.3881-.28406-.3449-.23601.0934-.01451.4065-.00517.6475-.05791-.0134-.11137-.012-.17248-.0471.0819.0557.00411-.534-.01125-.5539-.00016 0-.00032.0001-.00048.0001zm1.42297 3.4693c.06892.3381.20248.2532.24485.568.23978.1921.01294-.2931-.00534-.3536-.08345-.274.05973-.3287-.10334-.5779-.04156.1287-.09103.2421-.13617.3635zm-.91415-2.7005c.12626.1944.03746-.1851.05013-.204.11519-.1992.35399.9333-.05013.204zm13.71138 5.2262c.0992-.055-.0019-.0816.0701-.153.0721-.0707.392-.2016.3587-.237-.0342-.0327-.617.1981-.1139-.1606-.0321-.0106-.0372-.031-.0588-.0455-.1409.092-.2861.1834-.4291.2708.1188.0167.2421.0342.3584.0475-.0486.1034-.1361.0659-.1403.0686 0 .0001.0001.0001.0001.0002-.1468.0995-.2686.331-.0452.209zm-8.4557 2.0363c-.0398.1895.2256-.0152.3279-.0406.1037-.0238.2514.0422.1947-.0381-.1708-.0497-.5166.0593-.5226.079 0-.0001 0-.0002 0-.0003zm-3.59578-2.9033c.16018.2356.18445.173.28058.5034.03574-.0316.0724-.0637.10754-.095-.11533-.243-.22738-.1679-.31074-.4759-.01335-.0504.12989.0068.00156-.1916-.02316.0863-.0522.1745-.07894.2591zm.75977 1.1423c-.15301-.2614-.6037-.3149-.17622.1173.0652.0632.2952.0776.17622-.1173zm8.65001 1.0214c.5118-.1824-.0869-.0174-.2382-.0272 1.1615-.4835-.1281.0727-.3079-.0789-.127.0997-.3637.3033-.0497.2384.1319-.0284.0677-.0672.0754-.0694.2357-.0645.2389.0333.5204-.0629zm-10.40264-4.3517c.01103.0177.05594-.039.09523.0171.03935.0565.05915.2106.10093.2076.04314-.0008-.0537-.292-.11637-.3608-.06435-.0719-.17816-.0225-.07979.1361zm.71744 1.989c.15463.2284.18499-.2761.16046-.3286-.22639-.4733-.08654.3117-.16046.3286zm8.5905 3.1368c.6121-.3026.0773-.3583-.3469-.3769-.0454.0381-.0941.0767-.1398.114.2017-.2124.5755-.4592-.3137-.1022.5154-.0854.1016.0565.099.0658.0098.2934.7381-.0308.7009.2995.0001-.0001.0003-.0001.0005-.0002zm-9.5865-5.9549c-.10419-.2552-.35268-.9439-.37595-.5815.11951.2005.24459.3944.37595.5815zm18.5786-.0793c.2118-.1302.3562-.2964.5424-.5239-.2498.1353-.1461-.0048-.1078-.0891.058-.1273-.1504.1237-.1564.1193-.0707-.0684.0541-.2341-.253.1228.0511-.11.1004-.2193.1493-.3289-.2353.2679-.3399.2881-.5484.4042.2878-.0362.0083.0994-.101.3566-.0547.1292.3674.0058.4755-.0616-.0002.0002-.0004.0004-.0006.0006zm-8.3146 5.8704c.0561-.0543.1008-.118.1513-.1766.0673-.0268.1362-.0542.2025-.0817.0185.0256.0363.0529.056.0768.0934-.0242.0438-.0513.0693-.0647.0001.0001.0001.0003.0002.0004.3643-.1939.5194-.2513.8513-.2912-.0369-.0853-.0737-.1706-.1106-.2558-.0619.0364-.1245.0723-.1864.1074-.0154.0605-.0323.1214-.0489.182-.0878.006-.1725.0102-.2605.0148-.0555.0409-.1231.0867-.1705.123-.3987-.1283.3624-.2256.3266-.3319-.0207-.0619-.7143.2039-.8033.2793-.0125.0115.2032.1431-.0888.1349-.0475-.0016-.1872-.3935-.3664.0163-.0266.0582.1908.2644.3782.267zm2.6147-.9755c-.3461-.0215.2633-.2641.4497-.3852.0676-.0424.08-.0646-.0279-.047-.0281.0047-.0643.0119-.1095.0219.0271-.052.0452-.0896.0535-.1166.0127-.0426.0013-.0586-.0378-.064-.0336-.0044-.0876-.0008-.1637 0-.0196.0001.0788-.0964.0668-.0944-.186.04-.3582.172-.4129.0771-.0394.0284-.0767.0547-.1162.0827.2259-.0056-.0217.2088-.0946.3438-.0327.0614.0899.0113.063.0642-.0101.0198-.1855.0814-.1766.117.0227.0798.1767.1269.3826.0862 0 .0001 0 .0002.0001.0003.0421-.0284.0824-.0574.1235-.086zm-8.9521 1.5978c-.0453-.1642-.3061-.2569.2424-.2211-.022-.0332-.0431-.0662-.0644-.0998-.0879-.0138-.1747-.0304-.2624-.0513-.40366.3557-.71134-.346-.5255.0838.01964.0469.2522.0989.00288.0964.00026.0002.00052.0004.00078.0006.31494.0956.36404.0495.60624.1914zm2.083-.0253c.3119-.1663.1304-.2003-.1273-.1853-.3053.02-.7222.0851-.5711.1276.0201.0061.3825-.037.5785-.0179.0793.0088.1332.0304.1199.0756zm-4.95067-2.318c.14224.2916.3035.2298.34073.1728.03751-.0573-.11814-.2244-.12175-.2537-.01353-.0966.0932.0683.07782-.0577-.00803-.0424-.19184-.5614-.20802-.5822-.09643-.1112-.13403.1352-.16555.1053-.1031-.0969-.11256-.2898-.1946-.2921-.17724-.009.11179.2242.1379.2727.07943.1514-.00785.1736.03189.2977.0384.1205.10338.1841.14846.288.01516.0348-.05377.0342-.04688.0492zm.83564.7459c-.29989-.2103.0644.5579.18209.6068.26063.1513-.0651-.508-.18209-.6068zm9.84403.1154c-.2393.2096.4393-.0154.6015-.1438-.0514-.0151-.5194.074-.6015.1438zm-2.3327 1.0718c.2639-.1008-.1491-.2026-.3709-.1465-.1012.1644.018.1089.1666.0773.1494-.0323-.0017.1459.2043.0692zm-9.63554-5.1217c.02085.0505.52005.8901.3353.3624-.00971-.0281-.17104-.3634-.27372-.557-.03667-.0692-.06426-.1198-.07475-.1301-.05593-.0554-.05783.0551-.03078.1777.0113.0516.02678.1044.04395.147zm8.35314 5.6094c.1284-.1425.2705-.1686.1109-.2793-.0002 0-.0004 0-.0006.0001.3595-.1118.4347.1586.5135.1362.2764-.0829-.0322-.2209.1262-.3246-.3889.1503-.3024-.0082-.6093.0435-.0683.0118-.3299.1405-.3626.1967-.0324.0567.1346.1829.2219.2274zm-8.87427-6.9c.05432.3341.33542.555.22012.1143-.05232-.2143-.25092-.317-.22012-.1143zm23.11027-6.3894c-.0586.0415-.1173.0828-.1767.1266.012-.1218.0213-.244.028-.3656.0007.0971-.0007.1956-.0034.293.059-.2212.1655-.3129.1522-.0546-.0001.0002-.0001.0004-.0001.0006zm-1.1221-8.03648c-.0056-.11751-.2403-.22671-.2368-.19656.0228.211.2432.35663.2368.19656zm-8.8956 19.98408c.3553-.1539.0074-.2498-.2079-.1646.1498-.0208.0061.2495.2079.1646zm9.7966-17.2261c-.0136.0377-.0273.0756-.0404.1173.005-.1238.0196-.1483.0404-.1173zm-22.50166 13.1849c.00705.0609.16519.4517.20957.4947.09272.0885.08016-.2688-.0362-.4272-.01302-.0182-.1796-.1269-.17301-.0667-.00012-.0003-.00024-.0006-.00036-.0008zm22.89416-8.4121c-.0024.0004-.0045-.0003-.0064-.0017.0021.0007.0043.0008.0064.0017zm-8.8914-11.00149c.0023.00379.0035.00755.0032.01114-.0008-.00354-.0026-.00727-.0032-.01114zm-12.95258 22.23059c-.14568.2326.11916.4833.10032.1907-.00074-.0146-.08609-.1598-.10032-.1907z"/><path d="m18.0053 14.9079c-.1665.8924-.2857 1.8397-.3666 2.7129-.011.1106-.0776.1005-.0882.1312-.029.0867.0472.1448.0376.2108-.0247.1713-.0474.3479-.0774.5267l-.0069.0499c-.03.1258-.0576.2523-.087.3838-.0631.2902-.2525.1271-.3155.2252-.1221.1945.168.0497.2199.1369-.0417.2321-.0937.4705-.1451.709-.02-.0609-.0395-.1221-.0574-.1838-.0153.1042-.0706.2514-.1256.0687-.0231.0373-.0491.0713-.0718.1101.0978.0194.0892.2076.1463.2295.0571.0221.0528-.0839.0579-.083.0524.0101-.0055.2346-.0451.3703l-.0029.0273c-.0172.052-.0315.0911-.0348.0995-.0328.0824-.1447-.0084-.1465.0646-.0032.1245.2558.0777-.0967.1974.0976.0809.0412.0791.0218.1609-.0026.0109.0606.0113.0615.0164.0275.1323-.0734.0188-.0797.0186-.1075-.0043-.0805.1377-.0949.1638-.1799.3354-.3062.5789-.3951.9456-.0191.0794-.0157.3302-.0463.405-.0301.0734-.0995.02-.1426.0541.1726.0944.1829.1583.0388.283.1248.075.0182.0508.0281.1578.0081.0894.1441.2639-.0079.3362.0302-.1064-.0373-.1055-.0571-.2334-.0064-.0429.0594-.4642-.0821-.4555-.0739.0049-.0312.1549-.0453.1585-.0816.0191-.1627-.0747-.1186-.1381.0126.02.0249.0429.0373.064.1208-.1395-.2635-.0929.0764-.1583.0417-.0083.0818.0041.1275-.0132-.0164-.0078-.0641.0147-.0677-.0119-.0035-.0273.0858-.0626.0184-.0813-.098-.0269-.076.086-.0831.0933.0005.0002.0011.0004.0017.0006-.0646.063-.0463-.0875-.0547-.0956-.0546-.0563-.1076-.0328-.1477-.11-.0229-.044.0105-.1412.0071-.1802-.0037-.0383-.0601.0113-.0663-.0151-.0061-.0265.0346-.0509.0276-.0822-.0031-.0133-.0559-.0212-.0568-.0275-.0098-.0677.0928-.0074.0956-.0673.0016-.0387-.0801-.1822-.1246-.0991-.0037-.0443-.0051-.0858-.0066-.1294-.02.0243-.0349.0493-.0574.0722.0376-.0742-.0468-.1249-.0457-.1749.0012-.0507.1163-.0775.0721-.1401-.0941-.133-.0873.1613-.1131.1937-.0101.0125-.0863-.054-.0875-.0625-.0047-.0385.0626-.0714.0643-.1001.0057-.1019-.0646-.1763-.066-.2738-.0044-.3327.0109-.7407.0298-1.0374l-.0038.0358c0-.0003.0001-.0006.0001-.0009.0035-.1178.1003-.1809.1023-.2336.0046-.124-.0731-.1455-.0677-.2542.0078-.1616.0979-.3832.1264-.5177.0196-.0931-.0476-.1869-.0468-.2121.0073-.2877.0489-.6358.0954-.9157l-.0072.0519c.0049-.0457.0089-.0883.0124-.1292.0094-.113.0987-.165.0979-.19-.0039-.1084-.0794-.084-.0669-.1731.0067-.0492.0778-.0545.0809-.061.0265-.0574-.0652-.0749-.0658-.1214-.0032-.2722.0751-.5432.1111-.8224.0027-.0197.0432-.0139.0424-.0269-.0045-.0565-.0713-.0368-.0698-.0967.0027-.1234.0275-.2454.0521-.3755.0023-.0123.0553-.0111.0589-.0396.0037-.0286-.043-.0568-.034-.1027.0229-.1173.0989-.2275.1206-.3494.0036-.0206-.0552-.0559-.0496-.0877.0163-.0931.0971-.2321.1123-.3105.0519-.2708.0614-.5254.1089-.7773.0113-.0591.0793-.1014.0868-.1328.0165-.0689-.0482-.027-.0349-.0963.1111-.5728.2599-1.141.3852-1.7118.0471-.2139.055-.4743.1132-.6885.0039-.0145.008-.0286.0123-.0424.0314-.0997.1106-.0982.1297-.1674.0345-.1228-.0537-.172-.0246-.3035.0236-.1048.1539-.1895.1822-.2932.0284-.1037-.0458-.1813-.0158-.3009.0245-.0978.1127-.2139.1425-.3153.0826-.2827.17-.5605.2286-.78986.0285-.10768.0477-.22732.0406-.2158.0085.01377-.0497.06187.0911.35282.0729.14184.2564.30224.4049.35554.1461.0572.2347.0553.2871.0553.2742-.0283.2086-.0536.1868-.031-.0362.0182-.0971.0539-.1606.0936-.1288.0803-.2768.1789-.4251.2754-.272.1777-.5487.4207-.8765.5694-.0305.0136-.0507-.0892-.1186-.0081-.0346.0412-.0435.1364-.1222.2201-.007.0075-.0145.0148-.0226.022-.5836.5153-1.3304.9169-1.9146 1.4506-.8661.7961-1.4265 2.1123-2.7369 2.0108-.0041-.0171-.0215-.0138.0081-.1286.0118-.0527.0107-.1433-.0079-.169-.0173-.0289-.0321.0211-.0607.0625-.14.1565-.1681.0088-.1874-.0029.0482.0177.1035.0418.1612.0602-.1733-.2327-.1248-.1763-.0068-.2474.0743-.0447-.058-.0921-.0478-.1481.0136-.073.1263-.3606.2124-.182-.0089-.0362-.0164-.0718-.0259-.1064.1308-.1519.2468-.3145.3597-.4833.0189-.0287-.0191-.0751.0009-.1048.0548-.0811.1353-.098.2057-.1658.0392-.0377-.0022-.0934.053-.1345.0545-.0405.1165.0296.1199-.1066-.1224-.05.1398-.1607.2085-.2282.0107-.0103.0296-.1642.084-.1943.055-.0309.1688-.0388.2165-.129.0223-.0423-.0086-.1236.0242-.1573.0232-.0239.1009.0061.1356-.019.0346-.0252.0675-.1311.0791-.1422.0437-.0419.0257.0403.059.0157.1627-.1216.3585-.25.4881-.4036.0161-.0189-.0487-.0435-.0475-.0471.0807-.1644.0624-.0463.1314-.0335.0657.0132.2917-.2131.2254-.2946.0918.0948.0814-.0275.0931-.0424.0454-.0573.1083.0385.1379-.0321.0111-.026-.0757-.0537-.0536-.0693.0548-.0384.1804.0178.2577-.0307.0187-.0116-.011-.0586.0193-.0814.0302-.0228.1974-.0744.0658-.1159.1346.0089.1184-.0441.2063-.114.0225-.0178.1077.0268.1373-.0337.0101-.0206-.0452-.0859-.0214-.1066.0548-.048.1613-.0214.2335-.077.1232-.0946.2132-.2349.3426-.3337.0138-.0105.0278-.0204.0423-.0296.0411-.0263.087.0474.1412.0047.0076-.0063.0267-.1187.0677-.1434.0252-.0154.1745-.0706.2016-.0873.0437-.0271-.0022-.097.0293-.1017.0914-.0141.1196.1209.0884-.06978.0825.05248.1211.00929.207.08678-.0532-.11806.0547-.0506.0786-.1236.0221-.07167-.0868-.29521.0877-.10045.0025-.04267.0695-.16475.0841-.18122.0436-.04843.0613.02946.0926-.00736.0055-.00636-.032-.03984.0145-.0698.0284-.01861.2415-.17678.2589-.18033.1927-.04587-.0515.09862-.048.164-.014-.00701-.028-.01405-.0423-.02056-.076.02865.0271.09026.0705.08973.0449-.00166.067-.08047.1134-.06928.0227.00608.0955.11848.0499.13245.0631.00422.0367.07828.0751.0979.0422.02072.2177-.09112.176-.15105-.0328.02003-.0716.05126-.105.07201-.1193-.07095-.2463-.52254-.0148-.46808.1671.04178.0596.22851.232-.00499-.0388.01727-.075.02596-.1097.04201-.0553-.07871.0531-.0229.0648-.06563.0061-.02141-.1136-.02736-.0525-.09168.1366.07946.104-.06803.2541-.13475-.0332.04001-.0594.07964-.0815.11857.243-.00775-.1932.23955.2065.11345-.0478.02249-.0916.04239-.1299.07021.043.03434.0816.18119.1124.2003.0773.05188.1124-.01841.1566-.02156.0181-.00099.0152.04064.017.04046.017.00102.0075-.04831.0211-.05926.0015-.00081.003-.00138.0047-.00166.0446-.00588.0531.06386.0443.05213.0199-.00246.088-.09978.0836-.11322.0637-.02667.0631.06544.1254.03165-.0399-.07426-.173-.13877-.2625-.1385-.1246-.00121-.2596-.01701-.0035-.12843.0229-.00598.0489-.01099.0787-.01314-.0331-.02867-.0615-.055-.0812-.08126-.0413-.04665-.0523-.09537-.0037-.13697.0451-.03705.1352-.1009.3707.00369.2316.13649.2193.21987.2118.23579-.0155.02251-.0393.03808-.0323.13809.0351.05994.0171.35664.058.3605-.1161-.01338-.225.03897-.3414-.01255-.0163-.00823-.0072-.07864-.1049-.05593-.0488.01089-.1565.03116-.2181.02156.0423.01295.0896.02846.1327.04663-.0003.09294-.0516.09987-.1412.13102.0331.00605.1825-.01087.1226.05357-.0035.00317-.0531-.00632-.0873.02428-.0693.06157-.0884.06927-.2159-.0253.0383.17146-.1321.15596-.1407.32906.1914.0312.1686-.0431.1793-.19804.0453.00742.0892.01792.1351.02504-.1608.1638-.1199.0706-.0701.2112.0119.0356-.0633.1739.0755.1683.0329-.0019.0618-.0942.1034-.0684.0077.0057-.0101.125-.0257.1314-.188.0714-.2069-.1857-.2797.1738-.0019.0099.0492.0325.0497.0535.0008.0396-.06.0178-.0574.0541.0027.0357.0683.1085-.0242.1279-.1683.0348-.1734-.1952-.0676-.258-.1657-.1043-.4058.5408-.4028.591.006.2026.069-.1092.1249-.1064.0234.0011.2898.0989.1424-.0364-.0436-.0403-.144.0272-.1529-.0375-.0087-.0653.0622-.0152.0691-.0173.0238-.0069.0155-.0753.0293-.0787.2111-.0541.4624.0494.0299.0651.0615.0971.2523-.0059.2807.097.0345.1253-.1127.1543-.1228.1655-.1175.1287.1209.0157.001.1809-.0664.0927-.0674-.1952-.1347.0457-.0546.2027.0432.1148.1809.1747.0322.0141.0394.1336.0708-.0163-.0357-.016-.0821-.0396-.1133-.0599.0388-.0275.2436-.0257.2562-.0419.0614-.0808-.0355-.1097.0957-.1245-.1365-.0043-.0408-.0408-.0584-.0737-.0647-.1214-.1413-.0192.0519-.1724-.0667.0049-.1316.0081-.1979.0128.0065-.0245.0131-.0492.0197-.0737.1392.0104.1688-.1212.2548.0389.0857-.1234.0787-.1887-.0086-.2548-.0166-.0127-.0167-.0355-.0094-.0609-.0294-.0055-.1169-.0311-.126-.0388-.0793-.0685.0992-.0625.1533-.0221.0091-.0159.0174-.0278.0206-.0321.0206-.0268.0537.0526.0815.0352.0092-.006.0286-.0957.0514-.089.1471.0414-.008.1468.1788-.1083-.1284-.0528-.147.0881-.2734.0041-.1358-.09.0906-.0916-.0866-.1733.0322.0048.0583.0111.0944.0181-.0395-.1425.1134-.0908.1596-.1152.0911-.0456.1818-.38131-.043-.1278.0006-.0476.0072-.0907.0082-.1378.2805.0693.1658.0733.2637-.14501.02-.04654.1505-.04921.0091-.12685.1481.03246.0778-.17197.09-.19996.0536-.08041.1356.02976.1464.14648.0123.11531-.0369.21834-.1696.21028.0857.08361-.0456.05059-.0446.11706.0008.0944.0216.1166-.1045.1847.1043.1462.1768-.38134.2663-.0195.0802.394-.3843 1.8574-.4029 2.2116-.002.0122-.0038.0235-.0055.0339-.1091.6874-.1562 1.047-.2929 1.6496-.0132.0565-.0925.5109-.2324.3841-.0204-.017-.0416-.2223-.2003-.0826.0806-.0182.109.0875.1152.097.1382.2279.2034.1234.1477.42zm-1.5863.6342c.1036-.3948-.0529-.1178-.2808-.243-.0098.0532-.0192.1052-.0283.1563.0174-.011.0348-.0218.0522-.0328 0-.0001 0-.0002 0-.0002.0856.0403.1712.0803.2569.1197zm-.9134 6.4848c-.0295-.0205-.059-.0409-.0876-.0625.0183-.0505.0363-.1004.0545-.1514.0207.0097.0416.0192.0623.0289-.0107.0614-.0216.1229-.0292.185zm2.2747-11.4947c.1103-.0398-.0429-.0873.0597-.1557-.1153-.029-.2286-.0561-.343-.0843-.009.0759.0273.1074-.0282.1743.039.0042.0782.0084.1173.013-.0029-.0159-.0065-.0328-.0087-.0477.1071.0168.0765.1458.203.1007 0-.0001-.0001-.0002-.0001-.0003zm.1906-.71196c.0251-.02921.1097-.14962.0611-.16858-.1508-.07986-.1163.26086-.2103-.00442-.0231-.00315-.0454-.00802-.0682-.01201-.0141.0331-.0307.07348-.0493.11776.0894.02128.1766.04653.2667.06725zm-1.2933 4.27746c.0251-.0599.0095-.3667-.1133-.2936-.0358.0207.0842.1823.0674.2316-.0107.0315-.0842-.0212-.0675.0485.0362.0044.0761.0108.1132.0132 0 .0001.0001.0002.0002.0003zm.4474.2088c-.002-.0643-.0073-.1314-.0093-.1986-.1018.028-.0611.1304-.1918.1092-.0063-.0191-.0126-.0381-.0189-.0574.031-.0075.0621-.0148.0931-.022-.0591-.0694-.1011-.0428-.0592-.1424-.2087.0217-.317.0144-.1537.2266-.0999-.0532-.452-.096-.2244.0537.0422.028.0887-.0444.096-.0426.0933.0068.143.0603.2314.0651.0402.0016.0485-.0426.1039-.0386.0269.0023.0934.06.1329.047zm-.487.0343c-.0511-.031-.1956.0113-.1805.0745.0235.098.1758-.0189.1805-.0745zm-1.1324 7.6865c0-.0001 0-.0002 0-.0004l.0003.0003c-.0001 0-.0002.0001-.0003.0001zm2.3493-12.04551c-.0316-.05739-.0074-.11391-.0815-.13139.02-.01523.0395-.02973.059-.04444-.022-.0059-.0442-.01163-.0661-.01748-.0286.05039-.0603.10459-.0937.16028.0605.01168.1212.02358.1823.03303zm.2124-.29855c.1118.06673-.0313.09647-.0308.15598.0314.07939.1459.05547.12.1228-.0442.00517-.2282-.051-.3166-.18323.0854-.01448.1609-.05132.2276-.09537 0-.00006-.0001-.00012-.0002-.00018zm-1.9326 7.51946c.0268-.0585.1035-.0296.021-.1561-.0001.0001-.0001.0002-.0001.0003-.0738.1096-.1417.2545-.0867.385.0877-.0721.024-.1348.0658-.2292zm1.3554-6.5562c.05.045.1393-.0465.0939-.091-.0738-.0718-.1698.0223-.0939.091zm-1.0322 8.979c.1832.1079.4138-.0414.3389-.2263-.0066-.0161-.079.0916-.1129.0541-.0034-.0038.0075-.066-.0175-.0842-.0251-.0182-.0887-.0083-.1121-.0364-.0408-.0498.0542-.142-.0016-.1818-.0075-.0054-.0972.0483-.1008.0521-.0571.0592.0447.1334.0444.1431-.0015.0516-.0856.0356-.1069.0464-.04.0206-.0068.0681-.0099.0707-.0822.0707-.0432-.1057-.0712-.1334-.0758-.074-.1592-.0208-.1888-.184-.0028-.0152.0223-.1953-.0979.0216-.1479-.4707-.1381.214-.0995.2893.017.0356.1029-.0074.1374.0165.0788.0541.0861.1338.2043.1379.2484.0086.0963-.1093.145-.1756.0528.0127.1048.021.156.0396-.0686-.0284-.1209.1429-.1074.1504zm-.1493-1.1485c.0684-.0673-.006-.0934.0009-.1366l-.0022.0163c.0013-.0126.0104-.0271.0335-.0454-.0917-.0622-.1223-.0094-.1362.0341l.003-.0219c-.0075.0207-.0114.0398-.0148.0452-.0487.0798-.1996.0548-.1664.1505.0941-.0172.1882-.028.2822-.0422zm-.1723.8604c-.072-.0748-.0829.0447-.0984.048-.1657.0369-.0975-.3185.0984-.048zm.9289-5.5546c.0124-.0321-.0664-.0268-.0821-.0609-.0157-.0352.0692-.1206.0223-.1276-.0466-.0085-.2059.1485-.1927-.0396-.0273.0005-.0463-.0057-.0704-.0078-.011.0479-.0238.1021-.0352.1526.0808-.0121.1656-.0243.2438-.036.0533.0417-.0265.0415-.0268.043.0001.0001.0002.0001.0002.0001-.0054.055.1135.1481.1409.0762zm-.699 2.5841c.1875.0328-.0135-.0712-.0324-.1079-.019-.036.0571-.0731-.0264-.0665-.0635.0481.0379.1696.059.1744-.0001 0-.0002 0-.0002 0zm-.0061 1.6017c-.0411-.084-.0913-.0732-.0294-.1705-.0462.0014-.0933.0028-.1387.0042-.0053.0791.1283.0813.0692.1687-.0098.0141-.114-.024-.0842.0444.058-.0154.1223-.0312.1831-.0468zm-.1476-.417c.0017.0966.369.1917.2111.0071-.0236-.0272-.2125-.0795-.2111-.0071zm.6867-2.9055c.0419-.1593-.0527.0126-.1168.044.0278-.3835.0068.0457-.1865.0464.0446.0555.1508.1609.2007.0748.0208-.0362-.0375-.0326-.0368-.0349.0275-.0694.1167-.043.1394-.1303zm-.6072 4.0059c-.0019-.0066-.0668-.0059-.0767-.0274s.0411-.0599.0028-.07c-.0386-.0103-.0821.0756-.0572.1072.0251.0316.1478.0492.1311-.0098zm.2298-.5863c-.0407-.0824-.2855.0306-.2858.0464.0006.1486.2118-.0544.2858-.0464zm.7026-2.9758c-.0826-.2142-.3144-.1102-.459-.0135.0222.0202.0444.0404.0664.0604-.1394-.0969-.2663-.2545-.185.0547.064-.1519.0812-.0118.0896-.0095.2764.065.1875-.1837.488-.0919 0-.0001 0-.0001 0-.0002zm-1.0343 3.8192c-.01.0867.0144.3137.1487.2241-.05-.0742-.0996-.1486-.1487-.2241zm1.6926-6.9223c.0862-.0457.102-.1047.1218-.1854-.1201.0416-.1173-.0086-.1338-.0405-.025-.0483-.0495.0426-.0561.0409-.093-.0295-.0905-.0924-.1274.0411-.0232-.0424-.0464-.0847-.0687-.1276-.035.1008-.1028.107-.1965.1525.2014-.0129.0624.0397.1339.1402.036.0492.2828.0011.3268-.0214zm-.584 2.9128c-.0301-.0256-.0723-.0519-.1072-.0781.0002-.0213.001-.0427.0013-.0643.0303.0032.0619.007.0911.0095.0139-.0258-.0296-.0231-.0319-.0321.0002 0 .0003.0001.0005.0001-.0318-.1304-.0173-.1711.093-.2454-.0911-.0181-.1822-.0363-.2733-.0544.0046.0224.0089.0449.0133.067.0469.0206.0937.0411.1406.0615-.0316.0181-.063.0359-.0945.0537.0141.0216.028.0488.0419.069-.2735.0465-.0582-.1369-.1637-.1583-.0676-.0162-.1074.2044-.0661.2442.006.0058.2048-.0045.0908.0554-.0179.0095-.4296-.0651-.1129.084.0449.0213.3086.0249.3771-.0118zm.2877-.7556c-.2872.0658.0826-.3195-.1731-.1734-.1087-.08-.1093-.0696-.2277-.0369-.0106.0029-.0356-.0422-.0405-.0399-.0699.0395-.0514.1073-.1586.0853.0029.0146.005.0302.0077.0456.1135-.0394.1614.0709.2392.1246.0352.0245.0549-.0112.0858.0098.0113.0077-.0242.0555.0107.0649.0791.0208.1939.0102.2645-.0342.0001.0001.0002.0001.0003.0001-.0023-.0153-.0058-.0305-.0083-.0459zm-.6549 2.5555c-.1491.0039-.2006.0844-.2547-.0853-.0298.0049-.0595.01-.0893.0149-.0006.0278-.0009.0544-.0015.0818.4241.1311-.0791.231.2377.164.0344-.007.0034-.0739.088-.0026.0001-.0001.0002-.0002.0002-.0003-.0193-.0887-.0697-.1102.0196-.1725zm-.0271-.6045c-.2785-.2522-.2118.2604-.1181.1892.0084-.0083-.029-.2252.1181-.1892zm.115 1.6596c.0103-.0924-.1571-.1071-.218-.1011-.061.0063-.0032.0728-.0132.0811-.0329.0255-.0506-.0333-.0956-.0002-.0146.0111-.0831.1691-.0764.1767.0377.0436.1795-.0088.1947.0039.0497.042-.0255.09.0473.1059.1553.0343-.0032-.0747-.005-.0912-.0046-.0503.0835-.0408.1032-.0773.0198-.0369-.0093-.062-.0012-.0946.0026-.0108.0634.0015.0642-.0032zm-.3371-.325c.121.1035.2733-.1204.246-.1507-.0825-.0872-.3039.099-.246.1507zm.4464-3.0629c.0728.1056.1865-.0816.1619-.1459-.0399.0038-.1867.1079-.1619.1459zm.0857.7754c-.014-.0833-.237-.0182-.246.0509.1272.0642.1073.0212.1207-.0217.0133-.0414.1362.0357.1253-.0292zm-.4486 3.6239c.0038-.0163-.0663-.3104-.1366-.1576-.0056.0117-.0132.2101.0061.2277.0382.0352.1184-.0269.1305-.0701zm.5803-3.2078c-.1093-.0619-.1004-.1047-.2438-.0881v.0001c-.0233-.1154.2566-.0692.2546-.0934-.0069-.0837-.219-.0426-.2753-.1048.0405.129-.0872.0699-.1112.1586-.0055.0207.0609.1155.109.1352.048.02.2045.0043.2667-.0076zm-.5995 3.6034c.0554-.0885-.1242-.1975-.1696-.0697-.0222.0625.1359.1241.1696.0697zm1.9107-9.31893c-.0525.00639-.1047.01177-.1569.01724-.0037-.03869-.008-.07995-.0143-.11862.0111.03091.0201.06678.0293.09792.0316-.06518.1281-.08999.1419.00325zm-2.1618.23463c-.0532-.019-.0048.1345.0084.1388.099.0314.0653-.1124-.0084-.1388zm1.104 4.253c.0423-.1024-.211-.0775-.2406-.0158.0537-.0304.2167.0734.2406.0158zm-.437-4.76546c.0208.01044.0416.02092.0632.03085-.0458-.00179-.063-.01327-.0632-.03085zm-.1779 9.18706c.0206-.0137.0532-.1299.033-.1493-.0428-.0409-.1899.0321-.1569.0937.0035.0067.1031.0692.1239.0554zm1.7921-9.08726c-.0023.00013-.0045-.0002-.0065-.00088.0021.00035.0044.00046.0065.00088zm-4.3864 1.76816c.0029.0025.0056.0051.0078.0079-.0024-.0025-.0052-.005-.0078-.0079zm2.8936 6.4209c.2336-.0294.1156-.1319-.0028-.0621-.0062.004.0038.0515.0028.0621z"/></g></svg>