<svg fill="none" height="32" viewBox="0 0 32 32" width="32" xmlns="http://www.w3.org/2000/svg"><g fill="#d64a0e"><path d="m17.0808 29.0838c-1.8334.3903-3.6864.7722-5.7398.9782-1.1346.0819-2.70673.0548-3.83157-.8028-.46873-.3093-.87489-.7554-1.14976-1.1737-.26491-.4094-.17386-.4122-.23454-.5294-.14927-.3129-.3084-.4557-.4109-.6749-.48323-1.059-.87243-2.0085-1.30009-3.0145-.04258-.1011-.07793-.1903-.1067-.2683-.27022-.7697.0631-.4318-.02928-.8-.16615-.7977-.20499-.059-.36333-.3458-.26895-.9061-.40401-1.8304-.50562-2.7143.05738.2108.11572.4236.17623.6392-.06043-.3895-.09972-.9422.06926-.3113-.00329-.1455-.00079-.2812-.00349-.4288-.10449-.0268-.21051-.6944-.27856-.7419-.06709-.051.00244.3159-.00312.3157-.03648-.0061-.08105-.3573-.13026-.7102-.06862-.551-.03268-.9869-.03529-1.057.01225-.3081.14274-.0423.12834-.3022-.02062-.4431-.26896-.1476.06226-.7486-.10694-.2376-.05098-.2589-.03881-.5599.00162-.0395-.06144-.0099-.06276-.0273-.03705-.4573.0719-.105.07823-.1067.10713-.0388.07272-.5281.08741-.63.17548-1.2557.32048-2.1749.53137-3.4692l.01521-.0523c.01225-.0256.02539-.053.03804-.0793.1249-.2664.4728-1.0863.61787-1.3306.14147-.24133.14294-.0727.24189-.18604-.05862-.29179.02368-.5038.38448-.90839-.01013-.10435.00092-.14904.02934-.19401.03771-.05913.10204-.11868.20037-.30998.13252-.27623.36384-.86552.71567-1.01495-.28013.28479-.21915.30384-.4517.69481-.03552.05911-.22737.35665-.38751.67366-.19726.3857-.36478.79077-.26875.76993.09038-.01996.27094-.49833.29339-.50879.12275-.06211.06954.22993-.07594.43524.01532-.06256.03662-.1364.05442-.20255-.3492.45196.16099.28106-.32433.51135-.05958.02887-.08731-.00826-.16478.05043.00747.02391.09467-.05152.05983.03397-.0357.08712-.18953.20962-.13927.26462.07235.0805.21172-.28427.23076-.3075-.0004-.00055-.0008-.00111-.0012-.00166.16537-.2054-.07467.27756-.07697.30526-.01834.1773.0755.0973.01124.3439-.0367.1403-.21076.4589-.25915.5837-.0482.1241.08377-.042.05458.0432-.02895.0847-.10913.1695-.14245.2694-.01404.0426.03517.0633.02785.0835-.07315.2054-.11131.054-.18263.1986l.02596-.0892c-.00168.0094-.00317.0198-.00446.0314-.01594.1349.0299.5991.09997.2925-.00876.1504-.01841.2964-.02675.4466.02626-.0922.04833-.1878.07802-.2763-.0591.2753.01859.4127.00747.5882-.01084.1757-.13447.3237-.09753.5224.07823.4225.11299-.6046.15124-.7276.01319-.0484.07824.1498.07793.1787-.0025.1295-.07798.277-.0841.3771-.02122.3589.04336.5845.03786.9271-.01791 1.1624-.00569 2.634.06989 3.6911.01639.2237.00517.4095-.00608.483.00349.1138.00456.2076.0186.2867.07812.4504.16162.4917.22222.8692.08705.5612.15 1.3298.24178 1.7689.06062.3059.21151.5512.23574.6256.11622.3596.2563.7345.42198 1.0918.35685.7725.6995 1.5505.96487 2.1364.19134.4223.20282.6482.24617.7345.18184.3565.20137.2279.33642.5132.07411.1532.02569.2107.03418.2329.07214.1826.17282.1717.24823.2929.25657.4067.46975.684.77918.9094.30316.2199.50235.3336.80414.4164.04916.0131.03674.0521.07009.0576.14889.021.09165-.0552.24893-.0341.33117.0397.70907.0623 1.11347.0575.0399-.0006.0611.0516.1527.0475.082-.0039.1411-.0446.254-.0603.0132-.0021.0281-.0037.0453-.0047.3682-.023.7707-.0171 1.1924-.0743.0678-.0093.1498-.0855.2534-.1004.3301-.0474.8215-.0695 1.1091-.1172.9303-.1538 1.7823-.3559 2.6542-.5422.2031-.0433.3978-.0259.5046-.0482.2396-.0503.0471-.064.2894-.119 1.9669-.4578 3.982-.9458 5.7435-1.7609.1975-.0944.3982-.2038.5806-.3195.4744-.2958.8367-.6568 1.0314-.9702.1134-.1847.1956-.195.2514-.3526.086-.2947-.0034-.366.0205-.7306.0154-.2965.1126-.6834.1153-1.0628.0056-.3804-.0874-.5702-.0393-1.05.0392-.3968.2165-.9536.3822-1.3701.1046-.2724.2264-.5263.3703-.7768 1.0032-1.7489 1.5447-3.6273 1.3983-5.5698-.0618-.9955-.1671-1.9897-.3492-2.957-.2122-1.12183-.6151-2.32666-1.1805-3.171-.0525-.07511.104-.03251-.0864-.2258-.0056-.00547-.0118-.0113-.0185-.01753-.1268-.11678-.3603-.23652-.6953-.5034-1.269-1.00135-2.8349-1.81448-4.4726-1.92701-.8226-.0618-1.7793.29089-2.6753.72668-1.3374.64029-2.6191 1.5739-4.2869 2.09894-2.6183.85182-5.39892 1.20433-7.45077 1.50987-.13332.03389-.22221-.18789-.16483-.3023.10339-.00891.20691-.00065.31641.00571-.00695-.31154.00188-.24935.46806-.38866.28818-.07966.02399-.12184.16533-.20464.18279-.11457 1.10761-.50309.97088-.26891.05014-.04689.09708-.09136.14778-.13732.6887-.19962 1.35518-.39428 2.02312-.59953.11654-.03577.1077-.09522.22692-.1316.3201-.09817.5875-.11775.9203-.19996.1826-.04516.1896-.11776.4299-.16903.2368-.0508.255.04129.554-.13467-.2372-.06319.7202-.20668 1.0497-.30088.001-.00028.0021-.00063.0033-.00106.0565-.01725.3843-.21734.5758-.2757.1971-.05662.5191-.1106.8039-.27931.1337-.07915.1838-.19243.3325-.26758.1042-.0527.2635-.04841.3996-.11195.136-.06308.4008-.26344.454-.29166.1918-.10161.0014.05242.135-.01246.6456-.31441 1.4103-.68037 2.0838-.99508.0831-.03875-.0572-.04635-.0468-.05275.5537-.30212.2739-.10352.4497-.11342.1585-.03078 1.337-.36391 1.3514-.44107.0561.12281.3268-.00764.4055-.01342.2512-.02365.2488.05997.4164.06775.0278.00173.0605.00143.1006-.00146.0989-.00685-.088-.09515.0178-.08661.2623.02255.4834.16881.8165.23796.0809.0174.1164-.03286.2615-.00147.1461.02566.7238.25208.479.06562.3356.19076.4213.16267.8275.31522.1022.04.1999.17277.4222.24033.0753.02327.1075-.05639.2164-.00687.2468.11342.4342.3075.7266.47881.5473.32185 1.1402.65908 1.634 1.11339.1333.12483.0434.15723.2347.33819.0209.01997.156.10027.2813.20525.0594.04969.115.10357.1536.1526.0814.08756.3807.60036.4289.70414.0937.16951.1808.15852.2179.26049.099.29246-.1196.12723.1889.38245-.0331.14729.0578.33672-.0237.4412.1618.06544.1077.25565.2235.46071.1158.2052.4038.3209.1701.4503.0639.0944.2371.52855.2579.60439.0652.22143-.0338.1184.0148.28491.0081.0294.0501-.01285.087.17984.0305.12586.1915 1.05056.1878 1.10756.0156.6415-.0975-.3365-.1795-.4619.0096-.0263.0193-.0525.0283-.0805-.0284-.2815-.1084-.1028-.1112.0266-.0026.1291.0852.3544.065.4647-.0103.0547-.1469.0426-.156-.1152-.014.1725-.0934-.0471-.121.0247-.0266.0788.0636.8233.1345.8196-.0145-.1405-.04-.3137-.0573-.4548.0991-.2063.619.3038.4982.8511-.0895.3915-.2444-.2233-.0614.6628-.0056-.1385-.0038-.257-.0099-.3816.0945-.0225.0078.1914.0464.2926.0192.0493.0611-.2666.1061.0008-.0709.1473-.0453.2658-.008.4209.0248.1045.0546.2304.0605.3896-.0281-.1108-.0577-.2193-.089-.3288-.0342.3624-.0822.0811-.1201-.0511-.0186-.0643-.0336-.0942-.0405.0027-.0055.072-.0051.2174-.0094.4704-.0083-.1548-.0143-.308-.0311-.4623-.0456.0771-.2008-.0311-.2278.0364-.0705.1776-.0106.4289-.0175.64-.0028.0922-.0429.0349-.0431.0428-.0049.1243.0538.0988.0555.2085.0041.1402-.0775.5367-.0789.6013.0013.1686.1416-.0997.1482-.0843.0482.1133-.0216.3301.0521.3265.0347-.5347.0694-2.095.1869-.679.1264-.3885.2987-.2795.2782.3052-.0282.48-.0675.1674-.1637.4056-.0075.033-.1354.6537-.0967.6949-.1102-.0455-.2504.1331-.3431-.0227-.013-.0219.0374-.2692-.0733-.1991-.0553.0351-.1821.1373-.2395.1059.0332.0568.0706.1182.1043.1782-.0649.3646-.1273.4047-.2566.5776.0344.0012.2209-.1431.1035.1195-.0065.0128-.0586.0135-.1236.1422-.1345.2636-.1689.3099-.2429.0579-.1056.5872-.308.6486-.509 1.2187.2222-.0304.2791-.2477.4385-.7819.0511-.0074.0974-.0029.1493-.0113-.3626.6661-.2192.3189-.301.7492-.0182.1057-.2845.5983-.0875.4874.0484-.0267.1936-.345.2198-.2896.0062.0126-.1574.4087-.187.4359-.3573.3485-.0403-.4347-.6227.7153-.0065.0122-.0044.0255-.001.041.0049.0256.0132.0566-.005.0979-.0544.1263-.1102.0943-.1536.2118-.0428.1182-.0329.303-.1718.4426-.259.2735-.0529-.5337.2195-.803-.0405-.113-.4261.3925-.6367 1.038-.2218.6424-.2459 1.344-.2434 1.4183.0389.691.0507-.4558.1288-.5141.0268-.023.3005.0293.1665-.2845-.0395-.0963-.17.2531-.1645.0322.0088-.2235.0767-.1217.0849-.1362.0287-.0503.0508-.2845.0715-.3118.3046-.3948.5367-.2825.0035.2012.0331.2726.3039-.2735.2929.0507-.0078.3837-.1554.6428-.1671.692-.1102.5712.1156-.08.0246.6165-.0434.389-.1115-.5887-.1198.3041-.0018.7422.0699.3426.2189.4002.0347.013.0673.426.0653-.134-.0387-.0165-.0895-.047-.1249-.0826.0305-.1358.2291-.359.238-.4288.0428-.3445-.057-.3336.0755-.5259-.1405.1339-.0458-.0944-.0633-.1832-.0575-.3322-.1715.0724.0901-.6178-.08.0773-.1558.153-.2313.2356.0125-.0884.0279-.1791.0451-.2663.1572-.1069.2703-.5434.287-.1107.1665-.4618.2387-.6445.1871-.7889-.0094-.0269.0174-.1013.057-.1801-.0337.0008-.1245-.0219-.1278-.0396-.0202-.1129.1026-.196.1818-.1976.0325-.0012.0577.0104.0633.0376.0366-.0555.0659-.0986.0765-.1137.0672-.0956.0028.1315.0678.0598.0221-.0231.1734-.3165.1964-.3108.1497.0351-.1961.4738.3895-.4627-.1108-.0843-.3164.3801-.3871.1955-.0762-.1931.2393-.35.0911-.4918.0387-.0067.0671-.0043.1084-.0064.1078-.4297.2528-.3716.3392-.4813.1771-.2111.5596-1.3552.0672-.386.0425-.151.09-.3037.1275-.4562.2824.0553.1623.1184.4073-.608.0508-.16.1882-.1864.0761-.3823.1431.055.1514-.46.1729-.5022.1723-.2861.1267.8742-.1812.944.0497.2103-.0803.1738-.1229.3795-.0657.2976-.0539.3491-.2715.6516.0211.391.5029-1.305.3464-.2297-.0574.3845-.3813 1.4063-.9893 2.5066-.4522.7984-.5161 1.7649-.485 2.8641.0759 1.0831-.3244 2.3956-.717 2.8324-.4642.6366-.9892 1.0073-1.4639 1.3047-1.541.8884-2.6899 1.2331-4.3888 1.7225-.2193.069-1.8742.4992-1.5681.2534.0444-.034.7392-.2715.0997-.2435.1419.0427-.2045.1782-.2328.1929-.6495.3385-.2389.2927-1.3317.5368zm-3.4957-.8042c1.418-.2071.3612-.1346.6123-.4274-.1855.0323-.3547.061-.5409.0918.0501.0072.1003.0142.1511.0211.0002 0 .0004-.0001.0006-.0001-.0749.1052-.15.2102-.2231.3146zm-8.7859-16.4973c.02438.0582.0491.1159.07259.1789-.03418.1801-.06612.3622-.09639.5452-.01937-.0243-.03907-.0478-.05838-.0723.02564-.2189.05364-.4339.08218-.6518zm21.5219 7.1184c.2082-.1845.0576-.2399.2848-.5138-.1245-.017-.2486-.0296-.3727-.0458-.1072.2357-.0968.3095-.2652.5394.0497-.0092.0999-.0191.1493-.0279.0168-.0451.0338-.0932.0499-.1361.1301-.0116-.0867.3933.1536.1851.0001-.0003.0002-.0006.0003-.0009zm1.0312-2.4617c.0591-.1275.25-.65.2141-.7362-.096-.2765-.372 1.2332-.2365.1038-.0239-.0003-.045-.0104-.0675-.0156-.0539.1971-.1125.3894-.1782.5842.0912.0161.1759.0493.2681.0638zm-8.7112 10.7804c.218-.0383 1.2104-.3881.8524-.4001-.1046-.0027-.5174.2629-.6918.3001-.1127.0244-.0078-.0873-.2208-.0021.0186.0328.0345.0704.0607.1017-.0001.0002-.0003.0003-.0005.0004zm-.2876.566c.2198-.0687.442-.1436.6617-.2165-.1863-.0486-.4941.0905-.5446-.0335.0588-.0249.117-.0496.1757-.0747.054.0162.1072.0327.1604.049.1743-.1189.0483-.1226.4107-.1961-.2674-.137-.3297-.2288-.8924.1186.0892-.1338-.1024-.4497-.3811-.1233-.0525.0608.2194.0279.2241.0343.0627.0803-.0705.1735-.0062.2481.029.0339.191-.0061.2283.0414.0177.0233-.1187.1355-.0366.1527zm-.5539-.3514c.0556-.0708-.2088-.1454-.4067-.0726-.3093.1134.2217.1232.4067.0726zm-13.00036-15.653c-.00001.0004-.00003.0009-.00004.0013-.0001-.0003-.00019-.0005-.00028-.0007.00011-.0002.00022-.0004.00032-.0006zm22.26086 5.3158c.0137-.1685.0977-.3942.0198-.4019.0395-.0705.0773-.1397.1153-.2117-.0221-.006-.0444-.0114-.0662-.0174-.0833.2203-.1745.4373-.2736.6519.0678-.0057.1351-.0095.2047-.0209zm.6358-2.5144c.0302-.2989-.0915-.0556-.1365-.1245-.0441-.0678.0082-.3281-.0651-.2998-.009.1724-.0237.3518-.0432.5245.0821-.0385.164-.0634.2448-.1008zm-19.40795 13.3439c.03054.0284.04913.0512.06374.0713.05375.0672.06469.1188.33702.1931-.00023-.0001-.00046-.0002-.00069-.0004-.08803-.0729-.18359-.1578-.29645-.2524-.19075-.1642-.36148-.3375-.54825-.5007.0824.2277.24577.3004.44463.4891zm17.45335-8.4325c.0144.1147.257-.2813.2597-.393-.0002-.1948-.2904.2116-.2597.393zm-21.41165 1.2064c-.24677-.2856-.35909.3683-.10297.9886.02079.053-.0205-.3731.04584-.2598.00613.0117.05716.2374.0981.2856.04054.0484.08531-.0253.13466.0579.08471.1448.11101.5223.20825.619.01206.0124.02127-.2292.02078-.2435-.02077-.2357-.18265-.4222-.19277-.4578-.05041-.1785.04001-.1727.04808-.2226.01542-.0939-.05614-.2358-.05571-.2472.01096-.2887.13205.3375.18734.4112.14152.1997.15303-.0205.35588.4843.01941.0488.20627.6286.05839-.1316.66279 1.352-.1347-.7361-.18564-.993-.04416-.1078-.08685.0794-.1374.0191-.11645-.1385-.18322-.4066-.29435-.3605-.23412.1-.00352.4284.0145.6819-.05852-.0135-.11206-.0114-.17452-.0478.0835.0579-.0127-.5629-.02798-.5838-.00016 0-.00032 0-.00048 0zm1.56987 3.6457c.07541.3529.20831.2665.25951.6002.24434.2012.00621-.3071-.01329-.3707-.08976-.2881.05222-.3455-.11575-.6064-.03872.1353-.08916.2467-.13047.3769zm-1.03533-2.8415c.13407.2025.03051-.1949.0428-.215.10715-.2102.39167.9746-.0428.215zm15.18271 5.6645c.1174-.028.023-.0799.1185-.1308.0953-.0506.4593-.0917.4374-.1349-.0244-.0414-.6892.0283-.0638-.1863-.0292-.0189-.0277-.0401-.045-.0599-.1758.0525-.3478.1018-.5242.1515.1173.0461.2381.0948.3509.1386-.0807.0873-.1582.0284-.1633.0299v.0002c-.1824.0593-.3724.2535-.1105.1917zm-9.268 1.5198c-.0299.1916.2397-.03.349-.0611.0361-.0098.0777-.0101.1157-.0088.0645.0034.1275.0117.0831-.0398-.0277-.0063-.0576-.0086-.0863-.0082-.1932.0052-.459.1003-.4615.1182 0-.0001 0-.0002 0-.0003zm-4.08562-2.5971c.16866.2431.19165.1817.30318.5229.03443-.0335.06979-.0673.10369-.1003-.12558-.2484-.23767-.1741-.33149-.4934-.01509-.0527.13101.0078-.0041-.1989-.02066.09-.04826.1794-.07128.2697zm.82582 1.1596c-.17288-.253-.63474-.2938-.16616.1313.07205.0607.30237.0555.16616-.1313zm9.4866.6866c.5675-.1151-.0877-.0304-.2469-.0551 1.3042-.3352-.1454.0502-.3159-.1108-.15.0872-.4248.2705-.0842.2334.1427-.0159.08-.0606.0885-.0621.2617-.0413.2472.0567.5585-.0054zm-11.36576-4.1508c.01161.0191.0561-.0387.09652.0202.04064.0597.06228.2184.10553.2186.04162-.0041-.05799-.3024-.12472-.3807-.06568-.0753-.18095-.0291-.07733.1419zm.76871 2.0937c.16338.2411.17798-.2872.15279-.341-.23973-.4957-.07988.3231-.15279.341zm9.35985 2.7265c.6624-.2564.119-.358-.3347-.3967-.0518.036-.1049.0722-.1555.1076.2268-.2017.6487-.4376-.3283-.113.5587-.0693.1045.0595.1021.0688-.0062.291.784.0027.7158.3334.0002 0 .0004 0 .0006-.0001zm-10.44808-5.7027c-.12171-.2641-.40467-.9823-.41017-.6015.13007.2083.26656.4089.41017.6015zm20.60658.9017c.1291-.2443.1603-.4949.1747-.8125-.1224.2798-.1202.0885-.1397-.0066-.0291-.1456-.0478.202-.0569.2024-.0993-.016-.0842-.2327-.142.2605-.0157-.1263-.0376-.2492-.0623-.3724-.0359.3707-.119.4493-.2438.6485.2315-.1713.0669.0851.0603.3671-.0046.1505.3487-.1523.4099-.288-.0001.0003-.0002.0006-.0002.001zm-9.4406 4.6932c.0638-.0484.1191-.1076.1797-.1606.0734-.0194.1468-.0386.2204-.0583.0156.0276.03.0569.0469.0831.1-.0128.0528-.0457.0811-.0559.0001.0001.0001.0003.0001.0004.406-.1465.5776-.1795.9252-.1644-.0213-.0905-.0425-.1809-.0637-.2713-.0711.0257-.1429.0513-.214.0766-.0275.0576-.0556.1153-.0835.1729-.0913-.0074-.1814-.015-.2722-.0229-.0641.0328-.1409.0692-.1966.0994-.395-.1787.4125-.1767.3955-.2846-.0108-.0674-.7837.1073-.8842.1763-.015.0103.1944.1635-.1122.1256-.048-.0062-.1495-.4117-.3851-.0172-.0337.0559.17.2795.3626.3009zm2.8532-.5311c-.502-.1412 1.1717-.3023.4233-.3259.1639-.1728.1273-.1608-.0989-.2118-.0199-.0047.1074-.0747.0946-.0757-.2005-.0068-.4129.0828-.4427-.0225-.0482.0188-.0936.0362-.142.0549.2341.0449-.0792.1994-.1854.3162-.0486.0532.0886.0304.0481.0765-.015.0169-.2091.0405-.208.0774.0039.0831.1495.1605.3653.1667v.0003c.0492-.0183.0967-.0374.1457-.0561zm-9.50765 1.2955c-.06582-.1569-.35605-.2213.22585-.2463-.0262-.0307-.0541-.0615-.08034-.0927-.09485-.0043-.18897-.0107-.28565-.0205-.36366.4039-.80639-.234-.53361.1596.03065.0434.27686.0577.02174.0951.00031.0001.00062.0003.00092.0004.33799.0444.38193-.0072.65109.1044zm2.17895-.1785c.5938-.3414-.5491-.1326-.7396-.0561-.0395.0166-.0449.0316.0028.0416.0005.0001.0009.0002.0013.0003.0204.0131.7815-.1405.7355.0142zm-5.48137-1.8917c.16692.3071.32773.2357.35983.1751.0322-.0616-.13744-.2313-.14336-.2631-.0206-.1015.09936.0704.07483-.0618-.01162-.0417-.22535-.5865-.24028-.6064-.1014-.1155-.13016.1404-.16306.1093-.10891-.1027-.12494-.3039-.20827-.3079-.17927-.0107.12018.2342.1504.2879.08485.155.00091.1846.04582.3116.04714.1302.11583.1948.1681.3027.01798.0368-.05213.0368-.04401.0526zm.93137.7382c-.34158-.187.16448.5704.29987.596.29539.1142-.17057-.5025-.29987-.596zm10.6924-.082c-.2887.1639.4515.0634.649-.0262-.048-.0268-.55-.0296-.649.0262zm-2.5769.7949c.2846-.0855-.1412-.2125-.3774-.1643-.1174.1612.0146.1088.1696.0845.1573-.0248-.013.1457.2078.0798zm-10.44879-4.8152c.02373.0575.5411.9403.34592.3879-.01458-.0417-.32454-.6856-.36519-.7241-.08299-.081-.04206.1844.01927.3362zm9.09779 5.271c.1342-.1433.2864-.169.1205-.2802-.0002 0-.0004.0001-.0006.0001.3758-.1102.4482.1638.5304.1426.2856-.0748-.026-.2219.1438-.3211-.4087.1396-.3197-.0154-.6393.0334-.0735.0115-.3514.1425-.3833.1992-.0332.0571.1386.1816.2285.226zm-9.68291-6.6095c.07206.3506.36807.5761.22726.116-.06414-.2241-.26844-.3287-.22726-.116zm23.58911-6.3501c-.0617.0408-.1235.0808-.1862.1238.021-.127.0395-.2553.0552-.3827-.0065.1021-.0151.2055-.0252.3078.0756-.2295.1888-.3199.1563-.0496 0 .0002-.0001.0005-.0001.0007zm-.8533-8.50875c-.0016-.12315-.233-.25341-.2311-.22279.0145.22111.2317.38931.2311.22279zm-8.5582 20.54665c.3928-.0771.0663-.2451-.1737-.2031.156.0094-.0488.2461.1737.2031zm9.3964-17.6121c-.0143.0392-.0287.0784-.0425.1218.0072-.13.0222-.1551.0425-.1218zm-23.11915 13.4973c.00824.064.17617.4779.22076.5213.09556.0952.07609-.2781-.04454-.4468-.01301-.0183-.18401-.1376-.17584-.0736-.00012-.0003-.00025-.0006-.00038-.0009zm23.34275-8.445c-.0024.0002-.0045-.0006-.0063-.0022.0021.0008.0043.0011.0063.0022zm-8.7962-12.58212c.0032.00334.0052.00684.0054.01044-.0015-.00334-.0042-.00671-.0054-.01044zm-13.40118 24.00542c-.13524.2455.15555.5135.11457.2027-.00257-.0166-.09812-.1693-.11457-.2027z"/><path d="m12.6539 20.6237c-.016.0127-.0313.0251-.0438.0356.118-.1215-.0293.0532-.0812.1832-.0699.1441-.1403.3145-.2073.491-.134.3541-.2583.7384-.3724 1.1188.0465-.1607.0082-.3183-.0928-.4295-.2085-.2221-.388-.2149-.3937-.2181-.0199.0006.0327.0025.0963-.005.1333-.014.3249-.0501.5283-.0842.1816-.0301.1849.0385.2388.0378.0075 0 .0148-.0003.0219-.0008.1147-.0056.1719-.0888.2565-.0994.4316-.0547.8363-.1448 1.2743-.2385.2072-.0447.2871-.0152.3296.0312.0518.0539.0476.1312.1449.1328.3503.0093.0041-.1802.1174-.2733.379-.0814.7554-.137 1.1303-.1875-.0845.0442-.1691.0883-.2546.1315.1616-.0304.3991-.0386.1467.0891.0633.0062.1233.0166.188.0223-.0044-.1008.2774-.1682.2916-.2309.0141-.063-.1432-.0166-.1431-.0218-.0048-.0752.6732-.1088.7229-.108.1309-.0022.0417.1393.148.1118.0057-.0015.011-.0031.016-.0049l.0291-.0045c.1583-.0464.0238-.2567.3053.0346.0877-.1186.1033-.064.2311-.0699.017-.0008-.0026-.0617.0047-.0641.1892-.0658.0513.065.0535.0711.0281.1045.2301.0374.2745.0441.5349.0762.924.147 1.4526.1572.025.0006.0491.0011.073.0016.1229.0017.4976-.0503.6174-.0328.1179.0168.0556.0945.1172.1311.097-.186.193-.2073.4136-.0834.0837-.1344.0724-.0257.2306-.0502.1318-.0204.3667-.1766.5077-.033-.1662-.0182-.1508.0487-.3387.0841-.0624.0097-.7109.0071-.662.1469.025.0718.2383.0065.2467.0201.0474.0778-.0723.1718-.1769.1384.026-.0156.0579-.0314.086-.0469-.2366-.0973-.073.2746-.2537-.0499-.0226-.0397-.0137-.0813-.0512-.1235-.0075.0176.0381.0607-.0008.0688-.0392.008-.1154-.0736-.1259-.004-.0153.1012.1473.0598.1598.0658.0001-.0006.0003-.0012.0004-.0019.1088.0531-.1179.0605-.1283.0704-.0695.0638-.0212.1116-.1249.1651-.0592.0304-.211.0161-.2669.0271-.0554.0112.0323.0568-.0048.068-.0368.0112-.0848-.0238-.1281-.0106-.0188.0058-.0162.0591-.0252.0612-.0967.0235-.0364-.0893-.1248-.0797-.0056.0007-.0124.0023-.02.0047-.0685.023-.2117.1161-.0894.1387-.0641.0135-.1266.024-.1901.0351.041.0141.0832.0231.1234.0401-.1217-.0203-.172.0732-.2465.0833-.0744.0101-.1464-.0962-.2254-.0388-.1681.1221.2597.0485.3161.0669.0214.0071-.0558.0963-.0681.0993-.0547.0131-.1225-.0452-.1646-.0404-.1505.0176-.2374.1033-.3774.1284-.3841.0684-.8357.1513-1.2375.225l.0484-.0074c-.094.0224-.1857.0442-.2726.0644-.1666.0388-.2867-.0296-.362-.0117-.1765.0424-.182.1247-.3354.1616-.2282.0553-.5657.0607-.7579.0918-.1333.0214-.2314.1253-.2638.1356-.1014.0322-.2084.0654-.3106.0982-.4059.1289-.8506.2454-1.1858.3228-.2034.0472-.3191-.0177-.3604-.0064-.1795.0473-.1169.1099-.2665.1306-.0809.0109-.1082-.0563-.1193-.0571-.0461-.003-.071.0162-.0921.0391-.019.0248-.0336.0544-.0659.062-.1765.0409-.3701.0731-.6013.0985-.2465.0089-.4566.0991-1.0342-.0649-.0872-.0328-.0642-.0689-.1228-.0939-.2433-.1305-.1959-.0201-.41-.2154-.0081-.0082-.0166-.0173-.0256-.0276-.3079-.3481-.43502-.8758-.2798-1.3626.0007-.0025.0017-.0049.0027-.0072.0103-.0146.0582-.01.0705-.0506.0127-.0414-.0251-.0884-.0018-.1539.0607-.1703.1727-.3216.2385-.5025.0107-.0297-.0361-.0883-.0195-.1334.0519-.142.1847-.3334.2359-.4557.084-.2022.161-.4015.2568-.6103.1111-.2153.1614-.4062.501-.7372.0115-.0102.0234-.0201.0359-.0297.0866-.0626.1817-.0694.2218-.0981.0952-.0672-.0086-.0595.0852-.1285.6062-.4362 1.211-.7988 1.8511-1.1626.1796-.1009.3423-.1817.5016-.2621.3166-.1587.6584-.3866.9241-.5157.1099-.0533.1662.0023.2372-.0395.0279-.0167.0474-.0347.0616-.0529.0768-.0805.0935-.1624.2197-.247.13-.0867.3273-.0874.4541-.1685.1269-.0813.1376-.198.2736-.2933.1121-.0784.2929-.1403.4073-.225.2264-.1668.4348-.3373.6228-.515.4097-.3735.755-.6812.9592-.961.2066-.2676.2354-.3185.2832-.4325.0395-.1019.0614-.2245.0532-.3941-.0034-.045-.0071-.0909-.0109-.1364-.0396-.4702-.1583-.9859-.2012-1.473-.0042-.0459.1043-.0052.044-.1394-.025-.0546-.0934-.1141-.1517-.2103-.0173-.0275-.0322-.0508-.0301-.043-.0018.005.0572.1116.1395.171.08.0595.1151.0617.1077.06-.0156-.0076-.126-.0289-.2347-.0423-.7181-.0838-1.5454-.1672-2.2852-.1322-.1452.0079-.2889.0173-.4307.0293-.7346.063-1.5572.2305-1.9023.4621-.5818.3801-1.4026 1.0479-2.2001 1.2175-.0541.0009-.2587-.108-.2918-.1816.0586-.0063.1237-.0028.1886-.0018-.2017-.2104-.147-.1663.0029-.2999.0951-.0821-.0635-.0902-.0434-.1644.0228-.0977.2285-.4956.3017-.2996-.0042-.0416-.0083-.0813-.0116-.1225.2037-.2282.4006-.4549.6105-.6806.0364-.0391.0025-.0886.0414-.1287.1043-.1077.2235-.1419.3498-.2293.0696-.0474.0429-.1129.1424-.1658.1022-.0526.14.0315.2355-.1301-.0706-.0283-.001-.0758.116-.1208.1273-.0498.2957-.0809.3769-.106.0218-.0082.1919-.1579.2964-.1635.1048-.0077.265.0356.4106-.0198.0682-.0261.1026-.1123.1783-.1245.0533-.0084.1236.0585.1899.0561.0671-.0027.2044-.0727.2309-.0754.0932-.0103-.0064.0478.0577.0461.3104-.009.6624.0007.9565-.0516.0361-.0064-.0178-.0637-.0131-.066.0621-.0228.0998-.0341.1231-.0374.071-.0097.0104.0478.0654.0849.0724.0459.5631.0022.565-.1014.0175.1312.1249.0291.1534.0251.1104-.0159.0894.0981.1958.0626.0391-.0129-.0372-.0898.0049-.0875.1045.0055.1973.1295.3347.1437.0333.0036.0448-.0514.1042-.0485.0594.0027.3061.0768.1946-.0424.1486.0974.18.0471.3567.0573.0448.0028.0978.094.1945.072.0333-.0074.0369-.093.0863-.0906.0763.0037.1474.0492.2303.0838.0412.0165.0835.0305.1333.0374.147.025.2955.0162.5423.114.1214.0478.2803.1703.3616.3005.0833.1284.1103.2226.1304.2943.0006.0024.0011.0048.0016.007.0123.0691-.0689.0807-.0375.1832.005.0152.1159.1207.1305.1964.0097.0457.022.2882.029.3351.013.0777.097.0713.0916.1172-.0163.1327-.1586.0627.0385.1707-.0794.0688-.0517.1516-.1577.2027.1331.023.0289.1119.0889.1991.06.087.3132.1236.0606.1936.0397.0389.1257.2231.1344.2553.0261.0944-.0532.0543-.0326.1251.0035.0126.0505-.0081.0575.0751.0016.0201.0098.0866.0183.1641.019.1513.0171.3456.0115.3628-.0894.3154-.0405-.175-.1102-.2322.0131-.0126.0261-.0257.0387-.0392.0086-.1366-.0931-.0452-.1133.0138-.0197.0604.0349.1668-.0022.2177-.0187.0242-.1514.0082-.137-.0604-.0394.074-.0853-.0239-.1233.0058-.035.0337-.0695.3324-.0035.3465.0121-.0576.0172-.1312.0231-.1909.1306-.0906.5668.2333.3171.4762-.1811.1458-.1641-.1755-.2256.2636.0326-.058.0652-.1068.0908-.1628.0929.0265-.041.0849-.0341.1429.0034.0306.1286-.0903.0947.047-.1734.0494-.0886.1911-.1954.3558.0095-.058.0172-.1158.0229-.1742-.2456.2125.092-.405-.2611.0592.0351-.0584.0731-.1157.1016-.1795-.06.0034-.1632-.1143-.2041-.1057-.105.019-.118.1284-.1763.1947-.0251.0287-.0431-.0141-.0452-.0117-.0344.0385.0191.0648-.0064.1042-.013.0201-.0449.0478-.0802.0786-.0484.0407-.1036.0786-.1107.0932-.0313.0638.1315.0483.1343.058.0152.0712-.0818.1128-.0233.1569.0304-.0556.0858-.1302.1419-.2025.1498-.1858.3404-.3464.1473.0575.1713-.0513.2624.0588.2029.2026-.0111.0237-.0258.0487-.0439.0742-.1316.1799-.0922.0278-.2189.0664-.0156.0075-.23.1865-.2047.2304-.0759-.0895-.2099-.102-.2546-.228-.0064-.0182.0725-.0892-.023-.1303-.0478-.0206-.1591-.0589-.1973-.1086.0162.0449.035.0947.0512.1419-.1019.1168-.1513.0976-.2672.0947.0251.0225.1788.0737.0612.1224-.0062.0022-.0441-.0317-.1059-.0104-.1252.0434-.154.0472-.1822-.1257-.1274.2189-.2699.144-.4352.3244-.007.008-.0141.0165-.0212.0255.0309.0218.0574.0358.0808.043.1031.027.1561-.0663.284-.2148.0375.0278.0705.0588.1086.0866-.3107.1302-.1837.0348-.2636.2254-.0031.0073-.0105.0169-.0201.0279-.0493.0581-.1699.156-.0503.1986.0338.0121.1436-.0856.1619-.0388.004.0094-.1195.1431-.1402.1431-.2509.0023-.0365-.2908-.4309.0729-.011.0099.0172.0582-.0021.0814-.0364.0434-.0739-.0091-.1054.0308-.0313.0398-.0397.1503-.1455.124-.1909-.0494.0231-.2894.1782-.3071-.0593-.1777-.8807.3449-.9369.3867-.1997.1999.1717-.066.2176-.033.0195.0143.1631.2596.1652.0424.0001-.064-.1573-.0521-.1015-.1215.0557-.0694.0711.0191.0794.0209.0283.0061.0875-.0674.1034-.0635.2468.0557.3796.2948-.0362.0819-.0406.1321.2394.1281.1615.2493-.0964.1481-.2638.0967-.2836.1018-.2412.0627.093.0851-.1906.1816-.1582.0535.1475-.2318-.1683-.0331-.2652.1669-.0857.1384-.0299.2789.0129.033-.1125.1562.0803.0255-.0139-.037-.0291-.0876-.0345-.126.0639-.0043.2443.1162.2742.1066.1452-.0474.0877-.1311.2244-.0735-.1209-.0799.0079-.0648.0268-.1083.0707-.1614-.1102-.0944.2328-.1523-.0682-.0296-.1317-.0609-.1979-.0918.0316-.0217.0629-.0436.0944-.0657.1193.0847.2852-.0418.1996.1734.2119-.0887.2727-.1671.2545-.2811-.0035-.0218.0197-.0474.0513-.0717-.023-.0198-.0827-.0892-.084-.1019-.0113-.1115.1563-.0231.1704.0464.0243-.0136.0443-.0236.0516-.027.046-.021.0016.0836.046.0761.0149-.0023.1205-.0966.1368-.0795.1058.1092-.1474.1715.2815-.0547-.0791-.1136-.2305.0453-.2775-.1056-.0519-.1601.1743-.0702.0703-.2369.0278.0185.0482.0362.078.0586.0217-.0457.044-.0726.0669-.0876.0676-.0438.1403.0232.1893.0166.1262-.0152.5006-.3519.068-.1645.0406-.0531.0872-.1017.1284-.1539.2019.2078.096.152.3653-.0331.0589-.0413.1649.0341.111-.1245.0967.1145.1887-.1043.2149-.1074.1816-.0167-.0593.4602-.284.3028.0098.1299-.0811.0297-.135.1018-.0784.1037-.0751.1356-.2526.1563-.021.2053.4788-.3346.2664.0987-.0402.0827-.1472.2156-.2737.3644-.4953.5964-1.6325 1.2924-2.1351 1.6473-.204.1413-.3586.2314-.4563.2899-.5659.3322-.9752.5365-1.2844.7267-.2624.161-.5308.3271-.8546.5293-.0784.0457-.6281.4302-.6033.2185.0024-.0303.2106-.2449-.0688-.2105.0845.0337-.0097.1569-.0151.1704-.1216.3054.0148.2564-.2972.494zm-1.7152.2406c.2697-.5753-.0044-.1833-.1812-.401-.0335.0784-.0652.1556-.0961.2333.0222-.0148.0445-.0295.0668-.0442.0001 0 .0001-.0001.0001-.0002.0695.0716.1397.1424.2104.2121zm8.1647 1.2392c-.0019.0028-.0038.0056-.0056.0084-.0145.0303-.0349.0608-.0571.0907-.0808-.0066-.1608-.0131-.2407-.0197.0086-.0223.0168-.0449.0253-.0672.0922-.003.1847-.0059.2782-.0121-.0041.0001-.0021 0-.0001-.0001zm-1.8138-5.7943c.1407.0076.0369-.1141.1937-.1439-.087-.082-.1732-.1615-.2587-.2434-.0709.0766-.0633.1272-.1726.1705.0329.0232.0663.0462.0994.0694.0108-.0179.0218-.0374.0324-.0542.088.0676-.0548.1912.1056.202.0001-.0001.0001-.0003.0002-.0004zm.8356-.7567c.0547-.0267.2632-.1414.2503-.1988-.0385-.1892-.4308.3185-.1895-.1068-.0176-.0154-.0318-.0334-.0477-.0501-.0654.051-.1321.1024-.2009.1548.0645.0656.1224.1355.1878.2009zm-5.681 3.4298c.0861-.0438.4263-.3566.2447-.3645-.0542-.002-.1433.2356-.2112.2732-.044.0242-.043-.0757-.1089.0049.0239.0277.0486.0597.0755.086 0 .0001-.0001.0003-.0001.0004zm.1219.4971c.0716-.0667.1428-.1369.2155-.2037-.1113-.0393-.195.0898-.2756-.0153.0164-.0232.0332-.0465.05-.0699.0331.0126.0661.0254.0991.0382.0302-.1063-.0319-.1084.111-.1773-.1888-.115-.2656-.1945-.3776.1256-.0181-.1187-.258-.3837-.2412-.0882.0033.0547.1191.0128.1244.0183.0675.0663.0471.1521.1129.2133.0295.0278.0881-.0131.1278.0266.0189.0196.0072.1204.0537.1324zm-.429-.2755c-.0069-.0638-.1704-.1125-.2314-.035-.0945.1204.1671.087.2314.035zm6.9668 2.8995c-.0002 0-.0004.0001-.0005.0001 0-.0001.0001-.0003.0002-.0004zm-1.2522-6.3994c.0231-.0825.1053-.1445.0496-.1968.0352-.0108.0703-.022.105-.0327-.0154-.017-.031-.0337-.0462-.0504-.0839.055-.1699.11-.2583.1665.0495.038.0985.0769.1499.1134zm.8038-.7054c.0776-.0851-.0634-.0738-.0871-.1243-.0117-.0238.0028-.0475.0132-.0695.0201-.0355.0326-.0627-.0016-.0794-.0122.0149-.0255.0313-.0394.0489-.0296.0363-.062.0736-.0953.1101.0706.0372.1395.0783.2103.114 0 .0001-.0001.0001-.0001.0002zm-6.7753 8.3105c-.107-.0073-.0638-.0879-.2752.0248h.0006c.2245.0479.4693.0562.6393-.041-.1288-.0595-.203.025-.3647.0162zm5.0335-7.0205c.0052.0721.1727.0214.1687-.0475-.0069-.1101-.1767-.061-.1687.0475zm-1.6018 5.6608c.0908-.2179-.2113-.372-.4566-.2157-.0209.0134.1651.0313.123.0802-.0044.0048-.0994.0231-.1161.0549s.0227.0861-.0091.121c-.0549.0605-.2263.0171-.2602.0884-.0046.0095.1094.0656.1155.0674.107.0243.1721-.1039.1868-.1083.0748-.0223.0839.0635.1076.0784.0448.0279.0994-.024.1045-.0223.1321.0454-.1346.087-.1624.126-.0744.1043.0303.1568-.1812.2597-.0205.0098-.2727.0714.0684.0803-.5644.3563.3361.0273.4355-.0356.043-.031-.0479-.0932-.0274-.1356.0472-.0972.1575-.1378.121-.2505-.0775-.2369-.1916-.0436-.3043-.0594-.0018-.055-.0099-.1071-.002-.1632-.0144.0761.2508.0503.2572.0348-.0001-.0002-.0001-.0004-.0002-.0005zm-1.5554.6982c-.1647-.0354-.1164.114-.2727.0597-.0866.1655.1473.0996.1764.1001.1338.003.1688.1519.2854.073-.0668-.0761-.1256-.1553-.1891-.2328zm1.2651-.2717c-.0763.1004.0935.0574.1041.0706.112.1377-.4011.2326-.1041-.0706zm-1.9116-3.4506c.046-.0227-.0219-.0696.0044-.1127.0261-.0433.192-.0697.1638-.1078-.0279-.0386-.3354.008-.1058-.1659-.0222-.0175-.0299-.0361-.0465-.0541-.0678.0411-.1359.0823-.2033.124.0777.0414.1578.0862.2321.127-.0051.0749-.0673.0218-.0693.0231 0 .0001.0001.0001.0001.0002-.0665.049-.0786.2175.0245.1662zm-2.5113 3.1609c.0591.0237.0809.0129.0848-.014.0021-.035-.0744-.1271-.0794-.1641-.0079-.0545.0801-.0998-.0057-.0995-.0612.0478-.0371.1771-.0133.234.0037.026.0094.0418.0138.0437-.0001 0-.0002-.0001-.0002-.0001zm2.3551.7471c-.116.0701-.0875.1152-.2515.0881.0142.0442.0286.0893.0428.1327.1237-.0221.0895-.1512.2415-.127.0249.004-.0036.1188.0947.0634-.0422-.0493-.0859-.1048-.1275-.1572zm-.5783.2807c.1337-.0327.1774-.4191-.047-.2059-.0334.032-.0554.2315.047.2059zm-.3651-3.4282c.2061-.141-.0559-.0215-.1452-.0219.3707-.3288.0953-.0806-.1084-.0403-.0555.021-.1008.0335-.1334.0222-.0422.1228-.025.3139.1059.1982.0585-.0469.0009-.0656.0034-.0686.0372-.0332.0739-.0479.1054-.053.0518-.001.0982.0153.1723-.0366zm1.9972 2.8865c-.0082.0052.0224.0634-.0028.0834-.0255.0201-.1017-.0063-.0985.0336.004.04.1421.0352.1749-.0036.0321-.0389.0013-.1591-.0736-.1134zm-.9565.0695c-.1113.0707.1357.2604.163.2529.2302-.0639-.1554-.1771-.163-.2529zm-1.0982-2.2879c.0364-.2879-.2421-.2493-.4483-.1262.0103.0349.0213.0692.0327.1027-.0843-.171-.126-.4333-.213.044.1414-.2093.0871-.0026.0948.002.242.1443.2874-.2268.5336-.0223.0001-.0001.0001-.0002.0002-.0002zm2.4588 2.1774c.0263-.0076.0593-.0193.0957-.0345.129-.0551.2916-.1496.1494-.2135-.0557.0549-.1102.1101-.1631.1655-.0277.0277-.0543.0549-.082.0825zm1.4723-4.6825c.1229.0054.2012-.0438.308-.1128-.1506-.0299-.0928-.0783-.072-.1199.0313-.0628-.0897.0128-.0937.0073-.048-.0849.0221-.1458-.1547-.0353.0259-.0559.0521-.1119.0793-.1676-.1363.0768-.2014.0461-.3253.0356-.0029-.0004-.0059-.0007-.0088-.0011.0047.0029.0092.0058.0135.0085.0791.0467.0805.0655.0562.0878-.0245.023-.0793.0493-.1046.1197-.0255.0682.214.1722.2946.1768.0028.0004.0055.0007.0078.0008-.0001 0-.0002.0001-.0003.0002zm-3.7592 2.3168c-.0128-.0377-.0345-.0825-.0455-.1256.0036-.0045.007-.0087.0102-.0126.0148-.0156.0316-.0323.0475-.0484.0218.0214.044.0444.0655.0645.0364-.0173-.0015-.0412.0056-.0516.0001.0001.0002.0002.0002.0003.1038-.1496.1691-.1877.3352-.1904-.0534-.076-.1068-.152-.1602-.228-.0205.0252-.042.051-.0625.0762.0152.0506.0307.1009.0467.1509-.0457-.001-.0904-.0023-.1359-.0029-.0128.0317-.0286.0672-.0385.0966-.2724-.1195.0979-.1777.0376-.2652-.0351-.0526-.2607.1085-.3081.1955-.006.0098-.0096.0186-.0105.0256.0017.0093.1785.105.0271.1132-.0178-.0028-.3624-.2523-.1744.0678.0288.0431.2818.1319.36.1341zm.9882-.5475c-.302-.1234.426-.2568.0588-.2823.0049-.1491-.0072-.1396-.1384-.185-.0117-.0041.02-.0646.0135-.0655-.1002-.0074-.1645.0726-.2249-.0187-.0152.0169-.0294.0323-.0446.0493.1325.0365.0495.1735.0515.2767.0008.0468.0558.0249.0572.0654.0003.0148-.0806.0385-.0634.0705.0398.0716.1429.1353.2469.1388 0 .0001 0 .0001.0001.0002.0147-.0161.0284-.0329.0433-.0494zm-1.9037 2.8605c-.1234.0757-.0935.2471-.2706.0321-.0234.022-.0453.046-.0665.0712.0223.0474.0484.0905.0802.1327.0696-.0182.1196-.0277.1567-.0301.1609-.0444.179.249.1587-.0232-.0017-.0357-.0584-.0251.0241-.0845 0-.0001 0-.0002-.0001-.0003-.028.0005-.0467.0054-.0621.0012-.0263-.0136-.0418-.0397-.0204-.0991zm.0217-.7504c-.1981-.3957-.2983.3589-.1801.2647.0097-.0085.0444-.3354.1801-.2647zm1.232.5396c-.0092.0012-.0177.0032-.0256.0057-.1161.0363-.0943.1852-.0711.238.0203.0461.0801.004.1103-.0097.0069-.0032.0121-.0049.0148-.0035.0453.0241-.036.0593.0233.0928.0195.0114.2705.0263.2802.0165.0533-.0513-.062-.17-.0475-.189.0461-.0618.1363-.0065.1378-.082.0033-.161-.1045.0291-.1283.0363-.0709.0212-.081-.067-.138-.0744-.0569-.0076-.0867.0285-.1354.0307-.0162.0007-.0135-.062-.0205-.0614zm-.395.4361c.1178-.1528-.2552-.2199-.2867-.1862-.1054.1076.2275.2613.2867.1862zm.4342-3.1618c-.0573.1516.2399.0368.2928-.0422-.0345-.0234-.2732-.0103-.2928.0422zm-.5859.8772c.0301-.1148-.2274-.0799-.2703.017.0971.1127.0962.0511.1309-.0048.0342-.0542.1175.0775.1394-.0122zm2.0348 1.666c-.0254.0055-.4085.2219-.1599.2056.0191-.0009.3025-.0978.3186-.1244.0325-.053-.0916-.093-.1587-.0812zm-2.0833-1.0772c-.0861-.1016-.06-.1591-.2104-.1588 0 .0001-.0001.0002-.0001.0003.0237-.166.2869-.0566.2944-.089.0289-.1143-.2007-.0979-.2293-.1938-.0169.1862-.1199.0846-.1817.2073-.014.0278.015.1722.0559.207.0406.035.2043.0339.2712.027zm2.659.8871c-.1551-.0053-.2311.2156-.0287.1905.0984-.0114.1224-.1868.0287-.1905zm4.2055-5.9849c-.051-.021-.1022-.0416-.1535-.062.0318-.0456.0629-.0918.0934-.1383-.0199.0412-.0404.082-.0616.123.0864-.0566.1844-.0244.1219.0771-.0001.0001-.0001.0001-.0002.0002zm.9189-3.5035c.037-.056-.1295-.11-.1382-.0959-.0648.103.0868.1725.1382.0959zm-6.7319 7.4006c.1464-.073-.0812-.2135-.1744-.1705.0767.0042.0917.212.1744.1705zm6.9381-6.1191c-.0194.0188-.039.0373-.0588.057.0253-.06.0432-.0733.0588-.057zm-6.027 8.2072c-.0287-.0115-.2111.0205-.2293.0488-.0379.0599.1351.1541.2072.0921.0083-.0068.0509-.1293.0217-.1408.0001-.0001.0002-.0001.0004-.0001zm5.1375-6.0839c-.0019-.0014-.0033-.0031-.0044-.005.0014.0017.0031.0032.0044.005zm-2.4596-5.4113c.0011.0038.0018.0075.0017.0111-.0005-.0035-.0014-.0072-.0017-.0111zm-3.9715 11.5807c-.0997-.2171-.2127-.0726-.0862.0217.007.0049.0719-.0195.0862-.0217z"/></g></svg>