<svg fill="none" height="32" viewBox="0 0 32 32" width="32" xmlns="http://www.w3.org/2000/svg"><g fill="#d64a0e"><path d="m21.5713 17.8998c-.7107 1.1984-1.6327 2.2144-2.5612 3.131-.2823.277-.5885.5173-.9021.7203-.1876.1198-.2116.0524-.268.0779-.1546.0672-.2015.185-.3113.2391-.5312.2592-1.0346.4499-1.5649.5974-.5463.1441-.3506-.1376-.5485-.1321-.3839.002-.0078.1816-.1344.2791-.4218.0949-.8483.1562-1.2681.2033.0968-.0437.1928-.0874.2904-.131-.1817.0308-.4456.0367-.1588-.0898-.0699-.0065-.136-.0174-.2074-.0238-.0004.1015-.3166.1649-.3359.2271-.0194.063.1573.0194.1572.0245-.0002.0768-.75.0939-.8025.091-.1422-.0016-.0377-.1406-.1545-.1161-.2003.0414-.0327.2711-.3506-.0217-.0946.1215-.1116.0672-.25.0775-.0182.0014.0038.0616-.0039.0642-.2026.0726-.0571-.0631-.059-.0692-.0326-.1037-.2492-.0285-.2975-.0329-.2359-.0211-.4471-.0394-.6529-.0509l-.0195.0018c-.3301-.0382-.6475-.0712-1.0355-.113-.13714-.0116-.56266-.0152-.69225-.0573-.1275-.0388-.04514-.1036-.10598-.1515-.13436.1583-.24518.1642-.4453.0086l.01066.002c-.00676-.0049-.01364-.0099-.02064-.0151-.1036.1222-.07643.0134-.2423.0257-.13891.0099-.37555.1695-.53503.0318.18036.0132.16106-.0551.36065-.0895.03699-.0064.25853-.0008.44406.0047.15143.0129.2875.0031.27571-.0624-.01206-.0683-.21196-.0607-.25446-.0709-.00455-.0008-.00731-.0017-.00797-.0031-.01528-.032-.00454-.0626.02194-.0853.04982-.0336.13083-.0455.19637-.011-.03113.0096-.06805.0181-.10155.0269.23507.1473.13038-.2529.26295.103.01694.0435.0001.0828.03306.1316.01121-.0158-.03028-.0672.01325-.0675.04378-.0001.11286.0945.13586.0277.03349-.0967-.14896-.0864-.16141-.0951-.00025.0005-.0005.0011-.00075.0017-.10719-.0737.13754-.0363.1505-.0448.08483-.0504.04169-.1058.15992-.1411.06714-.02.22527.0166.28582.0125.05983-.004-.02691-.0605.01354-.0669.04034-.0063.08615.0343.13335.026.0203-.0036.0233-.0569.033-.058.1034-.0134.0288.0929.1232.0917.062-.0004.2674-.0973.1296-.1327.0668-.0083.132-.0145.1981-.0222-.0413-.0163-.0843-.0279-.1241-.0477.1234.0286.1801-.0629.2568-.07.0768-.0073.1491.1007.2335.0443.178-.1196-.2704-.0524-.325-.0763-.0213-.0081.0612-.0936.0736-.0962.0555-.0109.1235.0492.167.0453.1099-.0101.1883-.0561.2761-.0913l-.0492.0045c.0392-.0176.0806-.0333.1277-.0439.5419-.1219 1.206-.2493 1.7043-.3425.1857-.0343.3114.0375.3946.0213.1938-.0382.2041-.1206.3709-.1549.2483-.051.6087-.0548.8154-.0884.1432-.0227.2504-.1293.2855-.1403.4938-.1526 1.0692-.3492 1.4327-.5185.1712-.0783.2878-.0428.322-.0628.143-.087.0682-.1308.1874-.1892.0636-.032.111.0217.1209.0192.0852-.0239.0507-.1116.1036-.1488.2615-.1857.5253-.3399.7566-.5447.043-.0387.0867-.0794.1294-.1206.022-.0213.0492.0095.0618-.0062.0531-.0682-.0202-.0856.0389-.1525.1238-.1408.2627-.2701.403-.4082.0139-.0136.0583.0159.0889-.0169.0306-.033.0164-.0911.0657-.1408.1283-.1293.2927-.2237.4207-.3669.0211-.0238-.0013-.0949.0298-.1304.0981-.1115.2817-.2443.3616-.3421.2643-.3228.4555-.6509.6461-.9654.0442-.0729.1332-.1103.1558-.1478.0509-.0863-.0334-.0474.013-.1345.201-.3734.3288-.7728.3083-.9735-.01-.1927-.137-.4689-.3464-.6809-.0672-.0696-.1538-.1348-.2485-.1925-.1448-.0877-.2849-.1343-.3971-.177-.0754-.028-.076-.1052-.1381-.1154-.1123-.0133-.1347.0845-.2463.1011-.0314.0053-.0664-.0007-.105-.0087-.0631-.0168-.1604-.0352-.2423-.0071-.1287.0447-.1626.157-.3187.2266-.1295.0579-.3399.096-.4932.1674-.4196.1938-.8478.4067-1.3599.5922-.2641.0897-.5293.1858-.9498.2133-.2115.0054-.4956.0102-.8602-.1846-.3776-.1933-.6255-.6442-.6731-.9243-.0689-.4769.0445-.5554.072-.6611.0417-.0918.0751-.1433.106-.19.0608-.0896.1102-.1458.1575-.1974.0939-.1005.1795-.1738.2656-.2407.1721-.1324.3458-.2336.5293-.3179.3539-.1597.7035-.3017 1.0412-.4388.5072-.2059 1.0068-.4702 1.4187-.6749.0387-.0197.046.0943.1401-.0087.0489-.056.0719-.1804.1641-.2916.1186-.1445.2067-.2845.2717-.4439.0625-.1184.0464-.2973.0886-.1687-.0853-.2849-.3741-.6677-.711-.9004-.0948-.071-.2554-.1328-.4347-.1598-.2784-.0434-.6041-.0096-.9267.067-1.4448.3484-2.8508 1.0211-4.2446.8264-.0745-.012-.1688-.2246-.1551-.3069.0598.021.1219.0522.1848.0808-.0702-.2853-.0474-.2166.1688-.2802.1352-.0383-.0149-.1101.0411-.1706.0711-.0804.4586-.37258.4383-.1615.0153-.0406.0296-.0793.0455-.1191.3045-.13657.5996-.27888.8991-.42173.0515-.02468.0377-.08309.0919-.10821.1443-.06735.2762-.06188.4314-.10778.0848-.02485.0796-.0951.1935-.1183.114-.0228.1321.06873.2635-.06559-.127-.09215.3424-.10965.5025-.14607.0228-.00562.197-.14567.303-.15112.1066-.00621.274.03495.4309-.02504.0733-.0281.1098-.11562.1927-.1302.0166-.00291.0349.0003.0542.00627.0513.01459.1079.04686.1635.04426.0772-.0044.2449-.07314.2769-.07453.1148-.00711-.0101.04742.0677.04818.3767.00352.819.07046 1.2216.17621.0501.01327.0027-.06761.0096-.06719.3652.05991.1565.06683.2227.15326.0243.03352.1297.09224.2514.16957.1684.10345.3728.22836.4175.18156-.0703.11217.0977.12672.127.14994.1121.08705.0117.14771.1292.22043.0431.02766.0336-.09583.0685-.05484.0877.10392.0707.2739.1618.42122.0219.0362.0754.0157.1164.0812.0448.0621.1413.3882.1716.1974.0077.1197.0246.1802.0546.2479.0386.0917.0779.1908.0899.3367.0057.0797-.0796.1716-.0673.3094.0036.0469.0891.0578.0778.129-.0201.1211-.0962.2171-.1621.3271-.0221.0367-.0432.0752-.0614.1177-.1324.3149-.2933.6621-.5527.8977-.0701.0626-.1143-.0133-.2108.0749-.0133.0132-.0835.1749-.1595.2255-.0455.0339-.2988.1538-.3469.1786-.0782.0442-.0476.1229-.0979.1357-.1462.0357-.1119-.1285-.1711.1024-.0956-.0511-.1752.0047-.2582-.08.0119.1368-.1106.0668-.1858.1537-.0761.0872-.0473.344-.1876.1223-.0303.051-.1994.1932-.2304.2119-.0907.0554-.0704-.0341-.1384.0086-.0121.0074.0222.046-.0612.0794-.0553.0227-.4453.1969-.4708.2008-.2948.049.1229-.1095.1587-.1845.0159.0081.0317.0164.0482.0241.1269-.0323.0135-.1031-.05-.1026-.0636.0006-.1419.0907-.2009.0772-.0295-.0068-.0711-.1347.0016-.15-.0877-.0054-.0092-.0889-.0531-.1114-.0483-.0248-.3717.1078-.3427.1758.0604-.0248.1331-.0607.1944-.0852.1314.0811.0738.5869-.2136.5276-.1708-.0342-.0592-.1812-.1889-.0879-.0257.0195-.0616.0508-.1083.1004.0466-.0214.0903-.0318.1339-.046.0034-.0012.0068-.0023.0102-.0036.0111.0203.0121.0325.0068.0399-.0127.0213-.0847-.0044-.1007.0312-.0084.0213.1235.0278.0481.0941-.1411-.0776-.1344.0788-.2233.1587.0088-.0408.0231-.0835.0404-.1263-.2606.0744.1983-.3217-.2394-.0461.0415-.0455.0917-.0843.1408-.1272-.0559-.0221-.0975-.1741-.141-.1815-.1183-.0167-.1904.1051-.2679.1851-.0347.0368-.0458-.0121-.0486-.0093-.0499.0584.0075.0749-.023.1414-.0052.0218-.0282.0354-.0207.1181.0017.0985.0608.2651.0957.2866.0838.0636.0531-.1371.0751-.1309.0704.0106.118.099.1542.0337-.069-.0173-.1488-.1153-.1619-.2254.0128-.0326.1176-.1243.1431-.1117.0159.0019.019.0186.0094.0525-.0045.0169-.0124.0385-.0194.0628-.0085.003-.0057.1213.0092-.035.0023.0043.0046.0086.007.0128.0034-.0058.0069-.0114.0107-.0167.0385.1857.0755.1095.1144.1553.019.0113.0362.024.0569.0251.0123-.0223.0767.0662.0699-.2337.0195.0066.0344.0075.0306-.0065-.0318-.0595-.0641.0106-.1105.0627-.0318.0032.0817.0662.1071.0102-.0148.1173.0689.2198.0136.3413-.0092.0196-.1217.0045-.0902.1042.0156.051.0821.1588.0713.2205.032-.0428.0604-.0922.0844-.1386.1914-.0279.2182.0074.3404.0652-.0138-.0315-.1325-.1495.0132-.1383.0076.0007.0244.0494.1019.0552.1517.0108.1901.0142.1198.1899.2726-.1694.3844-.0368.6531-.1912-.1269-.1567-.2011-.0729-.4577.0529-.0262-.0392-.0457-.0802-.0719-.12.3828-.0219.2083.0265.3695-.1318.0391-.0384.2951-.1151.1646-.2015-.0306-.0201-.1818.0433-.1817-.0082.0007-.0096.1758-.1042.197-.0999.2604.0575-.0614.3068.4773.0216.0148-.008-.0014-.0616.0256-.0814.0508-.0371.0766.0221.1211-.0127.0443-.0348.0813-.1444.1873-.1015.1935.0779-.0982.2897-.2743.2802.0198.1957 1.0438-.2212 1.0903-.2382.2455-.1545-.1873.0296-.2297-.0071-.0168-.0175-.1132-.2852-.1643-.0684-.0143.0639.1536.0768.0796.1372-.0741.0608-.0709-.0299-.0791-.0331-.0291-.0102-.1085.0546-.1249.0485-.2513-.0922-.3362-.3521.0574-.0768.0736-.1266-.2247-.1643-.1144-.2742.137-.1347.3032-.0564.3247-.0578.2705-.0197-.0786-.1038.2476-.1446.1802-.0178-.2148.1931.1644.0716.3178-.0843.1342-.1073.1287-.2606-.0002-.0137.0272-.0337.0463-.049.0196-.0152.0308-.0265-.0039-.0241-.0205.0015-.0572.0079-.1199.025.0002.0398-.0017.0928-.0095.1315-.0666-.0143-.2239-.1732-.2615-.1689-.175.0191-.1347.1141-.2679.0334.1105.0998-.0261.0637-.0572.1044-.1145.1507.0933.111-.2855.1177.0655.0399.1269.0803.1897.1215-.0383.0169-.0774.0344-.1158.0518-.1071-.1027-.3119-.0009-.1719-.2038-.2439.0569-.3231.1231-.3322.2402-.0017.0224-.0323.0439-.0712.0623.0189.024.0638.1038.0618.1168-.0177.1139-.1699-.006-.1655-.0781-.0289.0088-.0522.0147-.0605.0164-.0528.0113.0204-.0829-.027-.0847-.0156-.0005-.1484.0689-.1601.0479-.0748-.1345.1912-.1242-.293-.0213.0412.1334.2396.0191.2419.1775.0018.1707-.1974.0222-.1511.2128-.0216-.0258-.0357-.0488-.0575-.0793-.1548.1521-.2152.0006-.2835-.0119-.1325-.0207-.6249.1446-.1332.1336-.0611.0358-.1278.0643-.191.0961-.0964-.2769-.031-.1632-.3373-.1412-.0661.002-.0988-.122-.1395.0344-.012-.1455-.1447-.0547-.147-.0777-.0275-.1173.15-.2705.286-.0386.0479-.1145.0743.0183.152-.0201.1095-.057.1154-.0861.2908-.0392.0889-.1722-.549.1012-.2053-.1946.2663-.1669 1.3439-.8979 2.7077-1.2652.61-.1301 1.1904-.006 1.4474.0847.3161.1044.5758.2485.7931.3982.7133.5209 1.2153 1.1069 1.357 2.1533.0197.2074.011.4136-.0179.6121-.008.0767-.0656.3926-.162.6159-.0937.2262-.2055.3786-.2413.2574-.0075-.035.0739-.4328-.1656-.1578.0956-.0362.0669.1668.0661.1859.004.4188.1449.2553-.1413.7717zm-2.0836.4446c.4287-.4818.05-.1779-.0619-.4326-.0495.063-.1.1259-.151.1883.0253-.0069.0504-.0137.0756-.0207l.0002-.0002c.0465.0877.092.1763.1371.2652zm-9.2384 3.6897c.0253-.031.0506-.0622.0771-.0927.079.0134.1584.0252.2386.0359-.0098.0219-.0194.044-.0293.0658-.0958-.0021-.1909-.0062-.2864-.009zm7.0057-7.3088c-.1505-.0344-.0776.1091-.261.1058.0639.1016.1293.1998.1944.2996.1122-.0655.1217-.1183.2597-.1449-.0295-.0289-.0594-.0578-.0887-.087-.018.0164-.0368.0344-.0546.0497-.0735-.0845.1227-.1842-.0495-.2236-.0001.0001-.0002.0002-.0003.0004zm-1.2307.503c-.0737.0077-.3841.0059-.4298.0527-.1278.1988.7695-.071.1178.1971.0063.0226.006.0457.0089.0686.1414-.0104.2616-.0302.3817-.0547-.0296-.0872-.0485-.1761-.0786-.2637zm4.6354 1.2076c.0542-.0866.0557-.4788-.0733-.3752-.0336.0236.0729.221.0418.2896-.0183.0416-.0798-.0326-.0801.0597.0356.0086.0743.0199.1114.0256.0001.0001.0001.0002.0002.0003zm.3829.3409c.0272-.1037.0469-.2109.0634-.317-.1115.0458-.1067.2047-.2335.1643.0005-.0287.0012-.0587.001-.0877.0343-.0098.0685-.0197.1026-.0301-.0414-.1052-.0888-.0659-.0269-.2103-.2205.0414-.313.0056-.2206.3245-.0832-.0852-.4235-.1794-.2485.0478.0318.0438.1057-.0451.113-.0443.0926.0198.1213.1029.2094.1201.04.0079.0684-.0611.1233-.0507.0272.0049.07.1017.1168.0834zm-.5119-.0072c-.0388-.0497-.2001-.0195-.2161.0696-.026.1399.188.0072.2161-.0696zm-10.2819 5.2646c.0002 0 .0004-.0001.0005-.0001-.0001.0001-.0002.0002-.0002.0004-.0001-.0001-.0002-.0002-.0003-.0003zm6.1548-6.8536c-.0641.073-.1893.1044-.1585.1742-.0465-.0014-.0929-.0033-.1384-.0064.0065.022.0133.0438.0197.0656.1318-.0214.2609-.0483.383-.0757-.0351-.0525-.0689-.1057-.1058-.1577zm-1.6417-.1599c-.1549-.2459-.1109.0112-.1887-.0176-.0955-.0443-.1345-.3132-.1919-.2659.0345.1652.1295.3869.3094.5483.0056-.0999.0388-.182.0708-.2652.0002.0001.0003.0003.0004.0004zm2.875 5.1753c.0808-.0397.1084.0432.1752-.1425-.0001.0001-.0002.0002-.0003.0003-.1654.0657-.3597.1512-.4702.3077.1396.0012.1672-.1045.2953-.1655zm.0251-5.3892c.014-.0736-.1834-.0476-.2005.0227-.0271.1134.1795.0889.2005-.0227zm-3.2908 7.3745c-.1086.2191.2192.3738.4952.2106.0235-.0138-.1809-.0282-.1331-.0782.0049-.0048.11-.0251.1292-.0575.0193-.0324-.0224-.0862.0131-.1219.0622-.0621.2481-.0232.2872-.0963.005-.0096-.1184-.0627-.1254-.0642-.1161-.0215-.1904.1089-.2068.1136-.0826.024-.0898-.0622-.1155-.0767-.0482-.0272-.1094.0257-.115.0241-.1429-.044.15-.0895.1807-.1295.0836-.1065-.0292-.1565.2029-.2656.0226-.0104.2984-.08-.073-.0789.6212-.3758-.3644-.0166-.472.0432-.0473.0315.049.0932.0256.136-.0537.0981-.1755.1392-.1399.2523.0762.2377.2077.0429.3306.0568.0002.0553.0076.1076-.003.1641.0181-.0764-.2729-.0477-.2809-.0324.0001.0001.0001.0003.0001.0005zm1.6748-.7757c.1759.0118.1066-.1293.2744-.1027.0613-.1792-.1643-.0725-.1943-.07-.1369.0164-.1875-.128-.2963-.0374.0744.0691.1422.1413.2162.2101zm-1.3448.3438c.0849-.1022-.1-.056-.1111-.0692-.1179-.1361.4401-.2415.1111.0692zm6.3876-5.7879c.0088-.0505-.0689-.0238-.0894-.0668-.0159-.0332.02-.1313.0073-.1652-.0029-.0085-.0084-.0129-.0177-.0113-.0062.0012-.0132.0068-.021.0149-.0497.0556-.1391.1877-.1725.0161-.0006-.0027-.0013-.0055-.002-.0084-.0257.0098-.0457.0093-.0693.0148v.0003c.0043.0523.0035.1092-.0014.1691.0787-.0278.1603-.0607.2337-.0981.0614.039-.0178.0605-.0178.062.0001 0 .0001.0001.0002.0001.0041.0702.127.1837.1499.0725zm-2.4146 3.4121c.1274.1422.0615-.0984.0793-.1526.0185-.0546.1196-.0609.0407-.0959-.0989.0248-.1341.2326-.1199.2486 0 0-.0001-.0001-.0001-.0001zm-1.8452 1.6794c.0945-.1027.0518-.135.2181-.1654-.0285-.0366-.0573-.0741-.0852-.1103-.1076.0603-.0365.1738-.1908.1948-.0253.0031-.0292-.1145-.1086-.0354.0535.0367.1108.0782.1665.1163zm.4637-.4742c-.1153.0851-.0192.466.1243.1709.0208-.0445-.0372-.2369-.1243-.1709zm3.3371-3.3193c.1367-.2238-.0595.008-.144.0361.2545-.5459-.0177.0713-.2147.018.0083.09.0382.2727.1485.161.046-.0478-.0147-.0575-.0124-.0607.0733-.0931.1457-.0328.2226-.1544zm-4.8403 4.2499c.0083-.0059-.0273-.0615-.0022-.0839.0249-.0222.1063-.0038.0994-.0433-.0074-.0393-.149-.021-.1806.02-.0313.0415.0071.1598.0834.1072zm.9898-.2426c.0963-.1-.1998-.2159-.2227-.2046-.2158.1154.1943.137.2227.2046zm3.8572-3.263c.0843-.3429-.2245-.2517-.4396-.1623.0058.036.011.0728.0164.1087-.0572-.188-.0627-.4415-.2199.01.1774-.1835.0874.0124.0932.019.2137.1911.3274-.2003.5497.0249.0001-.0001.0002-.0002.0002-.0003zm-5.271 3.5723c-.1294.0417-.4628.1818-.2687.2575.0917-.0848.1813-.1707.2687-.2575zm3.9132-7.997c-.1243-.0796-.2518-.0786-.4114-.0574.1532.0894.0578.1093.0155.139-.0651.0448.1018.025.1027.0333.0023.0992-.0971.1148.133.1066-.057.034-.1104.0707-.1618.1088.1674-.007.2088.0613.2998.1452-.0829-.1957.0342-.0734.1689-.146.0737-.036-.0769-.2905-.1472-.3295zm1.5787 4.1567c-.0106-.0477-.0335-.0989-.0499-.1474.0155-.0327.0308-.0647.0461-.0981.0284.0115.0576.0243.0855.0345.0319-.0373-.0142-.0422-.0105-.0565.0002.0001.0003.0002.0005.0003.0522-.2047.0944-.2732.2493-.3777-.0839-.0401-.1677-.0801-.2516-.1201-.0067.0346-.0143.0698-.0223.1048.0363.039.0722.0786.1077.1186-.0434.024-.0863.0467-.1301.0694.0002.0373-.0027.0814-.0012.1143-.3048.0121.0278-.2204-.0687-.274-.058-.0331-.2302.2822-.2188.3502.0018.0103.2089.0426.0523.1053-.0254.0105-.3812-.2074-.173.0946.0289.0436.2865.1248.3847.0818zm.7273-1.2454c-.3057.1615.14-.6222-.1435-.2955-.1052-.1209-.107-.0949-.2302-.0216-.0109.006-.0335-.0625-.0388-.0576-.072.0739-.065.1791-.1715.1535.0004.0228.0001.0445-.0002.0679.1241-.0655.1531.0982.2151.1864.0287.0398.0606-.0205.0861.0133.0094.0132-.0442.0941-.0117.1094.0742.0346.1992.0161.2889-.0728.0001 0 .0001 0 .0002.0001.0028-.028.0037-.0548.0056-.0831zm-2.7751 3.6111c-.1316-.0769-.2588-.0062-.1232-.2503-.0303-.0106-.0606-.0208-.0908-.0315-.0292.034-.0586.0679-.0891.1025.2148.4043-.3153.2395.0191.3415.0362.0112.086-.0926.0755.0478.0001 0 .0003-.0001.0004-.0001.0862-.1271.0606-.176.2081-.2099zm.609-.806c-.0045-.4625-.4458.2366-.2952.191.0147-.004.2011-.3106.2952-.191zm-1.9049 2.1118c.1427-.0819.0588-.2297.0127-.2714-.0462-.0421-.1052.0675-.1226.0667-.0555-.0029.016-.0712-.0569-.0771-.0238-.0001-.286.0825-.2936.0933-.041.0682.114.1414.1045.1646-.0328.0776-.145.0552-.1279.1292.0358.1587.1081-.0655.1306-.0815.0707-.0475.1074.0332.1723.0165.0648-.0169.0859-.0647.1378-.0889.0173-.0081.0357.0524.0431.0486zm.2389-.5881c-.0575.2015.3506.0689.3693.01.0512-.1567-.3444-.1001-.3693-.01zm3.2658-3.9467c.0228.1753.2354-.1171.2319-.2314-.0416.0081-.2394.1745-.2319.2314zm-.4346 1.207c.0547-.1299-.219-.0974-.2823-.0043.0718.1335.0865.0674.1346.0092.0478-.058.104.0965.1477-.0049zm-4.7111 3.9142c.0314-.0056.4405-.2776.1672-.2261-.0203.0052-.3275.1322-.3455.1587-.0353.056.1028.0868.1783.0674zm4.4745-3.2563c-.0472-.1312-.0026-.1867-.1532-.2184 0 .0001-.0001.0002-.0001.0002.0784-.1714.3093-.0085.3289-.0446.0674-.1268-.1745-.1389-.176-.2487-.0705.2002-.1446.0717-.2442.1878-.022.0258-.0426.1839-.0159.2313.027.0475.1902.0861.2605.0924zm-5.1156 3.4828c.1692.0004.2567-.2249.0348-.1927-.1076.0146-.1377.192-.0348.1927zm.4253-7.6006c.0291.046.0591.0913.0932.1351-.0504.0226-.1051.0441-.156.0619.0392-.0201.0824-.0425.1207-.0655-.1055.0007-.1549-.0864-.0581-.1314 0-.0001.0001-.0001.0002-.0001zm2.0802-1.2273c.07.0153.0795-.1655.0621-.1687-.1259-.0246-.1574.1465-.0621.1687zm3.7893 3.4388c.091-.1902-.1865-.1317-.2445-.0301.0701-.0518.1915.1343.2445.0301zm-5.0572-2.819c-.0237-.0122-.0475-.0243-.073-.0357.065.0023.0822.0159.073.0357zm-.4533 8.1594c.0335.0087.2433-.0513.2622-.0839.0389-.0668-.1649-.1325-.2426-.0614-.0084.0078-.053.1372-.0192.1451-.0002.0001-.0003.0001-.0004.0002zm-.5525-7.6277c.0002.0023 0 .0045-.0004.0066.0002-.0022.0002-.0045.0004-.0066zm3.2181-5.15157c-.0014.00376-.0033.00708-.0057.00972.0019-.00303.0035-.00654.0057-.00972zm-1.1601 12.32407c.1833.1621.2732-.0379.0939-.0626-.0097-.0011-.0777.054-.0939.0626z"/><path d="m22.0011 23.6943c.3113-.6174.4962-1.4206.8163-2.323.4149-1.1453 1.1117-2.0662 1.5977-2.8696.3805-.6967 1.1154-1.4507 1.5321-1.855.3862-.4069.7001-.8698.9753-1.3833.1649-.3129.212-.2664.2639-.3539.0127-.022.0242-.0437.0347-.0651.0953-.1945.0834-.3485.1399-.5015.2619-.7212.2976-1.41.2109-2.2576.0014-.0247-.019-.1267-.0496-.2265-.3061-.8442.0265-.547-.0683-.8757-.2325-.6622-.1991-.0122-.3799-.2219-.3061-.5874-.6643-1.20534-1.0334-1.68745-.0117-.02199-.0681-.07936-.1438-.14024.0875.04501.1572.0868.1887.10199.0497.04362.1023.09366.1537.1449-.0414-.05531-.0868-.11607-.1259-.16863-.021-.03958-.0948-.11688-.102-.14527-.0145-.03253.0683-.00841.1757.06206-.0279-.06024-.0938-.14438-.1815-.23039-.0729.06114-.5943-.25954-.6793-.23856-.0781.02096.2273.19167.2215.19511-.0229.01938-.212-.09642-.4523-.24852-.3608-.22989-.8459-.53828-.8998-.57345-.2366-.15356.0389-.14374-.1758-.25107-.3707-.18385-.2445.16669-.5833-.38952-.2477-.00858-.2385-.06723-.4854-.20449-.0322-.01782-.0358.05083-.0509.04481-.4008-.15571-.0554-.10754-.0547-.11428.0058-.04629-.0617-.10148-.1501-.15448-.1277-.07655-.2987-.14847-.3468-.18001-.9516-.62136-1.6696-1.08912-2.6563-1.66737-.0786-.04611-.1585-.09226-.2405-.13864-.2412-.14276-1.0006-.47048-1.2311-.51027-.0305-.00907-.0548-.01717-.0742-.02496l.0222.00278c-.1439-.03747-.0489-.09366-.1673-.13344-.2327.17169-.4421.18014-.9355.03716-.1911.12766-.1624.01935-.5198.03307-.2234.00706-.5411.09281-.8695.06433-.0808-.00782-.1747-.02311-.2618-.05989.1399.00441.2124.00013.2762-.00761.1319-.0099.2061-.04378.4738-.05846.1418-.00984 1.6009.04702 1.4995-.09286-.0531-.07555-.5412-.03143-.5592-.04507-.106-.08185.1689-.16615.4079-.12114-.0606.01272-.1335.02521-.1985.03795.5343.1223.1831-.2676.5757.07914.0477.04274.0267.08307.1067.1304.0181-.01644-.0806-.066.0072-.06841.0485-.00119.1181.02499.1761.03951.0446.0175.0853.02733.1041-.00155.0244-.03653-.0234-.06663-.0923-.08625-.106-.01802-.2436-.01377-.2602-.01822-.0004.00059-.0007.00118-.001.00177-.2088-.058.1389-.04943.2601-.04862l.0126.00158c.0214.00247.0361.00406.0401.00342.1784-.02419.0766-.10444.3453-.07812.1577.01531.4903.18155.6113.23265.1227.04925-.0409-.08417.0437-.05419.085.03015.1668.11237.2637.14941.0422.01609.0641-.03261.084-.02424.2124.08916.0276.11643.2123.20794.0337.01676.094.03875.1574.05809.1556.04664.3264.07224.1466-.05057.1334.06042.2616.12095.3933.18242-.0727-.05719-.1507-.11163-.2204-.17067.2278.15237.3798.13033.5334.20492.1538.07459.2376.24325.429.28402.4073.08695-.4946-.33102-.593-.40843-.0385-.02978.1646-.01795.1906-.0069.1164.05021.2188.17425.3061.21748.3124.15402.5389.18143.8406.32009.4067.18694.8532.39253 1.3067.60624.6959.32888 1.3926.67568 1.9797.98922.3126.16721.4843.3442.6306.45027.0228.01655.0446.03108.0659.04337.3776.22095.4585.17246.8126.40695.1476.10483.3241.22196.5453.48389.338.4292.5843.88327.7641 1.18823.1696.28927.3854.51473.4302.59104.3242.59573.6848 1.09663.8777 2.12443.0744.5771.099 1.228.0426 1.7414-.056.5249-.2114.7471-.2318.8512-.1095.4477-.006.3508-.1381.704-.0758.1885-.1577.1943-.1702.2182-.0419.0771-.0599.1346-.0703.1877-.0148.0838-.0047.1513-.0501.2503-.3481.762-.8444 1.4841-1.4548 2.1055-.1097.1125-.2183.217-.318.3138-.0473.0459-.0718.0125-.0998.0433-.1157.1299-.0154.1195-.1296.2443-.2287.2526-.4338.5032-.6406.818-.0201.0308-.0739.017-.1186.091-.0022.0038-.0043.0075-.0063.0113-.0463.0857-.0494.1768-.132.3024-.2269.3435-.4881.6244-.6968.9587-.0345.0554-.0217.1565-.0706.2383-.1558.2563-.4021.6095-.493.8292-.0302.0703-.0579.1402-.0829.2095-.2565.7022-.4053 1.4816-.7687 2.2939-.0948.2112-.2445.3687-.3054.4739-.1359.2294.0037.096-.1205.3041-.0035.0056-.0072.0117-.0112.018-.5441.9304-1.3644 2.1793-2.5129 2.8857-.7551.5469-1.8095.8073-2.657.884-.3852.0402-.7971.072-1.2102.0884-.4775.0195-.952.0313-1.3678.0195-.3169-.0094-.3729-.0871-.5968-.0906-.3985-.0065-.4728.0907-.8935.0922-.3361.0009-.718-.1067-1.0674-.1108-.3495-.0042-.5135.0861-.9164.0827-.3315-.0029-.7913-.0659-1.1568-.0789-.1314-.0045-.2666-.0098-.3979-.0157-.56492-.0267-1.12001-.0475-1.72691-.1107-.5658-.0673-1.42258-.1677-2.0919-.8123-.99481-.7922-1.60187-2.2268-1.93681-3.2844-.27935-.8505-.53876-1.7016-.78956-2.5621-.27417-.9434-.59817-1.9639-.84345-2.9752-.04593-.19-.08939-.3806-.12882-.5705-.02278-.1118.11328.031-.00591-.3184-.06198-.1934-.22057-.4181-.32737-.9393-.03871-.1974-.06369-.433-.06793-.633-.04443-1.0734.08497-2.3302.54413-3.4304.35734-.876.75499-1.6995 1.10427-2.5141.24382-.5778.52812-1.1775.82031-1.7188.02481-.04703.04924-.09351.07321-.13958.4801-.92063 1.04834-1.84888 1.83667-2.65294.4281-.49575 1.21234-1.10688 1.85602-1.41758.62343-.32887 1.24415-.64793 1.88205-.93812.3197-.14489.6412-.28204.9832-.40706.172-.06249.3463-.12129.5412-.17518.2103-.04905.3595-.11802.8021-.11575.8846.10069 1.7139.24521 2.575.61784.2475.1136.0077.28419-.0982.33048-.0911-.06608-.1742-.13476-.2724-.20122-.1662.27117-.1306.19308-.602.12772-.2912-.03751-.0662.10245-.2231.12675-.2039.0272-1.1437.13672-.9574-.04724-.0583.03141-.115.06161-.171.09264-.0909.00157-.1789.00384-.2703.00663-.4887.08418-1.0244.40663-1.5201.67216-.1016.05656-.0793.1123-.1835.17059-.2761.15575-.522.22796-.8156.37365-.1601.07956-.152.15242-.3655.24917-.21185.09607-.24842.00992-.49211.23893.10696.00728-.0096.07613-.19851.16382-.22246.10116-.53241.24207-.669.3348-.04124.02358-.26658.30313-.41047.41598-.11438.08395-.29542.19783-.47881.3657-.05105.04639-.09992.09755-.14385.15383-.0872.11236-.08638.23032-.18365.3447-.06819.08056-.20734.12999-.29606.23436-.08984.10321-.21928.37614-.24899.42107-.1102.1617-.02711-.04419-.10658.06389-.22884.3138-.46287.67376-.66645 1.04755-.14531.26462-.27535.51209-.37819.75391-.0313.0734.07148.0011.06867.0115-.16742.5189-.11246.2251-.22433.3358-.05685.0565-.19601.3565-.29306.6398-.09082.2606-.1562.4963-.11207.5193-.13415-.0206-.1362.2414-.15705.3003-.08147.2299-.16775.1416-.22704.372-.0218.0844.11451-.0403.07632.0442-.09416.2086-.28824.3505-.41447.6262-.03044.0666.01149.1093-.0384.2285-.03262.0772-.15281.3052-.17681.4033-.01159.0472-.00129.0639.051.0191.00542-.0047.0113-.0101.01768-.0162-.00456.0061-.00899.012-.01329.0179-.17889.2452-.15689.3269-.24883.6638-.02268.0874-.13771.1824-.14683.3805-.00264.0669.08163.0797.06665.1764-.03276.221-.14528.4236-.16515.7172-.02079.3108-.00144.6384.02072.9744.01419.2302.0551.4304.10303.6762.03046.1521-.06298.1354-.00536.36.00843.033.15515.2853.19402.4445.01989.084.09445.4839.13062.6496.00478.0223.00888.0404.01196.0525.04263.1667.13119.1722.14232.2658.03358.2738-.14686.1002.10818.3641-.05752.1302.00696.3096-.08436.4017.15244.07.07946.2425.18329.4366.10391.1943.38794.2906.15415.418.06016.0869.23984.4806.26534.5483.07457.2003-.02852.113.0291.2637.01008.0266.04824-.0165.09829.1584.03236.1149.29482.9497.30468 1.0012.10873.5912-.14618-.2946-.23567-.4012.0065-.0258.0131-.0515.01897-.0788-.05759-.2584-.11853-.0816-.10696.0402.0114.1214.12684.3197.12213.4249-.00255.0523-.13905.0648-.16937-.0831.00965.1655-.09856-.0302-.1161.0421-.01969.079.1889.7692.26064.7504-.03938-.1297-.09285-.287-.13182-.4181.06759-.2086.6486.172.63614.6944-.00763.3803-.28934-.1484.07885.6218-.03611-.1236-.06028-.2342-.09196-.3471.08719-.0422.04716.1729.10783.2577.02915.0402.00086-.2594.10297-.025-.0074.0306-.01126.0589-.01213.0854-.00458.1955.14976.3198.26122.6113-.0577-.0829-.11507-.1684-.17234-.2559.11519.6091-.40292-.7186-.04372.4231-.0563-.1333-.1043-.2672-.15941-.4026-.02427.0823-.20099.0267-.20953.0961-.02106.1865.11199.4027.18274.5951.03106.084-.02683.0479-.02428.0548.04385.1174.08645.0675.13311.1664.05529.123.17832.5039.21836.5575.09415.1377.06302-.1608.0802-.1491.09626.0668.16195.2718.21975.2243-.32541-.4027-.78252-1.7928-.17278-.6265-.03494-.378.15164-.3299.37429.1007.19505.3471.01631.1512.05753.3684-.00183.0332.27861.4871.34316.4687-.10514.0579-.06226.2642-.23484.2504-.02692-.0011-.17091-.1918-.19491-.0664-.01325.0629-.01307.2279-.073.2528.06714.0123.13952.0207.20762.0283.25605.2541.271.3185.35112.5038.00256.0052.00521.0105.00793.0158.00245-.0049.00317-.0151.00358-.0278.00471-.0524.00463-.1493.08081-.0844.01911.0164.04231.0412.07402.0774.01095.0112-.017.0613.09731.1743.23928.2145.32116.2557.01031.2614.6783.2477.78157.3772 1.42122.4268-.10391-.213-.311-.1548-.91661-.2874-.01232-.0516-.00985-.0982-.02035-.1504.73287.3076.37046.1931.80737.1761.10774-.0047.65003.0723.48036-.0737-.03935-.033-.37566-.0669-.33198-.1107.00884-.0063.41758.0128.4526.027.43892.1878-.37835.2358.87502.2688.0341.0006.0494-.0542.1177-.0575.1175-.0058.1229.0485.2141.0511.0074.0002.0154 0 .0242-.0006.1135-.0078.2762-.0851.441.0038.231.1229-.1422.1805-.4753.1547-.1066-.0082-.2051-.0239-.283-.0475-.0357.045.0796.0885.2779.1281.6033.1237 1.9551.1715 2.0646.1615.6345-.0512-.4194-.0433-.4716-.0993-.0221-.0233.001-.3062-.2727-.1327-.0813.0515.2463.1363.0477.1587-.1972.0222-.1163-.0583-.1302-.0647-.049-.0219-.2585.0001-.2856-.013-.4084-.1993-.3579-.468.1763-.0426.244-.0805-.3005-.2485.0001-.2972.365-.0595.6249.0788.6703.0863.5441.0872-.079-.1219.5856-.0408.3708.0444-.5599.1097.2894.1217.711.0078.3287-.068.3839-.2161.0131-.0347.4026-.0682-.1268-.0656-.0159.0386-.0455.0892-.08.1242-.1292-.0317-.3398-.2326-.4087-.2415-.3351-.0424-.3223.059-.5165-.0667.1369.1351-.0905.0489-.1781.0732-.3248.0894.0952.1441-.6208-.0154.0909.0651.174.1285.2624.1929-.0864-.0013-.1735-.0027-.26-.0043-.1238-.1397-.5828-.144-.1613-.2602-.4972-.0611-.6992-.0447-.8145.0535-.0162.0137-.0614.0192-.1173.0197-.0215.0002-.0446-.0003-.0685-.0014.0149.0305.0308.1227.016.1329-.1306.0901-.3131-.0918-.243-.1521-.0602-.007-.1102-.014-.1272-.0167-.1088-.0174.1101-.0614.0224-.0873-.0292-.0084-.33548-.0169-.34087-.0413-.02344-.1563.46447-.0036-.53016-.1748-.03764.1371.433.1455.30114.2825-.14386.148-.38849-.0876-.46518.0995-.01845-.034-.02518-.0615-.03966-.0996-.41778.0389-.40024-.1285-.51395-.1823-.2399-.0741-1.17214-.4384-.35367.0075-.13965-.0223-.27759-.0626-.40687-.1126.10206-.2645.09003-.1159-.24551-.4283-.02983-.031-.06118-.0642-.09464-.1008-.10395-.1142-.04698-.2363-.25547-.2343.11558-.0877-.22332-.3389-.22783-.386-.05498-.2463.62014.3065.56568.5878.04775.0111.07796.025.09936.0423.05066.0372.02154.1134.1204.1679.19539.0922.21333.0754.45803.2561.15793-.0319-.11898-.112-.26465-.2116-.14703-.1057-.21241-.166.11727-.1019.22439.0598 1.2377.1229 2.51578.1443 1.9546.0436 4.3851.0272 5.1805.0134.3922-.0063.7533-.0148 1.0874-.0259 1.2779-.0618 2.1102-.1539 2.8733-.7004.2483-.1659.4902-.3576.7269-.5945.1456-.0773.9311-1.2424.9018-.9227-.0021.0533-.3064.6128.1047.2303-.1242.053.0114-.2464.0191-.2758.1429-.4909.0358-.4365.2359-.7943.0461-.0853.1143-.2016.2067-.3883zm2.3815-2.2905c-.1094.2159-.1679.3649-.2006.4639-.1434.4485.1568-.0744.2711.1995.0107-.0299.0215-.0596.0324-.0892.0418-.1132.0889-.2266.1407-.3405-.0307.0309-.0609.0615-.0909.0929-.0001.0002-.0001.0003-.0002.0005-.0541-.1055-.1047-.2151-.1525-.3271zm-4.4094-17.28221c.0518-.00163.1016-.00433.1554-.0043.0125-.00018.025-.00028.0377-.00028.1534.09513.3066.18938.4606.28371-.0295.00898-.0581.01878-.0874.02789-.1492-.08132-.2979-.16288-.4478-.24372-.04-.0216-.0783-.04206-.1185-.0633zm-9.856 24.10401c-.25219-.1075-.23825.055-.57845-.0451.03296.1214.07105.2404.10649.3606.26526.0025.32849-.0384.61006.0094-.0297-.0401-.0618-.0805-.0917-.1209-.0486.005-.0968.011-.1448.0149-.06457-.1109.3889-.0963.0993-.2191-.0003.0001-.0006.0001-.0009.0002zm-2.75055-.5476c-.04213-.0365-.12288-.1109-.20348-.2008-.13896-.1565-.32569-.3651-.38603-.3833-.18988-.0499.19737.3487.30376.4692.05042.0564.05965.0769-.02211.0231-.05254-.0327-.14851-.0971-.31638-.2288-.01256.0204-.03271.0325-.04909.0488.09208.0995.18232.1917.26912.2807.07889.0795.16664.1567.26161.2272.04067-.0838.10146-.1519.1426-.2361zm14.94365-1.6974c-.1145.1869-.7908 1.0652-.4743.8673.1023-.058.3061-.5377.4135-.6828.0731-.0946.0635.063.1739-.148-.0358-.0121-.0726-.0298-.1132-.0359 0-.0002.0001-.0004.0001-.0006zm-.1742-.606c-.1055.1934-.2146.3886-.336.5765.1752-.0738.3054-.3756.4255-.3192-.0255.0572-.0512.1135-.0783.1708-.0506.0226-.1015.0449-.1517.0657-.0565.1988.0464.1286-.1974.4038.2896-.0469.4283-.0269.6033-.6631.0254.1594.3899.2528.3566-.175-.0062-.0791-.1737.1323-.1824.1313-.1004-.0145-.0717-.172-.1696-.1809-.0437-.0043-.1301.1334-.1897.1237-.0283-.0052-.0108-.1754-.0803-.1336zm.6325-.1272c.0124.088.2483-.0447.3267-.2217.1238-.2753-.2346.055-.3267.2217zm-2.7965-21.12628c.0003.00016.0007.00031.0011.00047-.0003.00001-.0005.00002-.0007.00003-.0002-.00016-.0003-.00033-.0004-.0005zm-11.85233 23.97118c-.19262.0034-.47182-.1231-.48287-.0475-.08793-.0568-.17472-.1206-.25464-.1899-.01154.0198-.02223.0401-.03357.0597.26821.1897.56329.3038.83052.3821-.01921-.0674-.03691-.1351-.05944-.2044zm-2.07824-1.9713c-.13977-.288-.10934-.0024-.18604-.0426-.07835-.0406-.16332-.3198-.21347-.2589.07593.1744.16168.3553.25846.533.04139-.0856.09506-.1531.14075-.2321.0001.0002.0002.0004.0003.0006zm21.61867-9.1358c-.1494.1644-.1501.0469-.3533.441.0002-.0003.0004-.0005.0006-.0008.3178-.2723.6763-.6912.8426-1.1162-.209.197-.2609.4127-.4899.676zm-16.8437 11.5182c.0597-.0378-.095-.0833-.2317-.0957-.0723-.0065-.1385-.0038-.1694.0141-.0898.0513.0234.1024.1612.1155.0869.0084.187.0005.2399-.0339zm16.2063-19.39628c-.3342-.13568-.1715.44551.2124.90978.0348.0402-.1163-.32298-.0242-.24478.0097.00791.1174.19279.1672.2251.0502.03218.0753-.04795.1423.01438.1188.1099.2133.4551.3187.5293.0148.01-.0142-.2206-.0186-.2342-.0634-.2211-.2675-.35226-.2854-.38093-.0938-.15005-.0076-.1711-.0139-.2202-.0119-.09227-.1238-.19918-.1273-.20954-.0825-.26959.2318.26617.2981.32439.1854.15426.1507-.0713.4584.38798.0289.0429.3199.6041.03-.1431.9089 1.3025-.2644-.76187-.475-.92767-.0817-.0881-.0521.10631-.1219.06623-.1577-.09067-.3259-.30707-.4092-.21952-.1727.18423.1598.38365.2531.6142-.0593.00696-.1089.0266-.1784.01543.1009.02202-.1984-.49887-.2259-.50713-.0001.00009-.0003.00019-.0004.00028zm1.7662 3.43718c-.0576.3532.0984.3273.0013.6519.1285.2966.1422-.2788.1424-.3463.0268-.3043.1787-.3114.1053-.6172-.0802.1146-.1645.2076-.249.3116zm-.9952-2.88573c.1876.15872-.0279-.1979-.0252-.21971.0451-.24562.6562.85284.0252.21971zm-6.6225 17.16753c-.0908.0758.0157.0819-.0484.1688-.0639.0907-.3898.263-.3552.2934.0338.0393.6488-.2945.1232.1536.0347.0072.0403.0278.0639.0401.1539-.115.3044-.2385.4469-.3682-.13.0154-.2631.0241-.3852.0289.0406-.1125.1351-.0921.1395-.0958-.0001 0-.0001-.0001-.0002-.0002.1443-.1339.2167-.3956.0155-.2206zm4.5512-7.7787c-.0989-.0897-.1107.0425-.1174.1669-.005.0586-.0107.116-.0232.15-.0408.1112-.1845.2048-.0839.1993.073-.0622.1361-.19.1777-.307.036-.1082.0544-.2014.0466-.2093.0001 0 .0001.0001.0002.0001zm2.8834-4.59c-.0391.2987.0239.2745-.1586.5986.048.0036.097.0073.1445.01.1047-.2807-.0268-.3012.1175-.6133.0223-.0525.0975.0927.1249-.1654-.0724.0606-.1518.1168-.2283.1701zm-.3996 1.432c.1479-.3091-.0737-.7033-.1953-.0822-.0192.0914.081.3123.1953.0822zm-5.2641 8.4578c-.2906.4914.0867-.0388.1981-.155-.6143 1.2085.078-.1262.2788-.1913.0179-.1771.0106-.5037-.1441-.2022-.0666.1249.0048.0994.0015.1072-.1183.2344-.1866.1679-.3343.4413zm5.7818-12.4033c.0027.0115.017.0075.0338.008.0191.0001.0411.0045.0519.0394.0203.0653-.0085.2238.032.2356.0307.0086.0381-.1648.0226-.287-.0066-.0552-.0192-.1054-.0317-.1311-.0543-.1066-.1672-.082-.1086.1351zm-.2073 2.1712c-.0169.2898.3167-.1202.3226-.1909.0708-.5601-.2435.233-.3226.1909zm-5.4546 8.8934c-.1025.6589.2573.2821.5055-.0863-.0072-.0608-.0143-.1228-.0219-.1824.0705.2873.0832.7553.2508-.2228-.1952.5-.1002.0594-.1076.0536-.2519-.1414-.3681.6562-.6267.4374 0 .0001-.0001.0003-.0001.0005zm5.4252-12.0221c-.118-.2832-.5285-.9397-.468-.5641.1605.1801.3177.3669.468.5641zm-13.7238 16.8477c-.2364-.0744-.4546-.077-.7471-.0785.261.1083.0879.1165-.0015.1399-.1356.035.1909.0388.1917.0456-.0079.0975-.2166.109.258.1155-.1181.0319-.2344.064-.3525.0955.3619.0116.4458.0766.6746.1581-.22-.1939.0719-.0698.3395-.1613.1334-.0458-.2429-.2767-.3636-.3149.0003 0 .0006.0001.0009.0001zm8.0314-4.2084c.0066.0741.0253.1481.0346.2233-.0254.0659-.0524.1314-.0801.1962-.0311-.0055-.0627-.0131-.0933-.0172-.0488.0776.0046.0649-.0042.091-.0002-.0001-.0003-.0001-.0005-.0002-.0603.1723-.1177.2926-.1845.3919-.0819.122-.1703.2188-.3027.3393.0793.0483.1586.0966.238.145.0298-.066.0599-.1321.0902-.1979-.0226-.0585-.0448-.1176-.0668-.1766.0308-.0257.062-.0517.093-.0769.0361-.0291.0716-.0584.1074-.089.0183-.0654.0404-.1428.0519-.2005.3002-.1318.0564.1991-.0377.3669-.0244.0459-.035.0819-.0161.0953.0121.0088.0403-.0145.0771-.0565.1437-.1554.3594-.6054.3559-.7007-.0006-.017-.2419.0531-.0393-.1589.0296-.0315.4293.1084.2212-.2983-.0305-.0567-.3247-.0067-.4441.1238zm-1.4854 2.1944c.4758-.1321-.7321.7908-.1347.4684-.0399.2189-.0201.1979.1936.1303.0192-.0058-.0493.1159-.0386.1105.1726-.0909.2933-.2842.3778-.2151.0284-.0431.0542-.0831.0814-.1266-.212.0985-.0554-.2037-.0542-.3558.0018-.069-.0852.0284-.0846-.0304.0008-.0212.1263-.1529.1008-.1802-.0586-.0594-.2122-.0288-.3709.0806-.0001-.0001-.0002-.0001-.0002-.0002-.0238.04-.0459.0789-.0704.1185zm4.4565-7.841c.164.0399.3765-.1482.0746.3201.0397-.0028.0801-.0066.1194-.0082.0565-.072.1132-.1405.1747-.2109-.1231-.5103.6082-.5323.1495-.515-.0496.0016-.1828.1872-.0896-.0342-.0002.0002-.0005.0003-.0008.0005-.2006.24-.1904.3031-.4278.4477zm-1.0845 1.7832c-.1237.7653.6796-.7301.4549-.5376-.0178.0181-.3589.6656-.4549.5376zm3.0278-4.7208c-.0035.0074-.0068.0147-.01.0218-.116.2599.0171.3465.084.3448.069-.0019.1067-.2256.1266-.2474.0002-.0002.0005-.0005.0007-.0007.0311-.0324.0338-.008.0373.0171s.008.0508.0435.0199c.0037-.0032.0078-.007.0121-.0115.0349-.0262.2915-.5219.2866-.5524.0046-.1459-.1897.006-.1925-.0375-.0089-.1361.1058-.2817.0434-.3368-.1314-.1146-.0545.2314-.0721.2858-.0441.1574-.1237.1143-.182.2202-.0594.1057-.0617.1893-.1105.2836-.0165.0315-.0603-.0206-.0671-.0069zm-.1581 1.0805c.0566-.3443-.4666.2637-.5018.3464-.0867.2798.4781-.169.5018-.3464zm-5.3219 9.0748c.08-.3055-.3506.2546-.437.4335.0538-.005.4103-.3255.437-.4335zm.8901-2.362c-.0583.2721.2534-.0128.3198-.2377-.0893-.1714-.1019-.0403-.153.1031-.0513.1428-.1222-.0782-.1668.1346zm5.0978-10.9695c.0022.0121.024.0734.0426.1426.0654.2643.1707.7007.1715.282-.0001-.0182-.0156-.1489-.0378-.297-.0289-.1919-.1225-.4103-.1426-.4334-.0741-.0806-.0568.1717-.0337.3058zm-4.8626 9.6122c.0095.0341.0157.0667.0207.0967.0244.1345.0169.2154.162.1459.0001-.0001.0001-.0003.0002-.0005-.0848.3719-.3556.3005-.376.3808-.0667.2789.2076.0824.217.2722.0664-.413.159-.2591.2688-.5534.0091-.0238.017-.0767.0228-.1378.01-.1094.0168-.2449-.0025-.2825-.0301-.0594-.2283.021-.313.0786zm4.3301-10.8139c.1069.3038.4051.4905.235.0719-.0868-.2048-.3026-.2581-.235-.0719zm-20.24183 16.1807c-.00018.0699.00188.1412.00637.2143-.09554-.0748-.19002-.1489-.28165-.2255.07681.0563.15507.1111.23478.1662-.14987-.1696-.1532-.3038.04008-.1554.00014.0001.00028.0002.00042.0004zm-2.88891-7.3203c.01635-.112-.18448-.2593-.18833-.2318-.02782.2085.1651.3853.18833.2318zm17.05584 5.798c-.219.2816.1203.223.2596.0404-.1142.0891-.1367-.2045-.2596-.0404zm-16.22177-3.0822c-.00969.0385-.01913.0778-.02756.1203-.00869-.123.00382-.1483.02756-.1203zm22.64067-10.2169c-.001.0028-.0019.0067-.0027.0113-.0039.1028.0184.4547.0412.5025.0563.1111.1689-.2161.105-.4054-.0039-.012-.0485-.0702-.0872-.1037-.0264-.014-.0506-.02-.0562-.0041 0-.0002 0-.0004-.0001-.0006zm-20.84763 14.4103c-.00138.002-.00328.0032-.00555.0037.00191-.0011.00355-.0027.00555-.0037zm-1.8256-14.7391c-.00439.0006-.00832.0003-.01153-.0013.00361.0005.00774.0003.01153.0013zm22.20813 3c-.2584.0298-.2634.3351-.0658.1751.0109-.0089.0548-.1465.0658-.1751z"/></g></svg>