<svg fill="none" height="32" viewBox="0 0 32 32" width="32" xmlns="http://www.w3.org/2000/svg"><g fill="#d64a0e"><path d="m13.1807 17.7599c.04-.0431.0801-.0865.1204-.1302l.2581-.1966c.1299-.0702.2613-.1419.3939-.2142l.4437-.1144c.1638-.0054.3292-.0108.495-.0157l-.8302.474c.0907-.1507.1822-.3015.2745-.4509l.1289-.2634.4546-.1755c.1476-.0408.2949-.0804.4413-.1179l.0188-.0051c.1514-.0357.3017-.0693.4503-.1001l-.4514.2585c.0026-.0024.0052-.0048.0079-.0071.0757-.0693.1184-.017.1449-.0312.0728-.0385.05-.1279.0945-.1645.0407-.0335.0805-.0669.1197-.1003l.2753-.1916c.1432-.0513.2816-.1041.4221-.1557l.1403-.0813.3368.0063c.0678.0131.136.0266.2048.0412.2766.0585.1202.2505.2115.3123.0239.0162.0423.0251.0564.0281l-.5612.2774c.0551-.075-.1843-.0858-.1965-.1687.0985-.1406.2044-.278.3118-.414l.2039-.4333.625.0723c.0457.0163.0914.0329.1371.0494-.0518.0121-.1034.0239-.1552.0345l-.5557-.0642-.1813.3852c-.0007.0061-.0015.0123-.0023.0184.0031-.0046.0064-.0093.0099-.0139l.1789-.3803.5486.0634c.0896.0287.1912.0927.0295.1265.0305.0266.058.0559.0895.0823.0307-.0948.1979-.0669.2254-.1211s-.0684-.0611-.0668-.066c.013-.0423.149.0062.2607.0545l-.4864.0667c.0771-.023.1462-.0392.1576-.0416.076-.0154.0755.1237.1279.0872.0901-.0627-.0906-.2502.1948-.0248.0004-.0291.0024-.0487.0062-.062l-.178.1524c-.0075-.0437.0295-.0366.0679-.0787.0066-.0073-.0481-.0385-.0469-.0429.0299-.118.0716.0208.0771.024.0919.0557.1257-.0696.1491-.0839.077-.0472.1481-.0914.2152-.1355l.0367-.0609.1253-.0589c.1609.0015.3082-.0056.4669-.0325l.0364-.0171.0826.009c.0602.024.1236.0462.192.0668.0592.0178.2299.0224.3206.0429l-.1567.0266c.0147-.0085.0278-.0148.0386-.018.0687-.0204.0765.0649.1268.0779-.0457-.189-.0086-.2352.1665-.1979-.0242-.1219.0105-.0662.063-.0948l.0219-.0115c.0087-.0036.0181-.0091.0282-.0177.0583-.0497.1119-.2352.2321-.1773l.2217-.1277.1545.2697c-.0032.0067-.0072.0136-.012.0206-.0014-.0047-.0029-.0091-.0045-.0131l-.1447-.2526-.2075.1195c-.078.0301-.0488.0849-.1286.1629-.0098.0095-.0587.0354-.1146.0699l-.0159.0083c-.0957.0757-.2121.1838-.1499.2513.0499.0541.1246-.0681.1356-.0592.0644.0516.0528.1697-.0182.1735.0053-.0215.0133-.0448.0197-.0668-.1708-.0103.104.2584-.1554.0351-.0319-.0273-.0489-.0655-.0895-.0906.0052.0173.0505.0408.0348.0593-.0161.0188-.0968-.0288-.0667.0341.0436.0918.1064.0075.1157.0088-.0002-.0006-.0004-.0012-.0007-.0017.0831.0126-.0296.0875-.0302.099-.0029.065.0332.0939.0263.1496l-.1149.0547-.0731-.0228c-.007.0059-.0154.0116-.0255.0169-.0411.0217-.1268-.014-.1617-.0115-.0347.0028.0065.0602-.0176.0657-.0242.0054-.0442-.0358-.0725-.0296-.0121.0029-.0224.0552-.0281.0559-.0617.0081-.0014-.0926-.0548-.0968-.0347-.0027-.169.075-.0973.1214-.0353.0024-.0694.0027-.104.003l.2686-.0183c-.0037.0023-.0073.0045-.011.0068.0049.0012.0097.0023.0146.0032l-.2744.0188c.0172.0158.0351.0297.0509.0488-.0213-.013-.0411-.0128-.0596-.0068l.2975-.0203c-.0261.0303-.0349.0787-.0618.0932-.0402.0214-.1149-.0682-.1436-.0013-.0615.1425.1674.0053.2048.0136.0146.0032-.0024.1003-.0087.1051-.0277.0213-.0853-.0233-.1085-.0121-.083.0404-.1088.1355-.1857.1802-.011.0064-.0222.0128-.0334.0192l.3804-.2813c-.075.151-.1643.3157-.2546.4714l-.2999.2569c-.1118.0762-.2218.1476-.321.208-.0216.0131-.0436.0202-.0651.0236l-.3889.1588-.2308-.0738c-.0596-.0356-.0928-.0961-.1282-.1018-.1091-.0173-.1391.0574-.234.0412-.0522-.0087-.11-.0293-.1678-.0537l.9798-.4268c-.0712.0805-.1532.1575-.1999.2175-.0511.0658-.0235.1695-.0329.1889-.0129.0271-.0264.0546-.0404.0824l-.4091.5563-.4984-.1077c-.1673-.0075-.3472-.0241-.5122-.0416l.5029-.079c-.1009.0472-.1963.0907-.2777.1281-.0589.0271-.1116.022-.1504.0142l.2656-.1849c-.0312.0051-.0547.0055-.0615.0139-.0653.081.0066.1133-.0578.1675-.0348.0294-.091-.0145-.0972-.0121-.0542.0214.0039.0941-.0233.1258-.0208.0243-.0425.0475-.0649.0698l-.2691.2228-.1646.0257c-.1505.038-.3045.0502-.4574.0726l.017-.0045c-.0499.0083-.0996.0177-.149.0295-.0168.0039-.0263-.036-.0364-.031-.0435.0226-.0048.0787-.0517.0966-.0623.024-.1278.0401-.1953.0543l.5406-.4067c-.0226.032-.0461.0639-.0696.0963-.0064.0089-.0538-.0145-.067.0068-.0131.0213.0194.0636-.0036.0956-.0549.0766-.1465.1291-.2076.2071l-.3266.4302-.3753-.0294c-.0092-.0009-.0185-.0014-.0278-.0015-.018-.0001-.0391.0637-.0661.0635-.0847-.0005-.2112-.0556-.2838-.0564-.0397-.0003-.0788.0005-.1175.0022l.3769-.0972c-.1342.0749-.2568.1581-.3839.2331l.2274-.1733c-.0259.0304-.0524.0604-.0799.0897-.0363.0386-.1113.0326-.1312.0517-.0447.0433.0278.0471-.0151.0932-.0349.0372-.0699.0743-.1051.1112l-.3432.3006-.2872-.0283c-.1671-.0012-.3346-.0047-.5023-.0085l.4634-.1357c-.1278.0783-.2559.1564-.3836.2357l-.1175.063c-.1368.0575-.2734.1162-.4093.1772-.001.0005-.002.0009-.003.0014l-.1177.0415c-.1356.0385-.2843.1075-.4272.1585l.5477-.4353c-.0274.062-.0566.1207-.0897.1718-.0448.0692-.1195.046-.1476.0968-.0476.0866.0208.148-.0099.241l-.4571.6818-.5982-.2395c-.0048-.0005-.0098-.0013-.0148-.0023-.086-.017-.1545-.1393-.2433-.1589-.0839-.0185-.1482.0517-.2421.0443l-.3675-.2058c-.0048-.0028-.0096-.006-.0143-.0094-.0602-.0437-.1127-.1333-.1733-.1941l-.61713-.6806.50263-.5453c.0089-.0107.0171-.0215.0242-.0325.0799-.1239.1601-.2471.2412-.3694l-.1252.9147c-.0785-.1679-.1552-.3361-.2292-.5053l-.21-.7351.4633-.3423c.133-.1291.2678-.2561.4054-.3805l-.3211.8126c-.0134-.155-.0241-.3104-.0318-.4665l-.0035-.0771c.0046-.1508.0121-.302.0231-.4537l.0008.0343c.0011-.0306.0023-.0612.0037-.0918.0052-.1166.0044-.2378.0059-.3608l.02-.3577.1053-.1454c.0924-.14.1902-.2805.3074-.4041l-.0983.6156c.0005-.0317.0019-.0633.0044-.095.0024-.0307.102-.006.0631-.0945-.021-.0475-.1136-.1001-.1423-.2142-.0044-.0176-.0087-.0353-.0129-.0531l.0108-.4027c.0369-.1464.0825-.2925.1329-.4387l.0922.6546c-.0833-.1595-.1622-.3236-.2414-.488l-.2309-.4791.2144-.3121c.0946-.1378.1893-.2759.2794-.4157l-.0827.2377c.0349-.1473.0657-.2947.0889-.4421l.011.294c-.0124-.0487-.0257-.0971-.0399-.1451-.0299-.101-.0657-.201-.1052-.3003l-.0205-.2298c-.0114-.1503-.0303-.3014-.0507-.4523l.0519-.2432c.0259-.1587.0501-.3176.0791-.4738l-.0527.4385c-.0448-.1483-.0843-.2964-.1119-.4442l.0486.2101c-.064-.1505-.1142-.3038-.1425-.4619l-.1184-.4865.1633-.2649c.0971-.1376.215-.2617.3619-.3672l-.071.4957c.0451-.1352.1115-.2717.2042-.4098l-.0069-.1244c.0206-.0193.042-.0384.0642-.0573.0497-.0425.2788-.0042.3426.0268-.0355.0165-.0757.0317-.1162.0478l.0032.0576c-.0128.0089-.0256.018-.0382.0273.2899-.0163.2149-.0093.2103.1165-.0029.0775.1084-.0032.1498.0307.0238.0196.0733.0739.1034.1267l.007.0254-.0173.046c-.0082.0752-.0394.1311-.1229.0609.023.0283.0453.0549.0679.0825-.0334.1101-.059.2216-.0802.3348l.0095-.1584c.0373.0539.0761.1073.1157.1605.019.0252.0761.0068.0954.033.0511.0688.0374.1428.069.2204l.0163.0706c.0003.0016.0006.0033.0009.005.0088.046.0783.0443.0812.1056.0028.0613-.0902.071.0206.1419.0836-.0515.0715.0808.0684.1846l-.0254.2119c-.016.0288-.0298.0554-.0354.0755-.0035.012.0592.1452.0287.192-.0298.0464-.1196.0997-.1166.1898l.0305-.1432c.0005.0014.001.0027.0015.0041.0155.0407.0959.0699.0979.1129.0014.0303-.0737.0619-.0791.0998s.0493.1239.0493.1391c.0006.0547-.0469-.0086-.0518.0285-.0027.0214-.0057.0432-.0088.0653l-.0143-.1603c.0249.1506.049.3164.1057.4551l.008.2126c-.0002.0116-.0002.0232.0001.0347.0006.0223.0652.0024.0667.0056.0487.1584-.0159.0674-.0759.098-.0511.0261-.0715.2501-.0051.3163l-.0653.1879c.0055.0114.0134.0206.0242.0269-.1194-.056-.0619.0478-.0664.064-.0178.0631-.1114-.0029-.1105.0682.0003.0261.089.0246.0752.0449-.034.05-.1684.0377-.218.1019-.0121.0155.0331.0476.0148.0769-.0034.0054-.0105.0129-.019.0217l-.0109-.5237c.0149.0521.0362.14.0889.0442-.0339.1233.0189.1118.0696.2002.0128.0225-.0458.097.0063.1297.0176.011.0904-.0339.1056-.0104.0165.0255.0152.0608.0134.0984l.1043.139-.0464.2717c-.0317.0273-.0659.0562-.0789.0969-.0341.1059-.0338.2266-.0559.3412l.0065-.2419c.0121.041.0213.0827.0244.1255.0032.0433-.0832.051-.0716.1125.002.009.0906.0669.0929.1106.0008.0155-.0067.0711-.0126.12l.0392.1225-.0899.195c-.0264.0224-.0498.0429-.057.0518-.0285.0354.0392.0843.0127.0973-.0764.0378-.1532-.0733-.0519.0852-.0944-.0226-.1117.0253-.2185-.0185.0934.0884-.0295.0602-.0219.1302.0017.0153.0119.0351.0244.0553l.0513-.2058c.0766.0367.1813.063-.0221.0822.0328.025.0916.1352.0963.154.0135.0554-.0599.0285-.0484.0703.002.0074.051-.0025.0481.0454-.0007.0118-.0003.0515.0002.0972l.0004.0156c-.0019.076-.0041.1687-.0083.1772-.0765.1567-.0494-.0848-.1031-.1183.014-.0061.0281-.0121.0419-.0185.023-.0692-.0884-.0293-.1141.0022-.0257.0314.0243.0896-.0122.1158-.0183.0131-.1521.0058-.1362-.0335-.0409.0422-.0847-.0149-.1234.0019-.0423.0185-.0544.207.0193.2077.0024-.0353-.0004-.0791.0025-.1147.1278-.0472.5659.0919.3919.2225-.0058.0044-.0116.0082-.0172.0116l-.0014-.0294c-.1117.0789-.2093-.0447-.0905.1583.0023-.0345.0117-.0644.0145-.0958.0954-.0114-.0056.0478.0271.0711.0159.0112.0772-.0713.1054-.0066-.132.0689.0094.1014.0191.1973-.0266-.0246-.0532-.0493-.0799-.0739-.0855.1708-.1502-.2036-.179.1168-.0076-.0376-.0096-.0755-.0196-.1131-.0487.0228-.1986.0056-.2283.0248-.0781.0504-.0234.1106-.0261.1642-.001.0234-.042.0124-.0421.0144-.0017.0321.056.0202.0621.0477.0001.0004.0001.0007.0002.001l.0352-.089c-.0245.0268-.1361.0522-.1439.0679-.0206.0409.1095.0792.1122.0883.0173.0598-.055.0625-.0038.1149.0249-.0483.0883-.1088.1472-.1471l.0237-.0259-.0043-.0232c.0078-.1066.05-.1744.1317-.0111l.0137.0748-.0763.0835c-.0054.0111-.0116.0229-.0186.0356.0249.0039.0481.0109.0691.0205l.1064-.1165-.0191-.1043c.0569-.0307.1187-.0355.1659-.0141l.0311.1693-.1728.1893c.0091.0403-.0006.0832-.0354.121-.0777.0845-.0667-.0134-.159-.027-.0117-.0015-.1484.0754-.1202.1184-.0738-.091-.1801-.1346-.2361-.2467-.0083-.0164.0431-.0533-.0382-.1107-.0408-.0288-.1352-.0866-.173-.1361.0193.0407.0418.0858.0622.128-.0526.0619-.0902.0521-.1576.0321l-.11.0813.0499.1744c-.0072.0095-.0149.0197-.023.0309.0304-.0146.1443-.1105.1308-.0276-.001.0043-.047.0259-.0569.0692-.0197.0875-.0286.1076-.1879.1093.1353.1117-.0069.2033.096.3319.1664-.0992.1021-.1333.0149-.254.04-.0225.0809-.0417.1212-.0646-.0255.2164-.0505.1243.0753.1916.0308.0164.0603.1573.1627.066.0241-.0215-.0114-.1022.0367-.1103.0071-.0012.0455.0537.0585.0844l.0024.0047-.004.0065c-.0056.0077-.0105.0127-.014.0127-.193.0026-.1499-.2304-.3025.0635-.0042.0082.0383.0443.0339.063-.0084.0351-.0601-.0035-.066.029-.0059.0326.0386.1176-.0522.1046-.1654-.0233-.1169-.2268-.0037-.2481-.0566-.0615-.1578-.0066-.2553.0789l-.2492.2703.3059.3374c.0558.0764.1279.1524.1851.2063l.1885.1056c.0608.019.1063.0293.1167.028.1696-.0211-.0712-.0559-.0938-.1064l-.1565-.0877c.0001-.0028.0007-.0054.0019-.0077.0107-.0205.2037-.2288.0285-.1391-.0519.0267-.0367.1376-.0948.1255-.0582-.0122.013-.0604.0142-.0673.004-.0233-.0572-.037-.0545-.0505.0404-.2063.2304-.4009.0673-.0067.1075-.025.098-.229.1972-.2221.067.0046.0857.0507.09.0928l.0107.006c.0178.0287.0262.0593.0306.0633.1179.1062.0125-.1213.1633-.0145.0839.0595-.1749.08.0417.1303.1814.0419.1034-.0493.1583-.1891.0128-.0327.1226-.0454-.0149-.0694-.0146.0363-.0361.0835-.0546.1155-.0247-.0368-.0246-.2398-.04-.2514-.0756-.0559-.0998.0425-.1164-.0865-.0008.1356-.0369.0432-.0664.0633-.0214.0144-.0349.0286-.044.0408l.0701.0392c-.0553.0286-.027.0596-.0692-.1204-.0228.0618-.0466.1213-.0699.1824-.0182-.0137-.0364-.0274-.0546-.0411.0654-.1224-.0354-.1907.1365-.2177-.0221-.0361-.043-.0624-.0641-.0798l.0379.4056c.0342-.0502.0241-.0972-.0215-.1566-.0127-.0164-.0072-.037.0053-.0566-.0261-.0143-.1021-.0647-.1088-.0743-.0586-.0853.1072-.0234.1484.0294.0122-.0111.0229-.0191.0269-.0218.0253-.0168.038.0634.0681.0569.0098-.0022.0484-.0744.0684-.0613.127.0839-.0395.1238.189-.0341l.1405-.2289-.0861-.1684c-.0001-.0009-.0001-.0019-.0002-.0028-.0155.0053-.0282.0114-.0387.0182l.0773.1511-.1261.2056c-.0838-.0408-.1333.0386-.2201-.0622-.0654-.0761-.0092-.0773.0085-.0979l.0351-.0572-.0215-.0421c-.0052-.0159-.0242-.0232-.0952-.0015.0277-.0169.0515-.0291.0836-.0469-.1185-.0696.0316-.1303.0527-.1742.0414-.0852-.0765-.3558-.1098-.058-.0273-.0309-.0478-.0653-.0734-.0966.2568-.1104.1747-.055.1443-.2193l-.0843.3586c.0055-.0033.0114-.0067.0176-.0101.0369-.0201.1323.0658.0606-.0736.0955.1141.1251-.0336.1456-.0278.1323.0387.0421.34-.1595.1678.0028.0086.0048.0157.006.0218l.1118-.4753c.0702.0106-.0338.0554-.0014.0927.051.0586.0792.0584.0182.1758.1622.028-.0652-.334.2019-.1655.0659.0416.1547.1549.2533.3066l.1508.2948-.246.4009c-.0622.1301-.142.2782-.2285.4299l-.0997-1.0674c.0753.0523.1514.1066.2264.1609l-.3246-.1817c.1785.0314.3536.0651.5064.0956l-1.0183.4268c.0764-.1772.1408-.322.1757-.4017.0179-.0408.0351-.0802.0518-.1184l.1178-.2818.4531-.1719c.1589-.0575.2976-.1079.4284-.1538l-.1336.0472c.1374-.0726.2658-.1383.4015-.2034l-.1365.0732c.1151-.0795.2365-.1595.3765-.247l.1517-.1198.3834-.037c.0125.0002.0251.0003.0378.0005.0555.0008.4749-.0123.3876.1502-.0125.0233-.193.085-.0384.2127-.0314-.0753.0596-.1242.0673-.1321.0189-.0194.0346-.0373.0479-.0536l-.5921.2557c-.0235-.1728-.0863-.1575.0809-.3378zm1.4351.7977c-.1319-.0111-.1799-.0042-.1911.0211l.2166-.0559c.0005.0107.0071.0213.0174.0331l-.2333.0602c.0136.0532.0608.14.0263.2617.0461-.0002.0921-.0004.1383-.0006-.0124-.0151-.0247-.0302-.0371-.0454h-.0001c.0209-.0914.0421-.1828.063-.2742zm4.6969-2.1236c-.0204.0288-.0406.0576-.0619.0855-.0375-.0165-.0749-.0328-.1123-.0491l.3781-.0259c-.0075.001-.0151.0021-.0227.0031-.002-.0226-.0042-.0453-.0063-.0679.0018-.0006.0036-.0012.0053-.0018l-.34.0233c.053.0119.1059.0238.1598.0328zm-8.42 2.5181c.1123.0005-.0192-.0914.0929-.1186-.1009-.0626-.2005-.1227-.3009-.1841-.0271.0648-.0005.1043-.0682.1458.0355.016.0713.0321.1069.0485.0009-.0148.0014-.0308.0029-.0447.0962.049.0377.1528.1665.1534 0-.0001-.0001-.0002-.0001-.0003zm-.1342-.2741c.0004-.0154.0009-.0485-.0019-.083l-.0758-.2655.1673-.1236c.0487-.0228.0982-.0542.087-.0844-.0337-.0914-.1174-.0293-.1667-.0039l-.224.1655.1015.3555c.004.0333-.0003.0501-.0458.0181l-.1122-.3928.2475-.1829c.0053-.0204.0152-.0488.0305-.0874-.0166-.0164-.0309-.0343-.0464-.0514-.0228.0151-.0454.0304-.0679.0458l-.3072.227.1393.4876c.0066.0267.0135.0535.0205.0803.0845-.0365.1696-.0679.2543-.1049zm2.7496.4516c-.0556-.0128-.3209.065-.2345.1703.0254.0308.1439-.1195.1889-.113.0291.0043-.0036.0868.0539.0565-.0025-.0364-.004-.0767-.0085-.1136.0001 0 .0002-.0001.0002-.0002zm.1048-.48c-.0575.0146-.1159.0332-.1738.0488.0422.094.1254.0337.1301.166-.0158.01-.0315.02-.0473.03-.0121-.0289-.024-.0579-.0359-.0868-.0498.0718-.0197.1075-.1123.0866.0558.2.0661.3074.2248.1052-.0301.1085-.0023.462.0858.2095.0165-.0469-.0521-.0783-.0529-.0858-.0104-.0928.0277-.152.0165-.2397-.0051-.0397-.0469-.0391-.0532-.0942-.0028-.0268.0371-.1034.0182-.1396zm.4434.2971c.0288.0515.1677.0985.1841.0415.0258-.0888-.1556-.081-.1841-.0415zm5.2567-2.5128c-.0001 0-.0002.0001-.0003.0001 0-.0001.0001-.0002.0002-.0003 0 0 .0001.0001.0001.0002zm-8.5466 2.4416c-.0601-.0221-.0768-.0834-.1457-.0512.0062-.0248.0122-.0497.0185-.0744-.0212.0085-.0423.0173-.0633.0257.0096.0633.0192.1264.0286.1898.054-.0297.1084-.0589.1619-.0899zm.363-.9777c.0634-.0468-.0547-.0795-.0753-.1282-.0207-.0486.0584-.0652.0044-.1129-.0362.0289-.0738.059-.1103.0884.0613.0496.1209.1028.1813.1526 0 .0001-.0001.0001-.0001.0001zm4.8087.1017c-.0571-.0084-.0557-.0903-.1344.0254 0-.0001.0001-.0001.0002-.0001.1129.0377.2519.0614.3431-.0266-.086-.0638-.1191.0143-.2089.0013zm-5.3433.9606c.0363.0556.1411.0036.1087-.0498-.0525-.0865-.1638-.0348-.1087.0498zm6.9472-2.398c-.124-.168-.3881-.1467-.39.039-.0001.0161.1055-.0417.1221.0039.0015.0046-.0315.0511-.0157.0769s.0769.045.0876.0782c.0183.0577-.0991.093-.0659.1489l.0524-.0259c-.0003.0004-.0006.0008-.0009.0013-.0005.0008-.0005.0027.0001.0053l-.0459.0227c.0211.0042.1011-.0009.1052-.0021.0731-.0244.0083-.1283.0122-.1364.0206-.0418.0903.0079.1136.0081.0437.0003.0312-.0525.035-.0534.1003-.0222-.0003.105.015.1395.0415.0927.1355.0857.1041.2302-.0009.004-.0091.0187-.0154.0341l-.1683.229-.2051-.0444c-.0315.0012-.0625.0097-.0065.0553l.2349.0508.1929-.2622c.0163-.0083.0372-.0206.0635-.0383-.002.029-.0029.0536-.0028.0744l-.2239.3044-.2727-.0589c-.1137.0515-.0857.0783-.0104.0895l.3209.0694.2635-.3583c.0562-.0878.122-.2686.1194-.3106-.0023-.0359-.0952-.0389-.1175-.0731-.0509-.0781-.0278-.1458-.1324-.2008-.2202-.1154-.1275.0468-.1958.0799-.0429-.0332-.0868-.0623-.1258-.0999.0513.0526.162-.0641.153-.0763-.0001-.0001-.0003-.0002-.0004-.0002zm-.6592.5895c-.1117-.0314-.0411.1086-.1521.0607-.0068.1577.1178.0906.136.091.0753.001.1332.116.1809.0819l-.2959.0465c.006-.0004.0128-.0023.0204-.0059-.004-.024-.0078-.0481-.0113-.0721l.2542-.04c-.0444-.0538-.0876-.1085-.1322-.1621zm.8417-.2156c.0379.0915.091-.0003.1062.0037.1622.0421-.0271.299-.1062-.0037zm-4.47 1.8663c-.0283.0117.0288.0653.0186.0985-.0101.0335-.1218.0279-.0943.0664.0275.0386.2341.0519.1078.1647.0191.0193.0282.037.0435.0557.039-.0242.0787-.0483.1178-.0726-.0626-.0507-.1279-.1045-.1882-.1536-.0112-.0652.0432-.0073.0444-.008-.0001-.0001-.0001-.0002-.0002-.0002.0197-.0165.0224-.0651.0113-.1034l-.1267.0371c.0062-.0206.0073-.0409.0001-.055l.0969-.0283c-.0089-.0052-.0193-.0062-.031-.0013zm2.217-.8651c-.1572-.1074-.0136.0645-.0088.1016.0047.0372-.0762.0343.0013.0645.0728-.0106.0251-.1541.0073-.1662.0001 0 .0002.0001.0002.0001zm1.0729-.6173c-.0196.0852.0237.1117-.0803.1364.0351.0299.0709.0605.1055.0899.0515-.0506-.0467-.141.0502-.1625.0159-.0034.0708.0925.0901.0245-.053-.0273-.1107-.0589-.1655-.0883zm-.1386.3813c.0551-.0655-.161-.3756-.1527-.1459.0002.0072.0054.02.0137.0354l-.0777.0642-.0474.0074c-.0023.0548.0098.1467.0423.1646l.0772-.012.1261-.1045c.007-.0002.0133-.0031.0185-.0092zm-2.4267.8674c-.1072.0984.0494.0194.1169.031-.198.2774.0148-.0385.1763.0671-.0111-.0671-.0484-.2082-.1313-.1684-.0346.0167.0156.0459.014.0474-.0554.0384-.1174-.0308-.1759.0229zm2.9063-1.4134c-.0058.0022-.0047.067-.0235.0777-.0188.0106-.0528-.0386-.0612.0001-.0084.039.0666.0786.0941.0527.0274-.0261.0426-.1493-.0094-.1305zm-.4046-.0093c-.0104.0476.0658.0947.1357.1244l-.0867.0604c.0419.0402.084.0695.09.0663.1057-.06-.0845-.1379-.1524-.2033l.0423-.0294c-.0125-.0054-.0226-.0114-.0289-.0184zm-2.4749.8829c-.0986.1878.112.3128.2673.3722.0009-.0292.0022-.0586.0031-.0876.0139.1673-.0167.3561.1471.1174-.141.0333-.0565-.0582-.0598-.0663-.1187-.2581-.241-.0446-.3575-.3358-.0001 0-.0001 0-.0002.0001zm3.1058-.7792c.0446.0047.133-.0024.1824-.0362l.1493.0323.1225-.1666c-.0074-.0412-.0346-.0703-.0977-.0637.0005.0021.0009.0042.0014.0064l-.0733.0996-.0892-.0193c-.0652.0492-.1302.0984-.1954.1475zm-5.5516 2.1983c-.0742.0173-.1054.0539-.1317.1042l.3482-.1459c-.013-.0036-.0266-.0068-.0409-.01.0375.118-.0094.1167-.0388.1344-.0356.0212.0103.0388.0293.0485l-.1392.0583c.0034-.0041.0059-.0067.0071-.0061.0241.0134.0404.0275.0526.0382l.0605-.0253c-.0096.0171-.0157.0275-.0105.0362l-.0168.007c.0108-.0037.0223-.0218.0439-.0637.0129.0362.0262.0722.0391.1083l-.0401.0598-.0525-.021c-.0063.0039-.0126.0078-.0189.0116.0049.0017.0096.0035.014.0054l.0641.0257.049-.0731c.048-.0677.1126-.0591.2044-.0742-.1953-.0388-.054-.05-.1044-.1562-.0253-.0531-.2716-.0728-.3185-.0619 0 0 .0001-.0001.0001-.0002zm2.2054-1.2944c.0126.0366.0352.0804.0518.1199-.0103.0164-.0209.0325-.0312.0489-.0237-.0191-.0481-.0394-.0713-.0574-.0235.0122.0139.034.0117.0422-.0001-.0002-.0002-.0003-.0003-.0004-.0322.116-.0667.1435-.1922.1402.0677.0636.1354.1272.2031.1908.0064-.0197.013-.0395.0196-.059-.0295-.0415-.0591-.083-.0886-.1245.0349.0031.0696.0061.1045.0092-.0011-.025-.0006-.0532-.003-.0761.2485.1146-.0149.1373.0624.2125.0497.0483.1834-.0983.1681-.1519-.0023-.0078-.1725-.109-.0494-.0929.0184.0025.3004.2618.1562.0321l-.0315.024c-.0029-.0121-.0062-.0255-.0101-.0403-.0054-.0204-.0372-.0711-.0771-.1248l-.0173.0132c-.0734-.0503-.1623-.1011-.2054-.1057zm-.379.0766c.1113.2677-.3-.0157-.1226.2047-.0508.1229-.0414.1213.0095.2305.0045.0097-.0308.0435-.0278.0478.0477.0602.1052.0284.1055.1378.0129-.0058.0251-.011.038-.0168-.0537-.1032.0319-.1724.065-.2594.0151-.0394-.0195-.0516-.0068-.086.0047-.0126.053.0126.055-.0235.0042-.0817-.026-.1921-.0774-.2523 0-.0001 0-.0002 0-.0003-.0129.0054-.0255.0119-.0384.0175zm1.8706-.8215c.0579.1375.1425.1579.0211.2667.0148.0261.0297.052.0444.0781.0231-.0091.0454-.0179.0689-.0269-.0444-.4399.2195-.0029.0521-.2771-.0183-.0298-.0645.022-.0334-.0813-.0001-.0001-.0001-.0001-.0002-.0002-.0702.0486-.0659.1018-.1529.0407zm-.3684.5268c.1675.3215.2825-.1276.1734-.1079-.0098.0017-.0529.1992-.1734.1079zm1.0382-.911c-.0625.0553.0528.1776.1016.2143.0489.0367.0461-.0474.0581-.0459.0395.0049.018.0561.0708.0642.0173.0025.162-.0583.1616-.0681-.0025-.0545-.1388-.1139-.1426-.1326-.0126-.061.0714-.0434.0262-.1024-.0964-.126-.0407.0521-.0492.0644-.026.0368-.086-.0283-.122-.0172s-.0298.0478-.0549.0642c-.0084.0055-.0462-.0435-.0496-.0409zm.034.3896c.0526-.1448-.187-.2259-.204-.1908-.0496.104.1787.2599.204.1908zm-2.2956 1.2201c.0797-.092-.1056-.1668-.1587-.1297.0098.0383.1313.1614.1587.1297zm.3838-.6276c-.0513.0596.1314.1979.1838.1665-.032-.1374-.0492-.0977-.0871-.084-.0379.0136-.0567-.1289-.0967-.0825zm2.9348-1.3281c-.009-.0023-.1023.0246-.1516.06l-.0523-.001-.0218.0126c-.0152.0353-.0135.0645.0301.0661l.0105-.0061.0251.0005c.0052.0034.0113.0067.0186.01.0107.0048.1899.0056.2057-.0137.0319-.039-.0246-.1176-.0643-.1284zm-2.5087.9646c-.0365.1187-.0746.1179-.0364.2557h.0002c-.0099.0045-.0189.0056-.0271.004l-.0862.0222c-.071.0197-.1823-.1796-.1965-.1659-.0554.0533.1007.1991.0906.2793.0627-.0997.0984.0156.1669.0023l.0277-.0071c.0038.0011.0079.0018.0123.0022.0184.0015.0905-.0811.1003-.1319.0097-.0509-.0307-.2019-.0518-.2608zm2.8691-.9523c-.0801-.0548-.1803.1261-.0655.17.0223.0085.0449-.0113.061-.0403l-.1139.0563c-.0264-.0352-.0722-.0666-.1037-.0617l.2315-.1144c-.0025-.004-.0057-.0073-.0094-.0099zm-6.0305 1.9634c-.0433-.0285-.0868-.0566-.1305-.0841.0154-.0302.0307-.0606.0459-.091-.008.0286-.0161.0569-.0244.0855.0559-.0269.1372.0227.1091.0894 0 .0001-.0001.0001-.0001.0002zm.5265-1.9652c.0551.0014-.0474-.1194-.0609-.1195-.1003-.0007-.0155.1175.0609.1195zm1.7079 1.4909c-.0989-.021-.0312.2222.0295.2389-.0371-.0465.0266-.2269-.0295-.2389zm-1.7737-.9483c-.0208.0089-.0417.018-.0626.0281.0289-.0315.0485-.037.0626-.0281zm5.194-.771c-.0087-.0137-.0613-.031-.0999-.0343l-.1699-.0031-.0708.0409c-.0167.0083-.029.0177-.0303.0265-.0051.0345.0419.0794.0865.0968l.0497-.0287.1191.0022c.0193.025.0438.0392.0659.0253.0062-.0038.0625-.1053.0495-.1256zm-5.493 2.1732c-.0017-.0017-.0031-.0034-.0042-.0051.0014.0017.0029.0033.0042.0051zm.746-3.8257c-.0036-.0013-.0071-.0028-.0102-.0046.0032.0015.0067.0029.0102.0046zm3.5676 1.9729c-.1905-.1369-.1635.0107-.0345.0434.0069.0016.0279-.0374.0345-.0434zm4.3516 2.913c.0116.0799.0238.1608.0363.2423l.0682.2499-.2424.4564c-.0969.1407-.1948.2846-.2941.4286l.0272-1.1162c.1044.1571.2083.3157.3082.4747l.2115.2502-.0966.5807c-.0464.1473-.0947.2928-.1458.4345l.0285-.1197c-.0088.0389-.0178.0776-.027.116-.0178.0739-.0831.0574-.0954.0769-.034.0532.0381.1012.0251.142-.0105.0334-.0206.0665-.0302.0995l.0135-.1472c-.0194.1516-.0322.298-.0517.4485l.0152.1279-.1485.3291c-.0102.0129-.0205.0257-.0309.0386-.132.1633-.2575-.0305-.3389.0043-.1592.0677.1356.1089.1583.1884-.0399.0518-.0816.1027-.1245.153l.0885-.6506c.0131.0978.0235.1966.0337.295-.0356-.0309-.0706-.062-.1044-.0939.0144.0695.0026.1786-.099.0847-.0115.0307-.0266.0606-.0374.0918.0972-.0207.1401.0974.1997.0919s.0269-.0694.0319-.0704c.0257-.0058.0403.0299.0483.079l.0292.2366c-.0143.0878-.0621.2098-.0678.2229-.0239.0543-.1448.0012-.1387.0484.0104.0811.2623.0371-.0741.1334.0334.0149.0507.0253.0585.0342l-.0622.2309c.0069.025-.0243.0239-.0465.0548-.0042.0059.0537.0303.0536.0339.002.0953-.0707-.0158-.0765-.0183-.0981-.0435-.0979.0577-.1158.0695-.0985.0654-.1841.1238-.2613.1862l-.0058-.2869c.0158.1253.0444.2426.1003.3714.0124.0283.0565.0792.0943.1278l.0347.0448-.0118.1114c-.0049.0465-.0116.0895-.0245.1095-.0295.0458-.098.0009-.1403.0183.1701.0855.1804.1303.0389.1958.123.0668.018.0366.0281.1101.0006.0045.0019.0093.0036.0145l.0053-.0315c.0317.062.1528.1644.0195.2106.0195-.071-.0474-.0698-.0796-.155-.0027-.0071-.0031-.0307-.0046-.0618l-.0038.0224c.0087-.0909.0178-.247-.0862-.2559-.0727-.0062-.0304.1006-.0441.101-.0803.0024-.1605-.0709-.1172-.1083.0125.015.0246.0323.0369.048.1186-.0787-.2597-.0962.0748-.0971.0411-.0002.0806.0133.1255.0075-.0162-.0073-.0631.0017-.0666-.0167-.0036-.0187.0843-.0314.0179-.0525-.0965-.0309-.0747.0484-.0817.0523l.0018.0006c-.0634.034-.0459-.0647-.0541-.0716-.0539-.0449-.106-.0357-.1456-.0931-.0121-.0175-.0083-.0433-.0027-.0676l.0327.2228c-.0111-.0185-.0203-.0371-.03-.0449-.0209-.0164-.0428.041-.0601.0317-.0172-.0092.0037-.0454-.0164-.0563-.0088-.0045-.0546.0227-.0583.0201-.0396-.0271.0706-.0584.0449-.089-.0168-.0198-.1492-.0417-.1461.0248-.0235-.0191-.0443-.039-.0657-.0592-.0048.0234-.0048.0447-.0122.0691-.0048-.0587-.0957-.0334-.1184-.0588-.0226-.0253.0569-.1063-.0077-.111-.1375-.0103.0054.1305 0 .1615-.0022.0121-.0944.0242-.0993.0207-.0216-.0159.0167-.0719.0047-.0869-.0222-.0276-.0571-.0396-.0921-.0514l-.1989-.4741.1842-.2585c-.0079-.0338-.0162-.0675-.0085-.0989.0315-.1281.0745-.2702.1211-.4045l-.1032.3828c-.0119-.1023-.0203-.2018-.0244-.2898-.0035-.0773.0877-.1204.088-.1553l.0333.2692c-.0001-.0003-.0002-.0005-.0003-.0008-.0287-.0767-.1077-.064-.1317-.1312-.0324-.0899-.0158-.2307-.0198-.3229l-.0754-.4877.1701-.2078c.0073-.0072.014-.0142.02-.0209.041-.0467.0049-.1342.0118-.1488.0455-.0988.1029-.2038.1609-.3035l-.142.4869c-.0018-.1211-.0001-.2376.0006-.3315.0004-.0567.038-.0934.0631-.1169l.0128-.1399c.0149-.0101.0259-.0172.0261-.0234.0024-.0773-.0737-.0696-.0558-.1295.0096-.0324.0804-.0265.0839-.0305.0297-.035-.06-.0585-.0578-.0894.0045-.0613.018-.1202.0353-.1782l.0269-.1133c.0464-.1053.1061-.2052.1452-.3136.0044-.012.0432.001.0436-.0075.0007-.0368-.0657-.0399-.0594-.0767.0022-.0131.005-.0262.0083-.0392l.1069.7733c-.0373-.0526-.0657-.1126-.0966-.1731-.0037-.0073.0387-.0388.0287-.0544-.01-.0155-.0596-.0004-.073-.0264-.0349-.0679-.0252-.1633-.0659-.2328-.0062-.0105-.0585.0055-.0754-.0046l-.3077-.6543.3323-.3566c.0003-.0019.001-.0035.002-.005.0382-.0498.1389-.092.1718-.1345.0643-.0836.1136-.1719.1632-.2585l-.1516.6147c-.0157-.0662-.0308-.1319-.0402-.199-.0052-.0388.0483-.0812.0469-.1016-.0032-.0461-.0536-.0041-.0601-.0503-.0049-.035-.0096-.07-.0141-.1051l-.0017-.3639.0741-.1167c.0697-.1472.1431-.2929.2162-.4393l.0767.8506c-.1016-.1533-.2039-.3066-.3123-.4565-.0002-.0004-.0005-.0007-.0008-.0011l-.3329-.6345.3451-.3561c.0884-.1225.1521-.3039.2517-.4115.0258-.0277.0617-.0242.0915-.0255l-.1381.6987c.011-.0148.0192-.029.0154-.045-.018-.0746-.1168-.0638-.1462-.1399-.0234-.0607.0537-.1566.0313-.2202-.0058-.0163-.0166-.0289-.0301-.0398l-.0185-.0956c-.0351-.0358-.0938-.0601-.1099-.1159-.0177-.0617.0134-.1554-.0027-.2231-.0079-.033-.0157-.0661-.0234-.0991-.0348-.1426-.0684-.29-.0992-.4376l-.0033-.4197.0942-.1402c.0645-.155.132-.3082.2044-.4592l-.066.7009c-.0437-.1483-.0832-.2979-.1172-.4497l-.0157-.4599c.0318-.1212.0674-.242.1074-.3624.0086-.0259.0168-.0523.0246-.0791l.1488.7242c-.0887-.152-.1945-.306-.2535-.484l-.2806-.5408.2074-.3226c.0195-.0217.04-.0428.0618-.063.0174-.0159.0865.0536.0988-.018.0066-.0386-.0428-.12-.0093-.2004.023-.055.0485-.1093.0759-.1632l-.0768.2773c.0193-.1475.0506-.296.0848-.4451l.0337.3246c-.0282-.1541-.0538-.3099-.0857-.4631l-.035-.2226c.0145-.1507.0228-.3008.0159-.4489l.0306-.2129c.0039-.0156.0077-.0311.0113-.0467.0314-.1372.0448-.2806.0517-.426l-.0193.3816c-.0653-.1421-.1381-.2829-.2029-.4239l.06.1949c-.1015-.1331-.1941-.2687-.2592-.4132l-.1488-.5209.1365-.2451c.0591-.1556.1464-.2967.2826-.4136l-.0222.5922c.0262-.1421.0868-.2918.1935-.4517l-.0257-.1587c.0275-.0232.0567-.0463.0876-.0693.0465-.0345.2777-.0207.3437-.0018-.0465.0195-.1019.0379-.1544.0584.0321.0021.0597.004.0834.0057l.0095.0584c.1857-.0395.1283-.0158.1305.0685.0013.0584.1058-.0212.1481-.003.0548.0236.2451.1551.0522.1785.035.001.0684.0015.1026.0023.0016.0029.0033.0057.0049.0085l.0123.0265-.0156.062c-.0203.1302-.0228.2637-.0194.4005.0007.0242.0561.0473.0565.0722.0005.024-.0061.0434-.0157.0612l-.0043-.2676c.0105.0348.0108.0727.0306.1087.0168.0305.0823.0073.0962.0507.014.0433-.0722.0796.0456.0959.082-.0748.0853.0762.108.1488l.0289.0938c.0008.009.002.0169.004.0234.0027.0089.1205.0638.1161.1058-.004.042-.0587.1151-.0094.1695.0232.0255.1072.0276.1177.0579.006.0173-.0366.0468-.0518.0724l-.0129.255c-.0059.0037-.0105.0079-.0125.0129-.011.0262.0289.1018.0267.1128-.0078.0399-.0442-.0175-.0546.0082-.0385.0974-.0902.2047-.1129.3118l.0216-.1511c.0026.0304.0073.0601.015.0886.0043.0162.0646-.0065.0666-.0044.0748.1094-.0043.0512-.0583.0811-.0522.029-.0225.2389.0826.2399-.0856.0047-.0729.0258-.0525.0434l-.0266-.1693c.0133.0058.0284.0099.031.0135.0285.0405-.0829.066-.0355.099.0173.0122.0808-.0422.0841-.0243.0081.0442-.0976.1197-.0915.1801.0014.0146.0553.0024.0613.0272.0059.0249-.0261.1472.0697.0651-.0425.0554-.0389.0756-.0251.0999l.0217.2092c.0019.0173.0068.0377.003.0664-.0027.0189-.0935.0346-.0702.0778.008.0146.0931.0227.0918.0434-.0029.0473-.0955.0829-.105.1423-.006.0372-.0043.076-.0008.1155l-.0439.1584c-.0195.0762-.0328.1572-.0793.2214-.0191.0262-.0935-.0177-.1148.0235-.0029.0062.0406.0883.0207.1143-.0082.0106-.0519.0451-.0832.0714l-.037-.4357c.0035.0192.0068.035.0094.0412.0135.0311.0851-.0117.0822.0126-.0082.0701-.1328.1055.0408.0616-.0642.0703-.0353.0953-.1222.1705.115-.054.0324.0378.0907.0481.0584.0103.277-.1005.0687.0573.0372-.0022.1293.0351.1406.0443.0021.0018.0038.0036.0051.0053l.0886.0969-.0182.2461c-.0053.0311-.0631.0013-.0601.0317.0005.0058.05.0101.0381.0437-.0079.022-.0454.1876-.0541.1962-.0992.0975-.0351-.0717-.0824-.107.0147-.0015.0294-.0029.0439-.0047.0332-.0453-.0819-.0395-.112-.022-.0301.0174.0098.0699-.03.0813-.0199.0056-.1497-.0273-.128-.0525-.0466.0221-.0806-.0283-.121-.0241-.0443.0046-.0854.1385-.0134.1542.0078-.025.0119-.0573.0202-.0824.124-.0073.4887.16.3782.2294l-.0067-.1958c-.0045.0077-.0112.0159-.0202.0248-.103.1011-.2308.0177-.0842.1478-.0019-.0258.0039-.0497.0028-.0733.0919-.0283.0002.0362.0349.0465.0168.0049.067-.0684.1021-.0268-.1208.078.0211.0723.0419.1406-.0289-.0125-.0578-.025-.0867-.0375-.0634.143-.1706-.118-.1611.1229-.0118-.026-.0183-.0533-.0324-.0788-.0448.0268-.1933.0455-.22.0658-.0704.0532-.0099.0858-.0062.1257.0017.0174-.0396.0179-.0394.0193.0021.024.057.0032.0662.0221.0085.0175-.0079.0693-.0134.0997l.0099-.1053c-.0089.0068-.0148.0125-.0147.0162.0008.0357.1277.04.134.0465.0412.0429-.0186.0591.0479.0897-.0002-.0186.0049-.0406.0134-.0628l.009-.0262-.0054-.0124c-.0422-.1099-.0263-.2817.1285-.1023.0948-.1003.2574-.1245.2973-.0295.0017.0041.0031.0079.0043.0114l.0492.1153-.0829.2423c-.0273.0611-.0622-.0085-.1417-.0014-.0106.0011-.0917.0873-.0488.1151-.1028-.0561-.212-.0691-.3091-.145-.0143-.0111.0126-.0496-.0815-.0782-.0473-.0145-.1527-.0408-.2066-.0717.0344.0277.0735.0582.1095.0869-.0197.068-.0657.0562-.1548.0546.0309.0133.173.0446.1108.0734-.0035.0013-.05-.0191-.0846-.006-.0695.0268-.0886.0301-.2032-.0738.009.0489-.0048.0743-.0269.0921l-.0399.0595.0013.1781c-.0151.0502-.0683.0949-.0267.1655.18-.0477.137-.0811.0877-.174l-.0012-.1513.0339-.0505c.0004-.0037.0009-.0074.0014-.0112.0428.0161.0841.0342.1274.0503-.0089.0046-.0171.0088-.0247.0126l-.0225.0335.0008.1005c-.0689.123-.0627.0635.034.1266.0252.0164.0157.1237.1384.0712.0289-.0124.0164-.0765.0647-.0757.0093.0002.0431.0755.0319.0842-.1388.1079-.2656-.0327-.1772.199.0025.0064.058.001.0675.0128.0051.0064.0034.0117-.0011.0165-.0113.0111-.0402.0196-.0276.0336.0177.0197.1078.0382.0326.0815-.1182.0682-.2105-.0192-.1892-.0912.0035-.0096.0096-.0205.0188-.0304-.0358.0001-.0629.0158-.0832.0412-.0899.1089-.0499.4095-.0337.4302.009.0117.0164.02.0224.0255l.01.0515c.0167.0121.0226.0073.0237-.006l-.0095-.0488c.0063-.0311-.0087-.1129.0235-.1239.0216-.0073.3033-.0428.1138-.0693-.0561-.0078-.1189.0647-.1538.0311s.05-.0298.0554-.0333c.0186-.012-.0175-.0479-.0065-.0546.1676-.1037.438-.1325.0542.0266.0961.034.2253-.091.2941-.0419.0835.0597-.038.1277-.0426.1372-.0491.103.0856-.0061.0808.072.0007.0094-.0002.0201-.0028.0337-.0149.0781-.1484-.0734-.096.0828.044.1308.0895.0426.2369.0155.0345-.0063.0946.0562.0545-.0395-.0385.0068-.0896.0141-.126.0166.0213-.0314.2-.12.2033-.1346.0042-.0196 0-.0317-.0063-.0403l.0058.0297c-.0138-.0245-.0438-.0266.0382-.0657-.1256.0445-.0537-.0103-.0832-.0233-.1088-.0483-.1353.0378-.0247-.1183-.0582.0262-.1154.0505-.1734.0761-.0044-.0163-.0087-.0327-.013-.0491.1301-.0427.1011-.1288.2462-.0668.0252-.1014-.0091-.1364-.1157-.1436-.0203-.0013-.0302-.0147-.0344-.0315-.0287.0072-.1184.0234-.1298.0222-.0222-.0025-.0315-.0073-.0319-.0132-.0013-.021.1087-.0571.16-.0543.0014-.0123.0037-.0222.0048-.0257.007-.0225.0707.0107.0882-.0091.0057-.0065-.0152-.0641.0082-.0685.15-.0283.0547.0846.1151-.1237-.1381.0145-.0952.1013-.2445.0983-.1604-.0032.0429-.0838-.1511-.0681.031-.0086.0572-.0141.0927-.0227-.0949-.0676.0652-.091.0972-.1202.0215-.0195.0308-.0576.0293-.0906l-.025.1538c.0317-.0514.0238-.1092-.0991-.0492l.0145-.0893c-.0031.0055-.0063.0112-.0095.0174-.0033-.0049-.0063-.0098-.0092-.0148l-.0127.0784c.0019-.0254.007-.0494.0083-.0747.2628.1231.1516.0874.2524-.016.0223-.0228.141.0252.0184-.0688.1314.0697.0907-.0504.1106-.0499.1289.0042.1868.255-.06.161.0767.0756-.0444.0153-.045.0569-.0009.0577.0179.077-.0859.0901l.0337-.2077c-.0031.0027-.0063.0056-.0097.0085.0356.0103.0556.0011.0684-.0167l-.0393.2423c.0654-.0236.1197-.1588.1831.0326.0058.0176.0093.039.0107.0636l.0598-.3684c.066.0855.1346.245.199.4289.0486.1435.0941.2968.1344.4425l-.0184-.0953c.0675.1666.1263.3235.1677.4352l.1135.2845-.2632.473c-.0259.0441-.0475.0804-.0629.1067-.0846.1444-.1541.2647-.2203.3749l.0137-1.1249c.1232.1428.2278.2718.344.4357l.2972.3221-.2083.6647c-.0185.0401-.0382.0816-.0594.1249-.0179.037-.1364.3243-.2567.1973-.0172-.0182-.0171-.1653-.1811-.1152.0782.0106.0942.0923.099.1008.0148.0262.0289.048.042.0664l.0689-.4582c.1339.0541.1624.0178.1878.1923zm-1.5301.3984c.1848-.1954-.0173-.0991-.185-.2866-.0204.0274-.0408.0547-.0612.0822.0178.0016.0354.0033.0532.0049 0 0 0-.0001.0001-.0001.0643.0665.1286.1331.1929.1996zm-.3765 4.5956c-.0331.0073-.0662.0148-.0992.021-.0091-.0355-.0182-.0707-.0273-.1062.021-.0074.0422-.0151.0633-.0225.0202.0364.0402.0728.0632.1077zm.6087-7.335c.082-.0618-.0761-.0351-.0129-.1108-.116.0244-.2294.0493-.3442.074.0243.0474.0705.0526.0494.1108.0368-.0116.0737-.0234.1108-.0348-.0094-.0079-.0199-.0162-.0283-.024.1034-.0286.1312.0558.2254-.0151 0 0-.0001-.0001-.0002-.0001zm-.0091-.7083c.0257-.0171.1247-.0865.0873-.1212-.127-.1178-.1657.1972-.1999-.0661-.0213-.0095-.0413-.0205-.062-.0308-.0252.0325-.0493.0653-.0732.0987.0833.0389.1639.0806.2478.1194zm-.0691 2.6388c.0289-.032.0407-.2429-.0817-.2292-.0359.0042.0638.147.0438.1744-.0129.0178-.0776-.0388-.068.0126.0338.0136.0709.0295.1057.042 0 0 .0001.0001.0002.0002zm.4029.2721c.0046-.0448.0059-.0917.0098-.1372-.0985-.0112-.0696.07-.1911.0176-.0042-.0148-.0083-.0295-.0125-.0444.03.004.06.0082.0899.0124-.0496-.0636-.0914-.0585-.0437-.1119-.1988-.0466-.2994-.0848-.1653.1068-.0891-.0658-.4185-.1957-.2167-.0304.0374.0308.0872-.0021.0942.0006.0875.0319.1294.0824.2124.1118.0376.0132.0501-.0151.102.0039.0252.0093.0823.0683.121.0708zm-.4908.1402c-.0575-.0054-.1836.0573-.1515.0923.0499.0548.1626-.0577.1515-.0923zm-.4423 4.9923c-.0001 0-.0002-.0001-.0003-.0001.0002 0 .0003-.0001.0004-.0001 0 .0001-.0001.0002-.0001.0002zm.4453-7.6883c-.007-.0033-.013-.007-.0183-.0109l-.0016-.2015.0452-.0673c-.0143-.0404-.0022-.073-.0624-.0995.0202-.0072.0402-.0145.0604-.0216-.0205-.0101-.0411-.02-.0614-.0299-.0258.0271-.0515.0541-.0774.0812l-.0606.0902.0021.2701c-.0018.0108-.0036.0216-.0054.0324.0598-.0142.1198-.028.1794-.0432zm.3057-.6873c.0027-.0041.0044-.0078.0052-.0113l-.0263.2796c-.0188-.0342-.0954.0287-.1426.0298-.0515.0012-.0263-.0596-.0937-.0344.0043.0219.0087.0445.0132.067l.0419-.445c-.0063.0105-.0125.0209-.0186.0313.0738.0265.1477.0561.2209.0829zm-.4114 4.8426c.0329-.0311.1037.0073.038-.0941v.0002c-.0659.041-.1314.096-.1383.1647l-.018.0756c.0005.0184.0052.0373.0152.0564.0339-.0131.0467-.0282.0518-.0448l.016-.0673c.0119-.0265.0031-.06.0353-.0907zm.0565-3.6365c.0578.0073.0971-.0598.0607-.08-.0037.0005-.0086-.0011-.0146-.002-.0373-.0055-.0671.004-.084.0185-.0276.0199-.0221.0558.0379.0635zm.1229 5.2951c.1538.0027.2925-.0955.2949-.1812l-.0374.2746c.0203-.0173.0309-.0434.0269-.079-.0015-.013-.0939.02-.1139-.0191-.0019-.0039.0242-.0373.0069-.0603s-.076-.0465-.0892-.0748c-.023-.0495.0846-.0625.0455-.1132-.0053-.0068-.0982-.0149-.1023-.0143-.0655.0101.0051.1028.0022.1088-.0149.0312-.0847-.0182-.1064-.0214-.0407-.006-.0238.0384-.0272.0386-.0095.0005-.0172 0-.0232-.0014l-.0213.0261.0094.0611c-.0073.0051-.0138.0067-.0196.0057l-.0113-.0727.0254-.031c-.0157-.0248.0259-.0804.0127-.1027-.0478-.0805-.1345-.0872-.1197-.2001.0015-.0107.0679-.1084-.0917-.0323-.0144-.3299-.1534.0133-.1617.1117l-.1091.1333.0484.3128c.0048.0051.0091.0088.0127.011.0257.0154.0945-.0393.1333-.0368.089.0057.1177.0513.2297.0137.1866-.0628.1152-.0882.091-.1243l-.0058-.0375.013-.016c.0028-.011.0083-.0201.0208-.0238.0432.0326.0869.0619.1269.0974-.0156-.0145-.0345-.0178-.0531-.015l.0049-.0364c-.0248.0379-.0225.0985-.0122.0986.0002 0 .0004-.0001.0005-.0001zm-.0417-.6618c.0758-.0647-.0809-.062.0094-.121-.14-.0547-.1319.0499-.14.062-.0361.0551-.1891.0519-.1427.1094.0907-.0184.1824-.0332.2733-.0504zm-.2396.3299c-.0443-.0791-.0845-.0116-.0991-.0169-.155-.0553-.0046-.2386.0991.0169zm.6859-3.2974c.0143-.018-.0606-.0371-.0726-.0644-.0076-.017.0231-.0364.0371-.0531l.0218.2422c-.0045-.0125-.0114-.0191-.0256-.0082-.0105.0079-.0202.0268-.0309.0481l-.028-.3112c-.057.0033-.1287.0093-.1251-.058l.0405.4486c-.0053-.0034-.0109-.0077-.0166-.0131-.0193.0188-.0363.0291-.0548.0446.0029.0042.0057.0085.0086.0128l-.0473-.5253c-.0128.026-.0259.052-.0386.078.0772.0153.1583.0318.233.0466.0471.043-.0282.0199-.0287.0208.0001 0 .0002.0001.0003.0001-.0095.0349.095.1319.1269.0915zm-.3936 1.8412c.1636-.0971-.0435-.0266-.075-.0321-.0314-.0054.0119-.0684-.051-.0148-.0287.0598.1078.0578.1262.0468-.0001 0-.0001.0001-.0002.0001zm-.0363.7269c-.0362-.062-.0864-.0618-.0193-.1185-.0458-.0052-.0925-.0107-.1375-.0158-.01.0525.1221.0715.0587.1233-.0105.0085-.1118-.0311-.0858.0198.0583-.0034.1228-.0059.1839-.0088zm-.1216-.2975c-.0038.0634.3541.176.2086.0329-.0217-.0212-.2058-.0806-.2086-.0329zm.4048-1.6385c-.0039-.1079-.0469.0211-.0997.0566-.0791-.2416.0193.0258-.1657.0762.0578.023.1882.0629.2124-.0045.0101-.0281-.0447-.0109-.0447-.0125.0073-.0503.0999-.0569.0977-.1158zm-.2918 2.4495c-.0028-.0041-.0671.0014-.0797-.0116-.0126-.0131.0327-.0417-.0067-.0451-.0396-.0034-.0711.0548-.0424.0731.0289.0183.153.0205.1288-.0164zm.1634-.4101c-.0021-.0025-.0046-.0048-.0075-.0067l.0017-.0185c-.0221-.0205-.0748-.0249-.1286-.0222l-.0036.039c-.0725.0153-.1447.0441-.1442.0505.0111.1027.2073-.0461.2822-.0421zm.5602-1.8467c-.1258-.1031-.3003-.0077-.4154.084l.0306-.1238c-.0126-.001-.0248-.0018-.0366-.0023.0145.0235.0288.0472.0432.0704-.0345-.0457-.0662-.0951-.0927-.1294l-.0492.1994c-.0399-.0064-.0677-.0063-.0717.0098l.0619-.2512c-.0134.0086-.021.0431-.0211.1168.0898-.0635.0732.0314.0799.037.1437.1114.188.0687.2642.0764l.0113-.0211-.0032-.0116c.0341-.0262.0865-.0477.1988-.0542 0-.0001 0-.0001 0-.0002zm-.8172 2.2361c-.0289.0484-.0644.1987.0767.2058-.0256-.0687-.0512-.1372-.0767-.2058zm.9335-4.1161c.0572-.062.0456-.1029.0272-.1568-.0872.0749-.1069.0452-.1356.0347-.0432-.016-.0246.0446-.0312.0465-.0951.0229-.1197-.0125-.0949.076-.0386-.0136-.0773-.0269-.1157-.0406.0129.069-.0448.1006-.1094.1629.1739-.0887.0723-.0043.1768.0224.0523.0133.2536-.1135.2828-.1453zm-.0966 1.7423c-.0357-.0085-.0834-.0144-.1239-.0218-.0056-.0134-.0108-.0269-.0164-.0403.0298-.0059.0611-.0116.0897-.0175.0062-.0196-.0346-.0067-.0393-.0116.0001-.0001.0003-.0001.0005-.0001-.0661-.0706-.0643-.1035.0202-.1774-.092.0126-.1841.0252-.2761.0377.0107.0126.0211.0253.0315.0379.0505.0006.101.0012.1515.0017-.0252.0197-.0501.0392-.0752.0588.0195.0103.0403.0231.0592.0318-.2486.0987-.0936-.0696-.2005-.0563-.0688.0085-.0459.1535.0043.168.0074.0021.1946-.0555.1021.0113-.0146.0105-.4286.07-.0852.0816.0487.0017.3023-.062.3576-.1038zm.1557-.2916c-.2774-.0378.1075-.195-.1476-.1684-.0957-.0858-.0972-.0788-.2121-.0905-.0103-.0011-.0299-.039-.0347-.0388-.0695.0067-.0585.0588-.1579.013.0013.0111.0022.0214.0035.0325.1103.0073.1465.0939.2151.1527.0311.0267.0529.0086.0802.0316.01.0085-.0279.0304.0042.0469.0728.0371.1824.0632.253.054.0001 0 .0002.0001.0002.0001-.0008-.0109-.0028-.0221-.0039-.0331zm-.2548 1.2681c-.0295.0231-.0518.0448-.0707.0636l.0226.0268-.0104.062c-.0527-.0044-.0875-.006-.1133-.0345-.0176.0103-.0401.0049-.0696-.008-.0216.0203-.043.0405-.0646.0607.0082.0096.0162.0189.0243.0284l-.0165-.1196c-.001.0057-.0019.0115-.0029.0174.4006.1802-.0994.1339.2152.1618.0342.003.0109-.0493.0857.0181h.0003c-.0083-.0579-.0471-.0821.0095-.1035l.0172-.1034-.0377-.0446c.0026-.0072.0062-.0155.0109-.0252zm-.3024-.2804c-.3362.0523-.0435.2538-.0035.1631.0036-.0081-.1289-.0908.0035-.1631zm.332 1.1304c.0158-.0598-.149-.0924-.2096-.0966-.0609-.0042-.0077.0483-.0181.0521-.0341.0124-.0481-.0287-.0946-.0131-.0151.0053-.0924.1009-.0861.107.0349.0338.1782.018.1925.0284.047.0339-.03.0558.0414.0756.1522.0424.0005-.0492-.0003-.0604-.0017-.0337.085-.0158.1067-.037.0216-.0213-.0056-.0423.0043-.0626.0033-.0067.0627.0096.0638.0066zm-.3148-.2613c.0588.0438.1304.0304.1826.0039l-.0056.0236c.052-.0187.0883-.0513.0771-.0641-.0555-.0631-.2215-.0306-.2574.0091-.0072.0098-.0071.0197.0033.0275zm.0868-1.8393c.0587.0922.1842-.0009.1671-.0521-.0378-.0095-.1874.0203-.1671.0521zm.2317.6244c.0006-.0039.0002-.0078-.001-.0117l.0594-.1118-.0167-.0612c-.0222-.0127-.0666-.0033-.1092.0149l.0091.0333-.0323.0609c-.0574-.0211-.123-.029-.1355-.0084.0957.1007.0882.0647.1099.0439.0217-.0207.11.0875.1163.0401zm-.2262 2.1933c.0002-.0003.0004-.0006.0006-.0011l.0363-.0803-.0038-.0312c-.0034-.0201-.1092-.1972-.1562-.0925-.0021.0048.0031.0507.0118.0907l.0013.0104-.0121.0268c-.0096.0284-.016.0551-.0107.0634.0255.0395.1118.0362.1328.0138zm.2396-1.8647c-.0795-.0919-.0618-.1139-.1899-.1729-.0001 0-.0001.0001-.0001.0001.0075-.0837.2403.0782.2444.062.0144-.0569-.18-.1318-.214-.1982.0044.1011-.0931.0035-.1354.0479-.0094.01.0252.1015.0618.1374.0366.0358.1764.1013.2332.1237zm-.3547 2.1063c.0719-.0302-.06-.1805-.1323-.1215-.0353.0287.0884.14.1323.1215zm.4218-5.7947c-.0492-.0136-.0984-.0269-.1475-.0396-.0004-.0264-.0011-.053-.0017-.0795.0059.0237.0117.0473.0174.0709.0352-.0316.1259-.0091.1319.0481 0 0 0 0-.0001.0001zm-.1007-1.7672c.0283-.0438-.1165.01-.1232.0207-.0501.0802.084.0401.1232-.0207zm.2371 4.6148c.0498-.0576-.1919-.1143-.2259-.0806.0537-.0053.1976.1133.2259.0806zm-.0302-3.8768c-.0218.0022-.0436.0044-.0656.0074.0332-.0168.0531-.0168.0656-.0074zm-.1646 6.4438c.0188-.0109.0352-.0934.0123-.1049-.0482-.0237-.1833.039-.1425.0775.0044.0042.1114.0383.1302.0272zm.1859-5.4619c-.0021-.0009-.0041-.002-.0058-.0031.0019.001.0039.002.0058.0031zm.1447-3.0736c-.0038.0005-.0075.0008-.0111.0007.0035-.0002.0072-.0005.0111-.0007zm-.1005 8.058c.233.0123.1224-.0712.001-.0413-.0064.0017.0006.0348-.001.0413z"/><path d="m25.025 26.8874c.1718-.5861.3146-1.3207.4554-2.0304.3274-1.7603.534-3.6879.7906-5.5638.1274-.931.2499-1.8334.3601-2.7328.008-.0642.0162-.1289.0242-.1928.0538-.4267.117-.3894.1393-.508.061-.3239.0035-.5285.0341-.7642.0379-.2935.0725-.5818.101-.8609.0717-.6338.0583-1.1294-.0095-1.7777-.0178-.1779-.0379-.3606-.059-.5443-.1389-1.1566.1442-.6429.1343-1.053-.0256-.8032-.1888-.0908-.2982-.39-.0442-.3098-.0886-.62028-.1349-.92721-.0904-.56975-.1614-.98728-.4114-1.39798-.0068-.01226-.0141-.02486-.0217-.03777.0101.0113.0198.02234.0292.03311.1193.14828.2055.26026.2842.4024-.0941-.26922-.3508-.73369.0095-.2655-.0274-.08295-.0584-.16621-.0979-.2582-.0123-.03104-.0265-.06332-.0428-.09669-.0857.0263-.4979-.44899-.5926-.45041-.0815-.00246.1736.25327.1651.25519-.0288.02745-1.0883-1.1104-1.1925-1.18712-.2188-.21478.0655-.13489-.1396-.29754-.0796-.06284-.1381-.09183-.1837-.10671-.1506-.04049-.1344.07279-.343-.38657-.247-.03179-.2298-.08965-.4763-.23197-.0327-.01817-.036.05067-.0512.04458-.4006-.14695-.0578-.10773-.0557-.11375.0152-.11737-.4383-.26458-.5299-.30372-.3214-.15758-.6379-.27906-.9536-.38295-.7626-.24841-1.5028-.38731-2.4472-.42668-.0414-.00182-.0836-.00388-.126-.00604-.3096-.01588-1.2387-.01115-1.5336-.03696-.2906-.0268-.1318-.09913-.2838-.14053-.1598.11441-.3122.16154-.5454.14588-.1382-.01209-.2958-.04604-.4914-.10352-.2152.12027-.1819.01401-.5759.00867-.1157-.0016-.2631.01114-.4172.02347-.2836.02134-.5842.05155-.8176-.03655.408.01474.3603-.05617.8204-.06786.0014-.00002.003-.00003.0047-.00003.132-.00229 1.0778.07845 1.4779.02936.128-.01682.1982-.04038.1704-.07405-.0192-.02296-.0838-.03348-.1659-.03739-.1783-.01227-.4363-.00055-.4499-.01079-.114-.08564.1879-.15887.4473-.1142-.0659.01271-.1453.02456-.2165.03617.099.02203.1703.02831.2223.02578.2539-.01813.0409-.23405.4093.0451.054.04131.0324.08229.1224.12714.0193-.017-.0913-.06349.0052-.06861.0991-.00515.2842.08299.3137.01444.0456-.09985-.3655-.07226-.3959-.07872-.0003.0006-.0007.0012-.001.0018-.2705-.06089.2981-.05173.3256-.06001.1779-.0574.0593-.10985.3257-.15296.152-.02464.5352.00733.6769.00346.1416-.00424-.0761-.06065.0193-.06717.0952-.00653.2109.03443.3221.02674.0473-.00347.0469-.05685.0699-.05787.2428-.01214.0831.09346.2979.09285.0006-.00001.0011-.00001.0017-.00002.1446-.00339.6497-.08606.3055-.13048.1665-.00488.3299-.00439.4967-.00101-.1038-.02326-.2117-.04033-.3132-.06378.3118.04093.4609-.03733.66-.02538.1999.01296.3623.14262.5861.12163.4815-.04536-.6778-.1574-.8197-.17446-.0555-.01257.1666-.08046.201-.07918.1489.00303.3172.08421.4306.09642.4068.04442.6698.00899 1.0608.07841.0291.00531.0586.01081.0883.0165.9776.17067 2.2117.61544 3.0993 1.34853.2513.19932.4923.39669.7152.5883.3506.30175.4931.5675.6463.71767.3573.36194.4607.34895.7668.74958.046.06334.0932.13317.1399.20994.4152.61046.5537 1.55768.6143 1.99575v.00003c.0522.35167.179.65304.1958.74361.1295.70123.2564 1.48283.3519 2.24373.0776.5923.1157 1.2523.0806 1.7596-.0086.1566-.0258.2836-.0447.3895-.0462.2547-.1027.3897-.1078.4628-.0329.4418.052.3312.0069.6854-.0246.1911-.0991.2189-.1046.2441-.0481.2223.0387.277.0219.4525-.0177.1846-.0381.3672-.0601.5481-.0962.8091-.24 1.6091-.3551 2.4157-.0104.0723-.0501.0608-.0542.107-.0144.1711.0376.1352.0404.2466.0007.0203-.0004.0457-.0041.0791-.0474.4315-.1151.8754-.1829 1.3351-.0067.0454-.0616.0598-.0752.1637-.0136.1049.0256.1903.0013.3545-.0634.4289-.1791.8455-.2459 1.3015-.011.0757.0387.1778.0218.2915-.0523.3553-.1888.8766-.2412 1.1826-.0547.3239-.1074.6413-.1661.9582-.1234.6563-.2297 1.2824-.4072 1.9575-.0628.2345-.1908.4411-.2543.5904-.14.3041-.0267.1644-.1366.3757-.0089.0173-.0217.0391-.0396.0676-.2586.3821-.4208.8058-.9906 1.3495-.5324.4693-1.2516.9146-2.0507 1.076-.9875.2118-1.9517.2497-2.892.2762-.1472.0035-.2942.0064-.4414.0088-.8746.0156-1.9407.0575-2.7883.0014-.3523-.0234-.4118-.1042-.6605-.1198-.4438-.0296-.5314.063-1.0021.0327-.0111-.0008-.0222-.0016-.0333-.0026-.367-.0309-.7712-.1659-1.1468-.2048-.3871-.0405-.5778.0313-1.0235-.0202-.3673-.0428-.87-.1659-1.2678-.2295-.652-.1038-1.3021-.223-1.9584-.3787-.90944-.2251-1.85-.4747-2.78613-1.044-.73233-.445-1.71503-1.0527-2.3196-2.0305-.45755-.7226-.83074-1.4913-1.08965-2.3346-.1059-.3564-.22389-.6955-.34314-1.1242-.03231-.1197-.06459-.2498-.09106-.3923-.13423-.7474-.28966-1.5031-.48181-2.2265-.13458-.4998-.20273-.9855-.23142-1.4575-.00656-.1347.10508.0574.04222-.3633-.03115-.2258-.13808-.5378-.15059-1.0641-.00826-.3787.00089-.7587.02502-1.14.05642-.8502.15227-1.7351.42079-2.6421.33924-1.1319.77457-2.2512 1.21205-3.3151.2246-.5294.34132-1.06965.63422-1.75405.02729-.06034.05406-.12055.08071-.18125.37659-.93385.94968-2.14324 1.7826-2.97181.60412-.58606.87981-1.15505 2.05905-1.7857.98318-.40144 2.01154-.74295 3.15854-.81294.5262-.02256 1.12-.08396 1.7641-.02574.9932.10419 2.0148.28969 2.9006.86794.182.12711-.0225.29026-.1538.30868-.0853-.08368-.1661-.17038-.2641-.25506-.2235.23953-.1682.15834-.6827.0349-.3164-.06756-.0812.09472-.2544.10415-.2253.00035-1.2544.07979-1.048-.09708-.0661.03-.1254.05927-.1891.08937-.1099.00023-.2184.00194-.3289.00487-.5533.01327-1.0934.12797-1.6569.20595-.0626.00922-.1253.01962-.1879.03107-.1198.02261-.1181.08282-.24.10927-.3268.07414-.5975.09067-.9369.18278-.1841.05145-.1913.12453-.4318.19046-.2399.06834-.2648-.0232-.55734.18258.13943.02246-.10344.10469-.39995.20469-.12181.03341-.35936.19143-.46658.28417-.03819.0286-.27726.37488-.44779.52042-.17192.14353-.46725.33439-.69432.61022-.00117.00143-.00234.00285-.00349.00428-.09692.1222-.10472.24515-.21084.3679-.07491.08713-.22092.14418-.31438.25748-.09622.11226-.22419.40342-.25185.45252-.10617.17682-.02916-.04392-.10598.07555-.27872.43378-.5296 1.00092-.7832 1.56549-.06639.1486-.12124.31625-.16931.48609-.02402.085.07203-.0116.07018.0004-.11945.6007-.09323.2702-.19677.4122-.0543.075-.18123.4519-.29567.7911-.09161.276-.15293.5242-.1089.545-.13615-.0131-.13545.2673-.15536.3321-.07821.2525-.16705.1641-.22112.417-.01945.0921.11447-.0531.07836.0407-.08885.2317-.27942.402-.39479.7135-.0278.0754.01642.1169-.02843.2515-.0466.1345-.2813.6861-.09144.4559-.1189.1974-.15214.3061-.18781.4556-.02018.0864-.03997.1877-.07432.3361-.02253.0981-.13747.2096-.14719.4321-.00295.0752.08162.0864.06561.1967-.0354.2522-.15215.484-.18449.8151-.01836.1892-.02753.3839-.03246.5816-.01097.4439.00733.8964.00855 1.34.0013.1735-.08789.1344-.07332.3886.00188.0378.10015.3354.11445.5078.00377.1038.03496.6471.05676.7532.02969.1778.11886.189.12557.2866.02096.2468-.11068.1378.02629.2927.02033.0244.04618.0546.07875.0928-.05476.1431.01074.3484-.08261.4439.15292.0891.07673.2758.17274.5003.09594.2242.3748.3674.13189.4794.05555.1031.20408.5604.22302.638.03866.1557.00714.1552-.00339.1923-.0054.0153-.00654.0381.00784.0864.00878.0271.04615-.0149.08977.1615.01936.1049.33032 1.0268.33876 1.088.0014.0071.00277.0141.00408.0209.05816.2983.01289.2-.05627.0179-.06607-.1803-.15701-.4311-.20239-.4868.00525-.0286.01088-.0562.0155-.0861-.06897-.2811-.12327-.0906-.10618.0424.01723.1328.14228.3521.1411.4687-.00071.0581-.13822.066-.17408-.0957.01572.1809-.10056-.035-.11564.0435-.00534.0272.01488.1226.04619.2398.06535.2535.21327.5957.2614.5784-.05384-.1379-.12114-.3096-.16626-.4525.06345-.2172.64478.1755.70871.7081.05567.3958-.32783-.1172.19329.6382-.06404-.1248-.10898-.2347-.16172-.3501.07914-.0556.07912.1752.15785.2536.03682.0369-.05131-.2685.09711-.0425-.00622.2214.13582.322.30295.5274.03468.0418.0708.0873.10844.1393-.04569-.0392-.09052-.0799-.13477-.1224-.03268-.0322-.06545-.0651-.09787-.0981.02578.0601.04168.1019.04907.1293.01458.0555-.0056.0528-.03969.0255-.10367-.0849-.32877-.4014-.08379.0537.03512.0632.08119.1403.14423.2322-.05692-.0712-.10945-.1457-.16016-.222-.03531-.0532-.07053-.1067-.10654-.1603-.00242.0924-.19375.0635-.18371.1396.00755.0564.0284.1136.05702.1702.07516.1486.20876.2891.31211.4183.06344.0786-.0074.0573-.00215.0638.08936.1078.11205.0453.19806.13.10413.1095.40139.4382.46485.4738.15504.0986-.01484-.1786.00621-.1746.12294.0291.28267.2031.31598.1362-.53629-.2485-1.47377-1.5205-.45295-.5453-.18309-.3583.00455-.3661.39795-.0395.34746.2635.08531.1396.23018.3375.01359.0277.51642.3998.57505.3731-.08439.0852.03727.284-.14562.3117-.02695.0044-.24574-.1433-.22039-.0121.01253.0661.06843.2268.01724.2679.06932-.0074.14335-.0183.21398-.0272.04865.0284.09072.054.12767.0778.23099.1455.27222.2142.41459.3635.00425-.0357-.11468-.251.14449-.0766.01345.0088.00318.0617.1389.1493.27436.1721.33766.2098.04777.2539.65947.1698.74575.3642 1.41547.503-.08028-.2225-.31938-.2272-.92406-.3954-.01043-.0519-.00721-.0986-.0181-.1513.74801.3613.36859.2219.83897.2658.07415.0063.34129.0834.47739.087.0739.002.1089-.0166.0514-.078-.0047-.005-.0143-.0107-.0273-.017-.0944-.0442-.3649-.1195-.3175-.1504.0064-.0042.1971.035.3388.0663.0741.0165.1372.0319.1488.0392.4513.2598-.4478.1753.9169.4105.0378.0059.0613-.0461.1358-.0393.1396.0126.1297.0763.2546.0848.1263.0086.3102-.0458.4812.0653.3141.2026-.5014.148-.8418-.0017-.1861.1781 2.3751.6096 2.5386.5931.7042.0176-.4579-.0885-.5093-.1528-.0217-.0259.0312-.3043-.286-.1651-.0942.0413.2554.1656.0361.1637-.2201-.0024-.122-.0724-.1368-.0804-.0503-.0277-.2837-.0328-.3115-.0494-.4253-.2521-.341-.5116.1979-.0197.2762-.0491-.3026-.2854.0318-.2956.4055-.0129.6752.154.7246.1668.5882.1474-.0759-.1285.6453.023.4027.0818-.6244.0526.307.15.7807.0739.3662-.0378.4381-.18.0171-.0335.4453-.0331-.1338-.0767-.0203.037-.0566.0848-.0972.1165-.1395-.0435-.353-.2644-.4268-.2802-.3617-.0766-.357.0251-.557-.1214.1367.1497-.1034.0387-.2011.0528-.3628.0505.0879.1565-.6752-.0903.0926.0762.1757.1495.2662.2245-.0948-.012-.1891-.0241-.2838-.0366-.1202-.1543-.6193-.219-.1477-.2794-.5344-.1253-.756-.1386-.8931-.0569-.0263.0154-.1088.0083-.2045-.0081.0126.0324.0188.1262.0016.1343-.154.0707-.3294-.1375-.2457-.1867-.0657-.0163-.1179-.0307-.1359-.036-.1148-.0338.1261-.0442.0353-.0832-.0297-.0122-.3625-.0698-.3633-.0948-.0051-.1601.5032.0758-.5502-.263-.0596.1297.4483.2183.2866.3315-.1354.0942-.3061-.0475-.4253-.0395-.0364.0022-.0681.018-.0934.0577-.0151-.0369-.0184-.0653-.0289-.1056-.45998-.0343-.42108-.1961-.54142-.2682-.23926-.1308-1.37318-.5453-.39665-.0408-.15763-.0381-.3132-.0872-.46697-.1346.07822-.289.10209-.1193-.53924-.4864-.12468-.0773-.11786-.1949-.27058-.1827-.01768.0005-.0373.0026-.05922.0064.09696-.1145-.37753-.306-.40416-.3466-.11982-.1706.27365-.0307.56775.1737.1298.0932.23845.196.23768.2958.20245-.0116.14136.1095.33235.1755.27741.0898.32191.0795.62078.2897.35747-.0067-1.21454-.5398-.21659-.3419.23707.0438.73821.1743 1.41087.3068 1.4028.2829 3.5534.5577 5.1481.6605.8286.056 1.5157.0745 1.8864.0819 1.115.0208 2.0046-.0011 2.8383-.0331.8762-.0398 1.6851-.0796 2.5456-.2665.1602-.0347.3203-.0874.4854-.1651.0844-.0329.449-.2465.7541-.4917.0859-.045.2863-.2734.2596-.1083-.0139.0779-.2695.4361.0944.2273-.1199.0311.0189-.2274.029-.2629.1699-.5189.0375-.4365.3013-.8856-.007.0045.0311-.0666.0884-.257zm2.1001-3.0007c-.2843 1.5045.0057.4122.1951.769.0349-.1961.0676-.391.0992-.5859-.0234.0493-.0467.0974-.0701.1457 0 .0003-.0001.0005-.0001.0007-.0744-.1096-.149-.2206-.2241-.3295zm-7.5588-20.37933c.0609-.03101.122-.0619.1898-.09148.2075.01628.4177.03642.6273.06204-.027.01999-.0528.0404-.0789.06059-.2482-.01799-.4946-.02837-.7382-.03115zm-8.2657 26.11363c-.2617-.147-.2697.0165-.6265-.1405.0189.1259.0436.2504.0664.3756.2916.0475.365.0172.6711.1089-.0291-.0446-.0586-.0896-.0861-.1343-.0526-.0024-.1105-.0049-.1616-.0083-.0573-.1202.4391-.0344.1378-.2015-.0004.0001-.0007.0001-.0011.0001zm-2.86343-.7944c-.11994-.0626-.52282-.3151-.69836-.414-.03214-.0166-.05745-.0264-.07283-.0267-.07876-.0018-.05002.0448.02162.1084.24531.2167.99631.5597.01967.1622-.00646.0233-.02374.0395-.03564.0593.21756.1403.44349.2623.67206.3702.02475-.0896.06958-.1689.09348-.2594zm16.78133.421c-.006.005-.0125.0104-.0196.0163-.1838.205-1.184.885-.7851.7688.1365-.0292.528-.4751.68-.6038.0962-.0752.0538.052.1837-.0744.0167-.016.0358-.0354.0552-.0574-.0361-.0159-.0704-.039-.1147-.0487.0002-.0003.0004-.0006.0005-.0008zm-.0341-.6878c-.0818.1276-.169.2542-.2798.3653-.0649.0646-.1315.1285-.1997.19.0823-.0154.1715-.0729.2524-.1293.1231-.0874.2129-.1842.2818-.145-.0384.0623-.0797.1239-.1283.1854-.0312.0106-.0625.02-.0938.0282-.0292.006-.0586.0121-.0877.0176-.1204.191.0094.1437-.3336.3691.2366.0143.3663.0428.5821-.2014.0967-.104.1808-.2437.2511-.422-.0077.1837.3864.2734.3953-.2045.0014-.0872-.1945.1534-.2052.1525-.1029-.0141-.0549-.1886-.1562-.1958-.0444-.0037-.1507.147-.2123.1351-.0276-.0068.0105-.189-.0661-.1452zm.6652-.152c.0068.0959.2606-.0607.3503-.2564.1411-.3035-.2434.0708-.3503.2564zm-6.2847-24.90034c.0005-.00003.0009-.00006.0014-.00009-.0002.00012-.0005.00024-.0007.00035-.0002-.00008-.0004-.00017-.0007-.00026zm-10.38345 25.67544c-.19236-.013-.45287-.1199-.46054-.0419-.08169-.0476-.16357-.0967-.2437-.1472-.00816.0214-.01551.0432-.02356.0643.25569.1245.51314.2331.77146.3327-.01449-.069-.02477-.137-.04366-.2079zm-2.59323-1.4835c-.27011-.2301-.10564.0382-.19797.027-.09531-.0102-.3123-.2656-.33249-.1883.15831.1564.33253.3052.50402.4374.00134-.0966.01869-.1835.02589-.2765.00018.0001.00037.0003.00055.0004zm21.44118-9.9357c-.0501.2212-.1164.1194-.0811.5713 0-.0003 0-.0006.0001-.001.1183-.4095.2417-.946.232-1.4147-.1151.2725-.0731.4974-.151.8444zm-15.9942 12.2367c.105-.0441-.3238-.1761-.4314-.1388-.1752.0618.2703.207.4314.1388zm15.1772-21.26234c-.2346-.22774-.2863.20175-.1909.72239.018.09478.0422.19264.0732.29024.0182.05557.004-.38158.0631-.26169.006.01205.0423.24759.0784.30124.0363.05397.0874-.01753.1292.07339.0736.16037.0516.55347.1305.66987.0106.0152.0553-.2332.0559-.2488.0107-.2504-.136-.46579-.1431-.50265-.0364-.19166.0525-.17714.0639-.22911.011-.05073-.0014-.11743-.0157-.17012-.0137-.05137-.0289-.08885-.0287-.09525.009-.15597.0417-.05908.0758.08686.0324.13853.0666.32367.0889.36463.1226.23003.1624-.00869.3036.56874.0134.0546.114.7217.0749-.1326.3888 1.382.107-.21347-.0562-.87408-.028-.11628-.0529-.20514-.0673-.24438-.0459-.12483-.0865.08554-.1379.01549-.1154-.15966-.2053-.45594-.3133-.39821-.2184.11642.0127.44244.0255.71499.0003.00547.0005.01094.0006.0164-.0127-.0039-.0252-.00697-.0375-.00982-.0443-.01083-.0875-.01911-.1352-.05073.0879.06498-.0102-.58761-.0373-.60692-.0001.00004-.0003.00008-.0004.00012zm.928 4.12204c-.0465.3856.1094.3542.0224.7115.1378.3182.1335-.3093.1312-.3825.0167-.3325.1681-.34.0873-.6694-.0777.1237-.1595.2259-.2409.3404zm-.3955-3.24259c.1205.23403.0434-.20837.0547-.22931.1263-.22324.3197 1.11-.0547.22931zm-4.0082 20.19519c-.1267.0409-.0207.0838-.1277.1436-.0593.033-.2129.063-.3357.0812-.0937.0142-.1698.028-.1614.048.0066.0149.094.0221.1784.0309.1556.0111.3179.0226.0255.1178-.0409.0127-.0929.0271-.1575.0427.0298.021.0255.0421.042.0633.045-.0091.0892-.0183.1324-.0274.172-.0364.3418-.0853.5062-.1457-.1426-.0286-.2843-.0688-.4109-.1123.0982-.0888.1828-.0354.1896-.0372-.0001-.0001-.0001-.0002-.0001-.0003.2141-.0749.4001-.3075.1192-.2046zm3.7413-8.9637c-.1836-.0621-.0115.2615-.004.3863.0074.1249-.0843.2828.0051.2306.0819-.1896.0195-.6103-.0013-.6169zm.5995-5.9187c.0142.3169.0686.273-.0286.6481.0473-.0097.0956-.0194.1422-.0293.0335-.3034-.1011-.2958-.0124-.6419.0145-.0572.1087.0776.0997-.1874-.0638.071-.1341.1415-.2009.2105zm.0007 1.5623c.0339-.3577-.3035-.6823-.2118-.0068.0138.0999.1864.2756.2118.0068zm-2.0257 10.9044c-.2677.6022.0961-.0634.1788-.2082-.5611 1.4937.0995-.1807.2512-.2566-.0076-.1867-.0527-.536-.1705-.1874-.0502.1447.0179.1047.0155.1135-.0867.2713-.1603.2129-.275.5387zm2.0084-15.1902c.0057.0228.0649-.022.0867.0507.0042.014.0067.0318.0082.0511.0064.0822-.004.196.029.2062.0235.0072.0315-.101.0255-.2127-.0044-.0842-.0169-.1724-.0348-.2144-.0423-.099-.1653-.086-.1146.1191zm-.1187 2.3769c.0176.3092.2997-.1681.3033-.2369.0001-.0015.0002-.003.0003-.0045.0186-.3434-.0625-.1895-.1482-.0121-.0609.1252-.1252.2634-.1554.2535zm-1.926 11.3381c-.0408.7401.2812.2667.4985-.1627-.0124-.0651-.0248-.1307-.0371-.1957.0943.3035.1464.8127.2323-.2771-.1539.5756-.0948.0771-.1032.0744-.2636-.1211-.3136.7636-.5904.5605 0 .0002-.0001.0004-.0001.0006zm1.9757-14.713c-.0467-.3187-.2267-1.1357-.2877-.7316.0971.2433.193.4865.2877.7316zm-11.5703 18.5371c-.2324-.0808-.451-.1021-.7303-.1236-.0264-.0021-.0534-.0041-.081-.0063.0319.0148.0577.0278.0781.0393.1138.0635.0626.08-.008.0898-.027.0037-.0568.0064-.0812.0104-.0858.0138-.0071.0294.0766.0413.0637.0091.1301.0159.1303.0189-.0146.0964-.2449.0937.2758.1334-.1314.024-.2612.0477-.3932.07.3973.0387.4859.1082.734.2037-.2329-.2072.0829-.0645.3817-.1422.1485-.0388-.2544-.289-.3838-.3348.0003 0 .0007 0 .001.0001zm9.3897-3.0997c.0154.0803.0434.1576.0628.237-.0165.0758-.0347.1531-.0536.2282-.0318.0005-.0642-.0021-.0954.0004-.0382.0918.0131.0687.0079.0976-.0002 0-.0003-.0001-.0005-.0001-.032.1664-.07.2842-.1228.3679-.1001.1588-.2.2764-.3589.4247.0789.0491.1577.0982.2366.1473.0342-.0717.0687-.1441.1028-.2158-.0204-.0619-.0406-.1241-.0606-.1863.0486-.0428.0971-.0853.1462-.1273.0219-.0176.0433-.0365.0645-.0572.0165-.0688.031-.1528.0358-.2157.2563-.1807.1273.1445.004.3399-.0463.0745-.0755.1361-.0507.154.0157.0114.0608-.0354.119-.11.1758-.2237.277-.6838.2676-.7741-.0027-.0183-.2347.1053-.0603-.1632.0263-.0412.4396.0403.1852-.3605-.0365-.0566-.3257.0455-.4296.2132zm-1.5593 2.2244c.252-.0218.0189.1587-.2095.2806-.2261.1202-.4423.1978-.0825.1434-.1215.1998-.097.1883.1449.1837.022-.0003-.0949.0998-.082.0973.2118-.0376.4038-.2033.4655-.1136.044-.0364.0849-.0712.1272-.109-.2496.0505.0134-.2182.0605-.3734.0234-.0696-.0949.0104-.076-.0492.0073-.0209.1751-.1287.1573-.1621-.041-.0732-.2062-.0721-.3984.001-.0001-.0001-.0001-.0001-.0002-.0002-.0359.0345-.0702.0682-.1068.1015zm2.758-9.08c.157-.0589.2405-.3706.2325.2474.0329-.0267.0656-.054.0984-.0802.0108-.1029.0213-.2023.0329-.3075-.0773-.0714-.1168-.1525-.1341-.2269-.0691-.3122.2374-.5848-.0475-.3247-.0387.0357-.034.2837-.0923.0318-.0001.0003-.0003.0006-.0004.0009-.0059.1186-.004.2013-.0046.2725-.0003.1275-.0081.2116-.0849.3867zm-.1917 2.2621c.2045.8164.3148-1.0482.1912-.75-.0106.0264-.0498.8305-.1912.75zm.516-6.248c-.0442.3466.1197.3889.1838.3605.0643-.0282.0306-.276.0435-.306.0427-.0978.0393.1194.0969-.0074.0192-.0418.1447-.6421.1398-.6708-.0239-.1586-.1851.0528-.1963.0069-.0366-.1488.0546-.3365-.0147-.3854-.1475-.1049-.0194.2739-.0235.3359-.012.1859-.0983.1604-.1309.297-.0325.1366-.0124.2304-.0323.3519-.0066.0405-.0637-.0001-.0663.0174zm.2212 1.1901c-.0843-.3774-.3238.49-.308.5973.0501.319.3491-.4158.308-.5973zm-2.2589 11.3752c.1026-.329-.371.2868-.5011.417.0555.0269.4701-.2949.5011-.417zm.762-2.6456c-.0353.305.2525-.0483.3004-.3017-.1036-.1752-.1054-.0295-.1445.1323-.0396.1631-.1287-.0699-.1559.1694zm1.4985-13.635c.0019.0207.03.1465.064.2833.0709.2842.164.6263.1544.2125-.0005-.0151-.012-.1087-.0296-.2274-.0344-.2363-.0947-.576-.1139-.6113-.0577-.1068-.0907.1733-.0749.3429zm-1.4199 12.1626c.09.177.0603.335.2225.2121.0001-.0002.0001-.0004.0001-.0006-.0291.4109-.3135.3751-.3236.4611-.0019.0156-.003.0296-.0035.0422-.0101.2411.2207.0279.2463.2196.0039-.0666.0099-.1216.0174-.1672.0402-.2523.1287-.1839.1874-.4709.0158-.0766-.0136-.393-.0565-.4464-.0428-.0524-.2178.0782-.2901.1501zm1.1736-13.6477c.0111.3621.2493.6601.2037.1609-.0228-.2438-.2109-.3822-.2037-.1609zm-19.04166 17.387c.02097.0692.04467.1388.07318.2095-.12081-.0488-.2396-.1019-.35682-.1605.09577.0411.19218.0788.29044.1139-.20544-.133-.24585-.267-.00734-.1632zm-3.96079-7.3172c.00691-.0559-.03213-.1228-.07737-.1756-.05254-.0574-.11318-.0999-.11543-.084-.00557.0403-.00279.081.005.117.03737.1689.17012.2816.1878.1426zm20.35575 7.7858c-.0506.0491-.0708.0781-.074.103-.0141.0406.0127.0633.0601.0692.0655.0215.1875-.0141.2639-.0981-.1223.0751-.1192-.2096-.25-.0741zm-19.61384-4.7617c-.00807.0419-.01592.0844-.02252.131-.01412-.1346-.00288-.1624.02252-.131zm22.31514-11.4146c-.0029.0167-.002.0626.001.1197.0093.161.0313.4164.0517.4593.0598.1229.162-.2436.0943-.4516-.0013-.0041-.0062-.0125-.0136-.0236-.0347-.0508-.1245-.1567-.1333-.1029 0-.0003-.0001-.0006-.0001-.0009zm-19.51306 15.3431c-.00063.0023-.00214.004-.00434.005.00156-.0016.00265-.0035.00434-.005zm-2.37748-15.7592c-.00442.001-.0084.0009-.01165-.0007.00364.0004.00781-.0001.01165.0007zm21.62644 3.5929c-.247.129-.1644.4984-.0192.2298.0078-.0151.0147-.1925.0192-.2298z"/></g></svg>