<svg width="36" height="36" viewBox="0 0 36 36" fill="none" xmlns="http://www.w3.org/2000/svg">
<path d="M18.8993 7.1785C17.4614 7.15284 15.5344 8.08662 12.2261 9.71623C11.1836 10.2297 9.7052 12.9423 7.5484 16.8995L7.5438 16.9079C6.13379 19.495 5.97373 21.0301 5.97266 21.8632C5.97022 23.771 7.34574 25.03 9.08051 26.838C10.5765 28.397 12.117 29.1064 16.0263 29.641C19.3254 30.0921 21.0878 28.822 24.7539 26.7079C27.6788 25.0212 27.8635 23.2282 29.1693 18.8832C29.9283 16.3573 29.9437 14.9421 30.0107 13.558C30.0534 12.6748 30.012 11.7983 29.7725 11.0418C29.2913 9.5219 26.2602 7.98176 23.2234 6.67462C22.5769 6.50015 21.9715 6.41438 21.0491 6.35048C20.1266 6.28657 18.9055 6.24713 17.5696 6.28333M18.4949 12.8418C18.8499 12.4311 19.6942 12.2517 20.8993 12.6463C21.5203 12.8496 21.849 13.7002 22.0454 14.3268C22.2417 14.9535 22.216 15.4944 22.0863 15.8238C21.6807 16.8542 19.7684 16.6156 18.7665 17.2447C17.9213 18.0343 17.2604 18.8975 17.1333 19.6595C17.09 20.0497 17.0901 20.447 17.0123 20.8562M17.0749 24.1677C17.1256 24.193 17.1763 24.2184 17.2109 24.3596C17.2455 24.5009 17.2624 24.7572 17.0663 24.7482" stroke="#4E220F" stroke-width="2" stroke-linecap="round"/>
</svg>
