<svg width="36" height="36" viewBox="0 0 36 36" fill="none" xmlns="http://www.w3.org/2000/svg">
<path d="M17.5677 11.5728C17.5317 12.3114 17.6837 13.4568 17.962 15.0033C18.1842 16.2378 18.09 18.6129 18.2564 19.7745C18.4625 21.214 18.5674 21.7232 18.3842 22.3593C18.2932 22.9685 18.2535 23.6865 18.2564 24.1034C18.2642 24.2125 18.272 24.3182 18.2799 24.4271" stroke="#4E220F" stroke-width="2" stroke-linecap="round"/>
<path d="M12.1953 17.4491C12.5304 17.4391 12.8655 17.4292 14.2786 17.4279C15.6917 17.4266 18.1727 17.4342 19.5059 17.4303C21.4138 17.4248 22.3428 17.3945 22.9765 17.4727C23.123 17.4991 23.2228 17.525 23.3219 17.5433C23.421 17.5616 23.5162 17.5715 23.8064 17.6178" stroke="#4E220F" stroke-width="2" stroke-linecap="round"/>
<path d="M5.98848 10.1328C6.98729 8.2732 13.0145 6.51208 16.3591 6.51221C20.8828 6.51238 29.6849 8.59876 30.9876 13.215C31.8171 16.1543 30.4038 21.9621 29.0935 24.9404C26.1307 31.6747 10.6677 29.8505 6.88798 26.3757C4.62327 24.2938 3.93634 13.9535 5.98848 10.1328Z" stroke="#4E220F" stroke-width="2" stroke-linecap="round"/>
</svg>
