<svg width="36" height="36" viewBox="0 0 36 36" fill="none" xmlns="http://www.w3.org/2000/svg">
<path d="M6.49609 10.1968C7.594 10.0116 10.4315 9.82267 12.3807 9.91466C13.467 9.96592 14.7219 10.0886 17.8423 10.3938L17.9602 10.4054C25.3204 11.1897 27.535 11.4647 28.7537 11.139C29.0392 11.0532 29.2657 11.0052 29.499 10.9558M7.81003 19.2614C8.60587 19.0227 9.40172 18.7839 12.4248 18.6296C15.4479 18.4753 20.6742 18.4127 23.5068 18.3987C26.62 18.4213 27.1897 18.459 27.7528 18.4406C28.0353 18.4221 28.3112 18.3853 28.5955 18.4191M7.24049 25.9125C7.38269 26.0073 8.99702 26.0862 11.5043 26.1102C12.8161 26.1228 16.7689 25.8219 22.3487 25.5091C24.5848 25.3537 25.654 25.3158 27.1814 25.3276C27.9022 25.3395 28.5125 25.3632 29.1413 25.3876" stroke="#4E220F" stroke-width="2.1316" stroke-linecap="round"/>
</svg>
