<svg width="36" height="36" viewBox="0 0 36 36" fill="none" xmlns="http://www.w3.org/2000/svg">
<path d="M10.1571 5.68359C11.9754 5.98161 14.4923 6.14802 24.4975 7.5106C26.9031 7.83821 28.2677 7.78968 29.0047 8.03073C29.7416 8.27177 29.8158 8.75387 29.854 9.19525C30.0001 10.8823 29.42 12.9814 29.2308 14.8952C29.0219 17.009 28.6501 19.1386 28.5513 26.6768C28.5288 28.3894 28.4436 29.0609 28.0938 29.4765C25.8123 32.1874 19.4073 29.9672 12.0172 29.8905C10.0878 29.8705 8.84223 30.0439 7.66516 29.792C5.5725 29.344 6.93685 22.7857 6.9389 21.9712C6.94933 17.825 7.34061 17.1849 7.49134 13.0246C7.54663 12.0318 8.2122 9.99612 8.33343 9.47193C8.45466 8.94775 8.58318 8.56848 8.83465 7.63098M16.9864 25.0437C16.9643 25.0437 16.9558 25.0718 16.9613 25.1198M16.9613 25.1198C16.9657 25.1587 16.9792 25.2105 17.0021 25.271M16.9613 25.1198C17.003 25.1627 17.024 25.2024 17.017 25.2379C17.0148 25.2494 17.0096 25.2605 17.0021 25.271M16.9613 25.1198C16.8832 25.0395 16.7326 24.948 16.5572 24.852M17.0021 25.271C17.0525 25.4043 17.1482 25.5795 17.2909 25.7488C17.3885 25.8645 17.5976 25.3035 17.4981 25.0158C17.3987 24.7281 17.0378 24.5875 16.7724 24.6918C16.6881 24.7249 16.6145 24.7832 16.5572 24.852M17.0021 25.271C16.923 25.3813 16.5771 25.4295 16.4677 25.2959C16.3859 25.1961 16.4341 24.9998 16.5572 24.852M16.5572 24.852C16.4767 24.8078 16.3909 24.7628 16.3045 24.7174" stroke="#4E220F" stroke-width="2" stroke-linecap="round"/>
</svg>
