<svg width="36" height="36" viewBox="0 0 36 36" fill="none" xmlns="http://www.w3.org/2000/svg">
<path d="M20.7107 6.30078C20.2798 6.91852 19.8489 7.53626 18.1773 9.98929C16.5057 12.4423 13.6064 16.7119 11.9646 19.0432C9.64961 22.3304 8.87276 23.1587 8.5209 23.7271C7.54825 25.2984 9.24349 27.576 9.50559 28.007C10.3302 29.3629 13.0018 26.0296 13.8161 25.1182C14.8354 23.9775 16.1411 22.1144 17.0269 20.6851C18.4077 18.4571 18.8946 16.7758 20.0791 14.4276C20.7537 13.0903 21.805 12.1154 22.6263 10.8273C23.3428 9.70349 23.5376 9.19919 24.0858 8.19926C23.9028 7.66878 23.3595 7.18428 22.6263 6.84386C22.253 6.71309 21.8775 6.66755 20.9451 6.62062M10.3242 22.3734C10.3242 22.3141 11.0753 22.443 12.4037 22.7642C12.981 22.926 13.3616 23.0854 13.7613 23.2234C14.1611 23.3613 14.5685 23.473 14.9882 23.5881M19.8906 20.1902C20.1892 19.8779 20.7959 19.8901 22.18 20.2638C23.1111 20.4643 24.5067 20.687 25.3375 20.6851C26.1683 20.6833 26.3921 20.4501 27.2929 19.981M14.2656 29.3434C14.5032 29.0871 14.7821 28.8444 15.1107 28.5078C15.3855 28.2264 15.8601 28.0941 16.2444 28.1311C16.5701 28.1624 16.7873 28.6988 17.0269 29.0469C17.1289 29.1953 17.3319 29.25 17.525 29.2938C17.8507 29.3678 19.1381 28.829 20.0791 28.5022C20.7343 28.2747 21.5853 28.9015 22.9179 28.895C23.8235 28.8905 24.1602 28.8175 24.4729 28.9156C24.9429 29.0632 25.7686 29.0548 26.6625 28.9402C26.8829 28.8705 27.025 28.819 27.2179 28.7947C27.3395 28.7864 27.5093 28.7864 27.7055 28.765M18.5586 24.6659C18.967 24.4589 20.1532 24.0311 20.8061 24.0121C21.2158 24.0002 21.9334 24.2711 22.6844 24.4394C23.3954 24.5988 24.6518 24.6426 25.1675 24.7662C25.3489 24.8097 25.449 25.0299 25.6158 25.1158C25.772 25.1963 25.9511 25.1915 26.1221 25.1618C26.5922 25.0802 27.1338 24.6048 27.5593 24.4825C27.6507 24.4713 27.7442 24.4713 27.8456 24.4588C27.947 24.4463 28.0534 24.4213 28.1842 24.3955" stroke="#4E220F" stroke-width="2" stroke-linecap="round"/>
</svg>
